<?xml version="1.0" encoding="UTF-8"?>
<svg version="1.1" xmlns="http://www.w3.org/2000/svg" width="400" height="400">
<path d="M0 0 C132 0 264 0 400 0 C400 132 400 264 400 400 C268 400 136 400 0 400 C0 268 0 136 0 0 Z " fill="#FEFEFE" transform="translate(0,0)"/>
<path d="M0 0 C0.495 0.99 0.495 0.99 1 2 C1.33 1.01 1.66 0.02 2 -1 C4.64 -1 7.28 -1 10 -1 C11.21693876 1.43387753 11.31959896 3.41838846 11.5625 6.125 C11.64628906 7.03507813 11.73007813 7.94515625 11.81640625 8.8828125 C11.87699219 9.58148438 11.93757813 10.28015625 12 11 C12.99 10.34 13.98 9.68 15 9 C19.85532856 8.5224267 22.04398784 8.48658606 26.375 10.8125 C29 13 29 13 31 16 C31.22705078 18.63549805 31.22705078 18.63549805 31.1953125 21.76171875 C31.18886719 22.87998047 31.18242188 23.99824219 31.17578125 25.15039062 C31.15064453 26.90125977 31.15064453 26.90125977 31.125 28.6875 C31.11597656 29.86634766 31.10695313 31.04519531 31.09765625 32.25976562 C31.07406423 35.17338026 31.0411454 38.08658892 31 41 C28.03 41 25.06 41 22 41 C22 33.08 22 25.16 22 17 C19.03 17 16.06 17 13 17 C11.31699331 18.68300669 11.77190923 20.82008727 11.68359375 23.12890625 C11.62075195 24.68061523 11.62075195 24.68061523 11.55664062 26.26367188 C11.51732422 27.35228516 11.47800781 28.44089844 11.4375 29.5625 C11.37272461 31.2012207 11.37272461 31.2012207 11.30664062 32.87304688 C11.20017932 35.58189564 11.09816484 38.29083992 11 41 C9.54257537 41.08096803 8.08387193 41.13917774 6.625 41.1875 C5.81289062 41.22230469 5.00078125 41.25710937 4.1640625 41.29296875 C3.44992188 41.19628906 2.73578125 41.09960938 2 41 C1.34 40.01 0.68 39.02 0 38 C-0.61746094 38.28875 -1.23492187 38.5775 -1.87109375 38.875 C-8.78018052 41.90364077 -14.31953958 43.56245798 -21.64453125 41.1171875 C-27.6607855 38.45699894 -30.45187129 36.05180568 -33 30 C-33.4125 29.030625 -33.825 28.06125 -34.25 27.0625 C-35.74130466 20.97300597 -35.48461112 15.08839325 -33.38671875 9.18359375 C-26.57290769 -1.54575944 -11.25821861 -3.04276179 0 0 Z " fill="#F6FBF9" transform="translate(86,156)"/>
<path d="M0 0 C2.90668846 -0.00072345 5.81337253 -0.00288184 8.72005987 -0.00549722 C18.9981199 -0.01471042 29.27616715 -0.01883934 39.55423117 -0.01804566 C47.87846985 -0.01751863 56.20266088 -0.02444037 64.52688742 -0.03855348 C106.6026366 -0.10829361 148.65636089 -0.04492305 190.71878195 1.11647582 C191.51743123 1.13818414 192.3160805 1.15989246 193.13893127 1.18225861 C197.6547943 1.30549227 202.17039373 1.43504665 206.68576241 1.57527351 C208.66957955 1.63670042 210.65348295 1.69532165 212.63738775 1.75384879 C213.81303415 1.79320611 214.98868055 1.83256343 216.1999526 1.87311339 C217.21427296 1.90585703 218.22859331 1.93860066 219.27365065 1.97233653 C221.94012743 2.16028144 224.43421736 2.57966034 227.03909445 3.16725707 C227.03909445 3.49725707 227.03909445 3.82725707 227.03909445 4.16725707 C222.67265378 5.19267425 218.32993996 5.47167113 213.86572409 5.69307494 C212.63911436 5.75658826 212.63911436 5.75658826 211.38772464 5.82138467 C208.6505426 5.95889711 205.91307743 6.08752481 203.17532492 6.21315551 C202.21346077 6.25757765 201.25159662 6.3019998 200.26058507 6.34776807 C175.72177532 7.44950714 151.18852392 7.46194267 126.62963104 7.43590808 C120.16511439 7.43071961 113.70060239 7.43557422 107.23608541 7.43868041 C95.70555283 7.44251279 84.17505128 7.43643188 72.64452361 7.42616174 C62.30679366 7.41723713 51.96910874 7.41878332 41.6313796 7.42799926 C29.46943728 7.43883723 17.30752676 7.44261573 5.1455797 7.43677473 C-1.23468211 7.433714 -7.61491335 7.43307689 -13.99517298 7.43984771 C-38.66010135 7.46246022 -63.28215418 7.30648687 -87.92623758 6.21315551 C-88.89990015 6.17006145 -89.87356271 6.12696739 -90.8767302 6.08256745 C-93.60693785 5.95851475 -96.33670968 5.82790263 -99.06640482 5.69307494 C-99.85504585 5.6553225 -100.64368687 5.61757006 -101.45622611 5.5786736 C-106.33100711 5.32232812 -111.12331472 4.82339912 -115.96090555 4.16725707 C-115.96090555 3.50725707 -115.96090555 2.84725707 -115.96090555 2.16725707 C-115.11456553 2.15179587 -115.11456553 2.15179587 -114.25112772 2.13602233 C-108.21292406 2.02522787 -102.1747923 1.9109605 -96.1366868 1.79494262 C-93.9029786 1.75243976 -91.66925503 1.71073468 -89.43551493 1.66994262 C-78.58058601 1.47119731 -67.73141104 1.25878679 -56.88425875 0.79226947 C-37.92549497 0.00320775 -18.97207869 0.00267139 0 0 Z " fill="#CB8E49" transform="translate(145.9609055519104,202.83274292945862)"/>
<path d="M0 0 C1.66981008 0.95175787 3.27455217 2.01596837 4.86328125 3.09765625 C4.86328125 2.43765625 4.86328125 1.77765625 4.86328125 1.09765625 C6.18328125 1.09765625 7.50328125 1.09765625 8.86328125 1.09765625 C8.86328125 10.99765625 8.86328125 20.89765625 8.86328125 31.09765625 C6.55328125 30.76765625 4.24328125 30.43765625 1.86328125 30.09765625 C0.19360153 30.75674035 -1.4727983 31.42416464 -3.13671875 32.09765625 C-8.76330988 32.7472813 -13.4347026 32.51730436 -18.13671875 29.09765625 C-21.87535686 25.06230083 -23.50592934 21.0810238 -23.88671875 15.59765625 C-23.64027272 10.22065194 -21.79248353 7.39309181 -17.9921875 3.69140625 C-12.57186293 -0.96436728 -6.93117345 -2.92705862 0 0 Z " fill="#1E855F" transform="translate(263.13671875,164.90234375)"/>
<path d="M0 0 C1.32 0 2.64 0 4 0 C4.33 0.66 4.66 1.32 5 2 C6.32 2 7.64 2 9 2 C9 1.34 9 0.68 9 0 C10.60379341 -0.05416188 12.20811406 -0.09286638 13.8125 -0.125 C14.70582031 -0.14820313 15.59914063 -0.17140625 16.51953125 -0.1953125 C19 0 19 0 22 2 C25.31086259 1.71725862 25.31086259 1.71725862 28 0 C32.68919232 -0.60219101 36.14302761 -0.44435606 40.375 1.75 C45.7943024 6.39511634 45.7943024 6.39511634 46.34057617 10.65722656 C46.3170105 12.13400879 46.3170105 12.13400879 46.29296875 13.640625 C46.2784668 15.24550781 46.2784668 15.24550781 46.26367188 16.8828125 C46.23853516 17.99398437 46.21339844 19.10515625 46.1875 20.25 C46.16719727 21.93996094 46.16719727 21.93996094 46.14648438 23.6640625 C46.11115645 26.44319264 46.0618252 29.22135363 46 32 C43.36 32 40.72 32 38 32 C37.93941406 30.69804687 37.87882812 29.39609375 37.81640625 28.0546875 C37.73195438 26.32811601 37.64730874 24.601554 37.5625 22.875 C37.52318359 22.0190625 37.48386719 21.163125 37.44335938 20.28125 C37.21843598 15.78278208 36.86459117 11.43193793 36 7 C31.65815798 7.18464366 31.65815798 7.18464366 28 9 C27.84259395 10.70563778 27.74906608 12.41727244 27.68359375 14.12890625 C27.64169922 15.16337891 27.59980469 16.19785156 27.55664062 17.26367188 C27.51732422 18.35228516 27.47800781 19.44089844 27.4375 20.5625 C27.39431641 21.65498047 27.35113281 22.74746094 27.30664062 23.87304688 C27.20017932 26.58189564 27.09816484 29.29083992 27 32 C24.36 32 21.72 32 19 32 C18.505 20.12 18.505 20.12 18 8 C15.36 8 12.72 8 10 8 C8.31699331 9.68300669 8.77190923 11.82008727 8.68359375 14.12890625 C8.64169922 15.16337891 8.59980469 16.19785156 8.55664062 17.26367188 C8.51732422 18.35228516 8.47800781 19.44089844 8.4375 20.5625 C8.39431641 21.65498047 8.35113281 22.74746094 8.30664062 23.87304688 C8.20017932 26.58189564 8.09816484 29.29083992 8 32 C5.66705225 32.04241723 3.33297433 32.04092937 1 32 C0 31 0 31 -0.11352539 28.04077148 C-0.10828857 26.74727783 -0.10305176 25.45378418 -0.09765625 24.12109375 C-0.0962413 23.4344313 -0.09482635 22.74776886 -0.09336853 22.04029846 C-0.08775479 19.83932199 -0.07520007 17.63844591 -0.0625 15.4375 C-0.05748676 13.94856917 -0.05292355 12.45963676 -0.04882812 10.97070312 C-0.03778093 7.31376925 -0.02050713 3.65689442 0 0 Z " fill="#1E845E" transform="translate(277,165)"/>
<path d="M0 0 C1.796875 0.953125 1.796875 0.953125 5.046875 3.265625 C6.5009375 4.2246875 6.5009375 4.2246875 7.984375 5.203125 C11.36387729 10.22117386 10.80469471 15.41236992 10.046875 21.265625 C8.79651237 25.76227073 6.31284096 28.41054601 2.296875 30.703125 C-2.6832843 32.83352648 -6.84984306 33.13500454 -12.05859375 31.67578125 C-17.19229982 29.58569829 -19.71547354 26.58354129 -22.1015625 21.6328125 C-23.5078567 17.72357265 -23.62419536 15.42626124 -22.953125 11.265625 C-18.67428101 2.19899962 -9.9585304 -3.74440743 0 0 Z " fill="#308B6A" transform="translate(141.953125,164.734375)"/>
<path d="M0 0 C2.90668846 -0.00072345 5.81337253 -0.00288184 8.72005987 -0.00549722 C18.9981199 -0.01471042 29.27616715 -0.01883934 39.55423117 -0.01804566 C47.87846985 -0.01751863 56.20266088 -0.02444037 64.52688742 -0.03855348 C106.6026366 -0.10829361 148.65636089 -0.04492305 190.71878195 1.11647582 C191.51743123 1.13818414 192.3160805 1.15989246 193.13893127 1.18225861 C197.6547943 1.30549227 202.17039373 1.43504665 206.68576241 1.57527351 C208.66957955 1.63670042 210.65348295 1.69532165 212.63738775 1.75384879 C213.81303415 1.79320611 214.98868055 1.83256343 216.1999526 1.87311339 C217.21427296 1.90585703 218.22859331 1.93860066 219.27365065 1.97233653 C221.94012743 2.16028144 224.43421736 2.57966034 227.03909445 3.16725707 C227.03909445 3.49725707 227.03909445 3.82725707 227.03909445 4.16725707 C223.20185273 5.0713938 219.66407171 5.27302605 215.72659445 5.22975707 C214.65796164 5.22073363 213.58932882 5.2117102 212.4883132 5.20241332 C211.68007101 5.19081176 210.87182882 5.1792102 210.03909445 5.16725707 C210.03909445 4.50725707 210.03909445 3.84725707 210.03909445 3.16725707 C209.46916769 3.16987548 208.89924093 3.17249389 208.31204367 3.17519164 C196.25998294 3.22227932 184.21438251 3.16693141 172.16409445 2.94850707 C133.73860919 2.26457409 95.31947853 2.05425452 56.88791037 2.0438745 C53.04889798 2.04228697 49.20989204 2.03875066 45.37088156 2.03468871 C9.91567464 2.00138685 -25.51429243 2.38928416 -60.96090555 3.16725707 C-60.96090555 3.82725707 -60.96090555 4.48725707 -60.96090555 5.16725707 C17.90909445 5.49725707 96.77909445 5.82725707 178.03909445 6.16725707 C178.03909445 6.49725707 178.03909445 6.82725707 178.03909445 7.16725707 C148.24752348 7.21323751 118.45595373 7.248457 88.66435473 7.26938773 C85.11853224 7.27188808 81.57270981 7.27447682 78.02688742 7.27712035 C77.32120615 7.27764497 76.61552489 7.27816959 75.88845934 7.27871011 C64.5772368 7.2873282 53.26603533 7.30304864 41.95482515 7.32156266 C30.28157624 7.34050477 18.60833809 7.35142402 6.93507445 7.35543406 C0.40659812 7.35789264 -6.12183974 7.36388255 -12.65030146 7.37871718 C-37.79590822 7.43359105 -62.89825038 7.33692872 -88.02291727 6.21755004 C-89.47946203 6.15272945 -89.47946203 6.15272945 -90.96543193 6.08659935 C-93.68421391 5.96220816 -96.4025407 5.83110396 -99.12078714 5.69554687 C-100.29636718 5.63858268 -100.29636718 5.63858268 -101.49569631 5.5804677 C-106.35667015 5.32167167 -111.13675257 4.8207152 -115.96090555 4.16725707 C-115.96090555 3.50725707 -115.96090555 2.84725707 -115.96090555 2.16725707 C-115.11456553 2.15179587 -115.11456553 2.15179587 -114.25112772 2.13602233 C-108.21292406 2.02522787 -102.1747923 1.9109605 -96.1366868 1.79494262 C-93.9029786 1.75243976 -91.66925503 1.71073468 -89.43551493 1.66994262 C-78.58058601 1.47119731 -67.73141104 1.25878679 -56.88425875 0.79226947 C-37.92549497 0.00320775 -18.97207869 0.00267139 0 0 Z " fill="#D3A16A" transform="translate(145.9609055519104,202.83274292945862)"/>
<path d="M0 0 C0.495 1.98 0.495 1.98 1 4 C0.01 3.67 -0.98 3.34 -2 3 C-2 2.34 -2 1.68 -2 1 C-3.32 1 -4.64 1 -6 1 C-5.67 11.23 -5.34 21.46 -5 32 C-2.69 32.33 -0.38 32.66 2 33 C1.98428955 31.97060303 1.98428955 31.97060303 1.96826172 30.92041016 C1.92678126 27.82197711 1.90069931 24.72360239 1.875 21.625 C1.85824219 20.54476562 1.84148437 19.46453125 1.82421875 18.3515625 C1.81455078 16.8046875 1.81455078 16.8046875 1.8046875 15.2265625 C1.78897705 13.79691162 1.78897705 13.79691162 1.77294922 12.33837891 C2 10 2 10 4 8 C9.22525286 7.44412204 9.22525286 7.44412204 11.6730957 9.20043945 C13.45151789 11.61235296 13.34458505 13.12892892 13.29296875 16.10546875 C13.2784668 17.57983398 13.2784668 17.57983398 13.26367188 19.08398438 C13.23853516 20.10814453 13.21339844 21.13230469 13.1875 22.1875 C13.16719727 23.74114258 13.16719727 23.74114258 13.14648438 25.32617188 C13.11111389 27.88463699 13.06175544 30.4420578 13 33 C15.64 33 18.28 33 21 33 C20.34 33.99 19.68 34.98 19 36 C16.5625 36.1875 16.5625 36.1875 14 36 C13.01 36 12.02 36 11 36 C11 36.99 11 37.98 11 39 C-8.14 39 -27.28 39 -47 39 C-47 38.67 -47 38.34 -47 38 C-41.06 38 -35.12 38 -29 38 C-29.495 35.525 -29.495 35.525 -30 33 C-29.00419922 32.80083984 -29.00419922 32.80083984 -27.98828125 32.59765625 C-27.10527344 32.42105469 -26.22226562 32.24445313 -25.3125 32.0625 C-23.54166667 31.70833333 -21.77083333 31.35416667 -20 31 C-18.72189453 30.65775391 -18.72189453 30.65775391 -17.41796875 30.30859375 C-15 30 -15 30 -11 32 C-11 22.1 -11 12.2 -11 2 C-11.66 1.67 -12.32 1.34 -13 1 C-8.59085217 -0.10228696 -4.51617599 -0.07654536 0 0 Z " fill="#F1F9F4" transform="translate(283,164)"/>
<path d="M0 0 C0 2.64 0 5.28 0 8 C-0.71027344 7.67773438 -1.42054687 7.35546875 -2.15234375 7.0234375 C-6.72902084 5.37859608 -11.2004993 5.39265578 -16 6 C-19.1486677 8.15030965 -20.53201707 10.53580598 -22 14 C-22.46847128 17.70419152 -22.48479321 21.29640534 -22 25 C-20.18735352 27.56990998 -20.18735352 27.56990998 -18 29 C-18 29.66 -18 30.32 -18 31 C-16.10489301 31.08160748 -14.20875496 31.13946459 -12.3125 31.1875 C-10.72888672 31.23970703 -10.72888672 31.23970703 -9.11328125 31.29296875 C-5.62759828 30.96495592 -3.87545813 29.9186507 -1 28 C-0.34 28 0.32 28 1 28 C1 30.97 1 33.94 1 37 C-7.41567999 40.20597333 -13.83899988 41.70211956 -22.3125 37.9375 C-27.10846797 35.30529432 -28.88982813 33.01165818 -31 28 C-31.4125 27.030625 -31.825 26.06125 -32.25 25.0625 C-33.74130466 18.97300597 -33.48461112 13.08839325 -31.38671875 7.18359375 C-24.2593332 -4.03952884 -10.93319421 -4.68565466 0 0 Z " fill="#228863" transform="translate(84,158)"/>
<path d="M0 0 C6 0 6 0 8 1 C8.4140625 3.28515625 8.4140625 3.28515625 8.625 6.0625 C8.69976562 6.98160156 8.77453125 7.90070313 8.8515625 8.84765625 C8.90054688 9.55792969 8.94953125 10.26820313 9 11 C9.99 10.34 10.98 9.68 12 9 C16.85532856 8.5224267 19.04398784 8.48658606 23.375 10.8125 C26 13 26 13 28 16 C28.22705078 18.63549805 28.22705078 18.63549805 28.1953125 21.76171875 C28.18886719 22.87998047 28.18242188 23.99824219 28.17578125 25.15039062 C28.15902344 26.31763672 28.14226562 27.48488281 28.125 28.6875 C28.11597656 29.86634766 28.10695313 31.04519531 28.09765625 32.25976562 C28.07406423 35.17338026 28.0411454 38.08658892 28 41 C25.03 41 22.06 41 19 41 C19 33.08 19 25.16 19 17 C16.03 17 13.06 17 10 17 C8.31699331 18.68300669 8.77190923 20.82008727 8.68359375 23.12890625 C8.64169922 24.16337891 8.59980469 25.19785156 8.55664062 26.26367188 C8.51732422 27.35228516 8.47800781 28.44089844 8.4375 29.5625 C8.39431641 30.65498047 8.35113281 31.74746094 8.30664062 32.87304688 C8.20017932 35.58189564 8.09816484 38.29083992 8 41 C5.36 41 2.72 41 0 41 C0 27.47 0 13.94 0 0 Z " fill="#218560" transform="translate(89,156)"/>
<path d="M0 0 C5 0 5 0 6.76953125 1.20703125 C8.29826683 3.43461739 8.49321636 5.00638576 8.6875 7.6875 C8.78611328 8.89986328 8.78611328 8.89986328 8.88671875 10.13671875 C8.92410156 10.75160156 8.96148437 11.36648437 9 12 C9.99 11.34 10.98 10.68 12 10 C13.9375 9.76953125 13.9375 9.76953125 16 9.8125 C16.680625 9.81894531 17.36125 9.82539063 18.0625 9.83203125 C21.33947682 10.116124 22.84013481 10.83914242 25.16308594 13.17651367 C27.3306997 16.50831233 27.46819777 18.23896294 27.390625 22.17578125 C27.37128906 23.91118164 27.37128906 23.91118164 27.3515625 25.68164062 C27.31804687 26.87982422 27.28453125 28.07800781 27.25 29.3125 C27.23195312 30.53001953 27.21390625 31.74753906 27.1953125 33.00195312 C27.14825131 36.00210422 27.0825131 39.00064889 27 42 C24.69 42 22.38 42 20 42 C20 34.74 20 27.48 20 20 C16.50615721 18.83538574 13.66344611 18.86431681 10 19 C8.34920558 20.65079442 8.77450553 22.63736179 8.68359375 24.91015625 C8.64169922 25.89951172 8.59980469 26.88886719 8.55664062 27.90820312 C8.51732422 28.94912109 8.47800781 29.99003906 8.4375 31.0625 C8.39431641 32.10728516 8.35113281 33.15207031 8.30664062 34.22851562 C8.20018775 36.81886884 8.0981724 39.40932186 8 42 C5.36 42 2.72 42 0 42 C0 28.14 0 14.28 0 0 Z " fill="#2C8D6A" transform="translate(190,154)"/>
<path d="M0 0 C2.0625 2.3125 2.0625 2.3125 2.375 5.0625 C2.271875 5.805 2.16875 6.5475 2.0625 7.3125 C1.5675 7.1475 1.0725 6.9825 0.5625 6.8125 C-3.46959172 6.00608166 -8.19775568 5.44262784 -11.9375 7.3125 C-11.9375 8.3025 -11.9375 9.2925 -11.9375 10.3125 C-11.18984375 10.48265625 -10.4421875 10.6528125 -9.671875 10.828125 C-8.68703125 11.07046875 -7.7021875 11.3128125 -6.6875 11.5625 C-5.22570312 11.91054687 -5.22570312 11.91054687 -3.734375 12.265625 C-0.54987036 13.45759043 0.97212196 14.64714618 3.0625 17.3125 C3.51718446 20.49529123 3.77404438 22.29890026 3.0625 25.3125 C0.41107488 28.59189423 -1.8090633 31.07898446 -6.109375 31.55078125 C-10.5883956 31.67972275 -13.43218034 31.54773501 -17.5625 29.625 C-19.9375 27.3125 -19.9375 27.3125 -20.3125 24.5625 C-20.18875 23.82 -20.065 23.0775 -19.9375 22.3125 C-18.9475 22.6425 -17.9575 22.9725 -16.9375 23.3125 C-12.85155167 24.4990126 -9.17407606 24.46115179 -4.9375 24.3125 C-4.9375 22.6625 -4.9375 21.0125 -4.9375 19.3125 C-6.18466797 19.14814453 -6.18466797 19.14814453 -7.45703125 18.98046875 C-9.08705078 18.74263672 -9.08705078 18.74263672 -10.75 18.5 C-11.82894531 18.34917969 -12.90789062 18.19835937 -14.01953125 18.04296875 C-17.05359019 17.2834386 -18.20779372 16.88049396 -19.9375 14.3125 C-20.62655923 11.24618643 -20.51709365 8.39463821 -19.9375 5.3125 C-15.0885877 -1.19889652 -7.45065983 -4.28016628 0 0 Z " fill="#22855F" transform="translate(345.9375,166.6875)"/>
<path d="M0 0 C0 2.31 0 4.62 0 7 C3.63 7 7.26 7 11 7 C11 9.31 11 11.62 11 14 C7.37 14 3.74 14 0 14 C0.11402064 16.27141109 0.24158505 18.54214552 0.375 20.8125 C0.47941406 22.70935547 0.47941406 22.70935547 0.5859375 24.64453125 C0.76102939 28.12755234 0.76102939 28.12755234 3 31 C4.97747122 31.36297936 4.97747122 31.36297936 7.125 31.1875 C8.40375 31.125625 9.6825 31.06375 11 31 C11.125 33.375 11.125 33.375 11 36 C8.51981247 38.48018753 7.61484049 38.32361558 4.1875 38.375 C0.53787705 38.30643772 -0.83771762 38.09604468 -4.0625 36.1875 C-8.63956534 31.01984559 -7.22411728 23.50950512 -7.25 17 C-7.270625 15.70320312 -7.29125 14.40640625 -7.3125 13.0703125 C-7.31765625 11.83023438 -7.3228125 10.59015625 -7.328125 9.3125 C-7.3374707 8.17425781 -7.34681641 7.03601563 -7.35644531 5.86328125 C-7 3 -7 3 -5.72949219 1.10546875 C-4 0 -4 0 0 0 Z " fill="#1A825D" transform="translate(175,158)"/>
<path d="M0 0 C0.33 0 0.66 0 1 0 C1 13.53 1 27.06 1 41 C3.64 41 6.28 41 9 41 C9 41.33 9 41.66 9 42 C3.06 42.495 3.06 42.495 -3 43 C-3.33 40.36 -3.66 37.72 -4 35 C-5.093125 35.0825 -6.18625 35.165 -7.3125 35.25 C-11 35 -11 35 -12.71875 33.4375 C-14.47428838 30.09769528 -14.29164211 27.49911579 -14.1875 23.75 C-14.16042969 22.48671875 -14.13335937 21.2234375 -14.10546875 19.921875 C-14.07066406 18.95765625 -14.03585938 17.9934375 -14 17 C-10.37 17 -6.74 17 -3 17 C-3 14.69 -3 12.38 -3 10 C-2.01 10 -1.02 10 0 10 C0 6.7 0 3.4 0 0 Z " fill="#ECF7F2" transform="translate(189,155)"/>
<path d="M0 0 C2.4375 0.1875 2.4375 0.1875 3.4375 1.1875 C3.57865161 3.85808851 3.47997107 6.51182238 3.4375 9.1875 C2.4475 9.6825 2.4475 9.6825 1.4375 10.1875 C1.1075 11.1775 0.7775 12.1675 0.4375 13.1875 C1.4275 13.5175 2.4175 13.8475 3.4375 14.1875 C3.4375 24.0875 3.4375 33.9875 3.4375 44.1875 C-1.5625 44.1875 -1.5625 44.1875 -4.5625 42.1875 C-4.90307617 39.29833984 -4.90307617 39.29833984 -4.85546875 35.6484375 C-4.84580078 34.34648437 -4.83613281 33.04453125 -4.82617188 31.703125 C-4.80110388 30.32291077 -4.77570902 28.94270244 -4.75 27.5625 C-4.73495517 26.17449337 -4.72126641 24.78647133 -4.70898438 23.3984375 C-4.6735257 19.99440491 -4.62410298 16.59114378 -4.5625 13.1875 C-5.2225 12.8575 -5.8825 12.5275 -6.5625 12.1875 C-5.9025 11.8575 -5.2425 11.5275 -4.5625 11.1875 C-4.58570313 10.56101563 -4.60890625 9.93453125 -4.6328125 9.2890625 C-4.65085938 8.47179687 -4.66890625 7.65453125 -4.6875 6.8125 C-4.72230469 5.59433594 -4.72230469 5.59433594 -4.7578125 4.3515625 C-4.45325847 0.9771038 -3.29360637 0.24099559 0 0 Z " fill="#1E835F" transform="translate(159.5625,151.8125)"/>
<path d="M0 0 C22.97334452 -0.04756763 45.94668049 -0.08238985 68.92006493 -0.10362434 C79.5966295 -0.11376345 90.27316252 -0.12753053 100.94970703 -0.15087891 C143.57437026 -0.24217071 186.17771509 -0.23715471 228.7890625 0.9453125 C229.58609699 0.96707849 230.38313148 0.98884448 231.20431852 1.01127005 C235.70833222 1.13477407 240.21207504 1.26471514 244.71558142 1.40555525 C246.691329 1.46720934 248.66716073 1.52614852 250.64299393 1.58499527 C251.81305355 1.62455212 252.98311317 1.66410896 254.18862915 1.7048645 C255.19767115 1.73779665 256.20671314 1.7707288 257.24633217 1.80465889 C259.90813682 1.99348336 262.39944262 2.41392964 265 3 C265 3.33 265 3.66 265 4 C261.16275828 4.90413673 257.62497726 5.10576898 253.6875 5.0625 C252.08455078 5.04896484 252.08455078 5.04896484 250.44921875 5.03515625 C249.64097656 5.02355469 248.83273437 5.01195312 248 5 C248 4.34 248 3.68 248 3 C247.44300163 3.0024343 246.88600327 3.0048686 246.31212616 3.00737667 C229.54672177 3.06947169 212.78931063 2.86718078 196.026474 2.60473442 C167.92471046 2.16700815 139.82328524 1.86656094 111.71875 1.68359375 C110.47448431 1.6754744 110.47448431 1.6754744 109.20508194 1.66719103 C99.17540191 1.60210121 89.14569781 1.54140087 79.11597919 1.48259127 C70.44715245 1.43164309 61.77834734 1.37735321 53.10954189 1.32291877 C35.40638152 1.21182244 17.70320059 1.10448962 0 1 C0 0.67 0 0.34 0 0 Z " fill="#E2C5A6" transform="translate(108,203)"/>
<path d="M0 0 C1.32 0 2.64 0 4 0 C4.33 0.66 4.66 1.32 5 2 C6.32 2 7.64 2 9 2 C9 1.34 9 0.68 9 0 C10.62463842 -0.05395478 12.24978541 -0.09277195 13.875 -0.125 C15.23238281 -0.15980469 15.23238281 -0.15980469 16.6171875 -0.1953125 C19 0 19 0 21 2 C20.67 2.99 20.34 3.98 20 5 C19.01 5.33 18.02 5.66 17 6 C16.67 6.66 16.34 7.32 16 8 C15.030625 7.979375 14.06125 7.95875 13.0625 7.9375 C10.12534105 7.64381501 10.12534105 7.64381501 9 9 C8.84259395 10.70563778 8.74906608 12.41727244 8.68359375 14.12890625 C8.64169922 15.16337891 8.59980469 16.19785156 8.55664062 17.26367188 C8.51732422 18.35228516 8.47800781 19.44089844 8.4375 20.5625 C8.39431641 21.65498047 8.35113281 22.74746094 8.30664062 23.87304688 C8.20017932 26.58189564 8.09816484 29.29083992 8 32 C5.66705225 32.04241723 3.33297433 32.04092937 1 32 C0 31 0 31 -0.11352539 28.04077148 C-0.10828857 26.74727783 -0.10305176 25.45378418 -0.09765625 24.12109375 C-0.0962413 23.4344313 -0.09482635 22.74776886 -0.09336853 22.04029846 C-0.08775479 19.83932199 -0.07520007 17.63844591 -0.0625 15.4375 C-0.05748676 13.94856917 -0.05292355 12.45963676 -0.04882812 10.97070312 C-0.03778093 7.31376925 -0.02050713 3.65689442 0 0 Z " fill="#2D8C69" transform="translate(277,165)"/>
<path d="M0 0 C0.33 0 0.66 0 1 0 C1 9.57 1 19.14 1 29 C3.64 29.66 6.28 30.32 9 31 C9.33 31.99 9.66 32.98 10 34 C9.34 34.99 8.68 35.98 8 37 C5.11083984 37.43237305 5.11083984 37.43237305 1.4609375 37.51171875 C0.15898437 37.54716797 -1.14296875 37.58261719 -2.484375 37.61914062 C-3.86457809 37.64224231 -5.24478657 37.66502464 -6.625 37.6875 C-8.01305352 37.72066445 -9.40107607 37.7551533 -10.7890625 37.79101562 C-14.19262707 37.87374115 -17.5959259 37.94281257 -21 38 C-20.01 36.68 -19.02 35.36 -18 34 C-19.32 33.34 -20.64 32.68 -22 32 C-21.33613281 31.87882812 -20.67226562 31.75765625 -19.98828125 31.6328125 C-11.33746151 30.33312725 -11.33746151 30.33312725 -4.6875 25.1875 C-1.98927232 19.95624226 -2.01940187 13.69612147 -3 8 C-4.90340422 5.13902081 -4.90340422 5.13902081 -7 3 C-5.5459375 2.814375 -5.5459375 2.814375 -4.0625 2.625 C-3.051875 2.41875 -2.04125 2.2125 -1 2 C-0.67 1.34 -0.34 0.68 0 0 Z " fill="#F3FBF5" transform="translate(154,165)"/>
<path d="M0 0 C6.09206361 -0.42014232 9.11941433 -0.06715472 14 4 C16.29755922 7.44633882 16.23643976 8.71068391 16.1953125 12.76171875 C16.18886719 13.87998047 16.18242188 14.99824219 16.17578125 16.15039062 C16.15902344 17.31763672 16.14226562 18.48488281 16.125 19.6875 C16.11597656 20.86634766 16.10695313 22.04519531 16.09765625 23.25976562 C16.07406423 26.17338026 16.0411454 29.08658892 16 32 C13.03 32 10.06 32 7 32 C7 24.08 7 16.16 7 8 C4.36 7.67 1.72 7.34 -1 7 C-0.67 4.69 -0.34 2.38 0 0 Z " fill="#449779" transform="translate(101,165)"/>
<path d="M0 0 C0 2.64 0 5.28 0 8 C-0.71027344 7.67773438 -1.42054687 7.35546875 -2.15234375 7.0234375 C-6.72902084 5.37859608 -11.2004993 5.39265578 -16 6 C-19.20529737 8.18898357 -20.34680158 10.57551755 -22 14 C-22.66 14.33 -23.32 14.66 -24 15 C-24.309375 16.155 -24.61875 17.31 -24.9375 18.5 C-25.288125 19.655 -25.63875 20.81 -26 22 C-26.99 22.33 -27.98 22.66 -29 23 C-29.66 23.66 -30.32 24.32 -31 25 C-31 20.71 -31 16.42 -31 12 C-30.34 12 -29.68 12 -29 12 C-29 10.68 -29 9.36 -29 8 C-28.39109479 5.03158709 -27.604313 3.46596056 -25.19140625 1.60546875 C-16.32617109 -4.03900208 -9.4884879 -4.06649481 0 0 Z " fill="#278965" transform="translate(84,158)"/>
<path d="M0 0 C1.76462683 3.08809695 2 4.23312136 2 8 C1.04287109 8.07347656 1.04287109 8.07347656 0.06640625 8.1484375 C-0.75988281 8.22320312 -1.58617187 8.29796875 -2.4375 8.375 C-3.26121094 8.44460937 -4.08492187 8.51421875 -4.93359375 8.5859375 C-5.95646484 8.79089844 -5.95646484 8.79089844 -7 9 C-8.20270964 11.40541929 -8.20316663 13.10366591 -8.31640625 15.7890625 C-8.35830078 16.73007813 -8.40019531 17.67109375 -8.44335938 18.640625 C-8.50233398 20.11789063 -8.50233398 20.11789063 -8.5625 21.625 C-8.60568359 22.61757812 -8.64886719 23.61015625 -8.69335938 24.6328125 C-8.79961069 27.08839838 -8.90164964 29.54408703 -9 32 C-11.375 32.125 -11.375 32.125 -14 32 C-16 30 -16 30 -16.22705078 27.11083984 C-16.21657715 25.90637207 -16.20610352 24.7019043 -16.1953125 23.4609375 C-16.18564453 21.50800781 -16.18564453 21.50800781 -16.17578125 19.515625 C-16.15906929 18.13541405 -16.14213939 16.75520571 -16.125 15.375 C-16.11497006 13.98698548 -16.10584423 12.59896411 -16.09765625 11.2109375 C-16.07401863 7.80711974 -16.04106867 4.40364494 -16 1 C-15.071875 1.20625 -14.14375 1.4125 -13.1875 1.625 C-8.65810495 2.15787001 -5.051914 -0.19063826 0 0 Z " fill="#18845D" transform="translate(238,164)"/>
<path d="M0 0 C2.0745356 0.1490712 2.0745356 0.1490712 4 -1 C5.9453125 -0.44140625 5.9453125 -0.44140625 8.125 0.4375 C8.84945313 0.72496094 9.57390625 1.01242188 10.3203125 1.30859375 C10.87460937 1.53675781 11.42890625 1.76492187 12 2 C12 2.66 12 3.32 12 4 C9.69 3.67 7.38 3.34 5 3 C6.99760627 5.06894935 8.88270926 6.9185481 11.25 8.5625 C11.8275 9.036875 12.405 9.51125 13 10 C13 10.99 13 11.98 13 13 C9.88319828 15.07786782 9.19283758 15.24955914 5.65625 15.23046875 C4.40521484 15.22756836 4.40521484 15.22756836 3.12890625 15.22460938 C1.82759766 15.20624023 1.82759766 15.20624023 0.5 15.1875 C-0.80130859 15.1865332 -0.80130859 15.1865332 -2.12890625 15.18554688 C-8.57792152 15.14069283 -8.57792152 15.14069283 -12 14 C-12 13.34 -12 12.68 -12 12 C-9.03 12.33 -6.06 12.66 -3 13 C-3 12.01 -3 11.02 -3 10 C-5.65228812 8.92474806 -8.28368454 7.90543849 -11 7 C-11 5.35 -11 3.7 -11 2 C-3.70248597 -1.50842021 -3.70248597 -1.50842021 0 0 Z " fill="#EBF8EA" transform="translate(284,225)"/>
<path d="M0 0 C-0.50603992 2.16874252 -0.99983813 3.99967627 -2 6 C-5.5 7.5 -5.5 7.5 -9 9 C-10.97902533 12.95805066 -10.38205977 17.67748541 -9.1875 21.8125 C-8.01621556 23.97012923 -6.85039772 25.40192924 -5 27 C-6.8125 28.0625 -6.8125 28.0625 -9 29 C-9.99 28.67 -10.98 28.34 -12 28 C-12.9590625 27.690625 -12.9590625 27.690625 -13.9375 27.375 C-17.63932544 24.90711637 -19.51507324 21.26892337 -20.42578125 17.0078125 C-20.7505126 12.23890068 -19.46788332 9.17407892 -16.5 5.47265625 C-11.85841975 0.91568814 -6.24062196 -0.13868049 0 0 Z " fill="#248963" transform="translate(139,165)"/>
<path d="M0 0 C2.375 0.56640625 2.375 0.56640625 4.16015625 2.328125 C6.178005 6.04589778 6.00755792 9.45122608 5.375 13.56640625 C3.75 17.12890625 3.75 17.12890625 1.375 19.56640625 C-1.5625 20.25390625 -1.5625 20.25390625 -4.625 19.56640625 C-7.19785724 17.39377125 -9.11496919 15.58646787 -10.625 12.56640625 C-10.89736956 8.95750963 -10.78520659 6.10424267 -9.75 2.62890625 C-6.69621832 -0.33505832 -4.12205128 0.006134 0 0 Z " fill="#F0F9F6" transform="translate(258.625,171.43359375)"/>
<path d="M0 0 C2.15674901 1.55016335 2.8821603 2.44265005 3.43359375 5.05078125 C3.44050843 9.05438198 3.08141935 11.79822162 1.5625 15.5625 C-1.33269163 18.31646277 -1.93967762 18.35699848 -5.75 18.375 C-7.16891872 18.2788797 -8.58720294 18.16301505 -10 18 C-13.00539066 12.99101557 -13.64366259 9.70101153 -13 4 C-10.16519014 -0.93010411 -5.19741822 -1.06245566 0 0 Z " fill="#EFF9F5" transform="translate(141,172)"/>
<path d="M0 0 C1.58093717 -0.1357675 3.16526952 -0.23234745 4.75 -0.3125 C5.63171875 -0.37050781 6.5134375 -0.42851562 7.421875 -0.48828125 C10 0 10 0 12.13671875 2.14453125 C14.32526059 5.49846015 14.46873818 7.21153741 14.390625 11.17578125 C14.37773437 12.33271484 14.36484375 13.48964844 14.3515625 14.68164062 C14.31804687 15.87982422 14.28453125 17.07800781 14.25 18.3125 C14.23195312 19.53001953 14.21390625 20.74753906 14.1953125 22.00195312 C14.14825131 25.00210422 14.0825131 28.00064889 14 31 C11.69 31 9.38 31 7 31 C7 23.74 7 16.48 7 9 C6.01 8.67 5.02 8.34 4 8 C3.896875 7.236875 3.79375 6.47375 3.6875 5.6875 C2.94209384 2.77363954 2.15541061 1.97049603 0 0 Z " fill="#208460" transform="translate(203,165)"/>
<path d="M0 0 C7.25806452 2.09677419 7.25806452 2.09677419 9 5 C9.39916548 8.09353244 9.63472337 10.03988099 9 13 C6.34857488 16.27939423 4.1284367 18.76648446 -0.171875 19.23828125 C-4.6508956 19.36722275 -7.49468034 19.23523501 -11.625 17.3125 C-14 15 -14 15 -14.375 12.25 C-14.25125 11.5075 -14.1275 10.765 -14 10 C-13.01 10.33 -12.02 10.66 -11 11 C-6.91405167 12.1865126 -3.23657606 12.14865179 1 12 C1 10.35 1 8.7 1 7 C-4.94 6.01 -4.94 6.01 -11 5 C-11 4.67 -11 4.34 -11 4 C-7.33333333 4 -3.66666667 4 0 4 C-0.33 3.01 -0.66 2.02 -1 1 C-0.67 0.67 -0.34 0.34 0 0 Z " fill="#2D8C69" transform="translate(340,179)"/>
<path d="M0 0 C0.13572155 2.39774745 0.23436868 4.78775245 0.3125 7.1875 C0.3753418 8.19780273 0.3753418 8.19780273 0.43945312 9.22851562 C0.53534591 13.16011995 0.12318017 14.83877272 -2.2890625 17.99609375 C-5 20 -5 20 -8.6875 19.875 C-12 19 -12 19 -14 18 C-14 17.34 -14 16.68 -14 16 C-13.37351563 16.03480469 -12.74703125 16.06960937 -12.1015625 16.10546875 C-10.87566406 16.14607422 -10.87566406 16.14607422 -9.625 16.1875 C-8.40683594 16.23970703 -8.40683594 16.23970703 -7.1640625 16.29296875 C-6.44992188 16.19628906 -5.73578125 16.09960938 -5 16 C-4.34 15.01 -3.68 14.02 -3 13 C-3.69867188 13.03480469 -4.39734375 13.06960937 -5.1171875 13.10546875 C-6.48230469 13.14607422 -6.48230469 13.14607422 -7.875 13.1875 C-9.23238281 13.23970703 -9.23238281 13.23970703 -10.6171875 13.29296875 C-11.79667969 13.14794922 -11.79667969 13.14794922 -13 13 C-15.47666082 9.28500878 -15.54886514 7.39092112 -15 3 C-10.96518225 -1.16931167 -5.39221359 -0.28269858 0 0 Z " fill="#709D6D" transform="translate(191,226)"/>
<path d="M0 0 C2.64 0 5.28 0 8 0 C7.67 0.99 7.34 1.98 7 3 C6.88367271 4.51766539 6.82503761 6.0404346 6.8125 7.5625 C6.79123047 8.74005859 6.79123047 8.74005859 6.76953125 9.94140625 C6.80832491 12.2243545 6.80832491 12.2243545 9 14 C11.36035057 14.64355341 11.36035057 14.64355341 14 15.0625 C18.8206278 15.9103139 18.8206278 15.9103139 21 17 C21 18.65 21 20.3 21 22 C14.77166905 23.2019586 11.62870885 22.93161919 6 20 C6.33 21.98 6.66 23.96 7 26 C6.01 26 5.02 26 4 26 C4 27.32 4 28.64 4 30 C0.52176885 31.15941038 -1.45895578 30.70820884 -5 30 C-5 29.34 -5 28.68 -5 28 C-2.36 28 0.28 28 3 28 C2.89004549 24.0827588 2.75943266 20.16647155 2.625 16.25 C2.5940625 15.13882813 2.563125 14.02765625 2.53125 12.8828125 C2.49257813 11.81289062 2.45390625 10.74296875 2.4140625 9.640625 C2.3826416 8.65610352 2.3512207 7.67158203 2.31884766 6.65722656 C1.99897742 3.99147799 1.35631379 2.29383595 0 0 Z " fill="#EBF7F4" transform="translate(320,169)"/>
<path d="M0 0 C0.99 0 1.98 0 3 0 C3 6.6 3 13.2 3 20 C-5.30078125 20.390625 -5.30078125 20.390625 -8 20 C-10.65987536 17.3968384 -10.97736441 16.21503807 -11.375 12.4375 C-11 9 -11 9 -9.875 7.0625 C-7.1769493 5.53360461 -5.04470288 5.74087635 -2 6 C-1.34 6.33 -0.68 6.66 0 7 C0 4.69 0 2.38 0 0 Z " fill="#85B085" transform="translate(236,220)"/>
<path d="M0 0 C1.75926906 3.01882357 2.17185779 4.97020653 1.9375 8.4375 C1.87719542 12.51810977 2.08880238 14.90685253 5 18 C7.06203608 18.91093963 9.08832147 19.61465477 11.2578125 20.2265625 C12.12019531 20.60941406 12.12019531 20.60941406 13 21 C13.33 21.99 13.66 22.98 14 24 C12.37536158 24.05395478 10.75021459 24.09277195 9.125 24.125 C7.76761719 24.15980469 7.76761719 24.15980469 6.3828125 24.1953125 C4 24 4 24 2 22 C1.21625 21.9175 0.4325 21.835 -0.375 21.75 C-3 21 -3 21 -5.3125 18.375 C-7.23535901 14.52928199 -7.48051868 12.24458169 -7 8 C-6.34 7.01 -5.68 6.02 -5 5 C-4.67 4.34 -4.34 3.68 -4 3 C-2.69084721 1.96854629 -1.35917857 0.96457834 0 0 Z " fill="#1F8460" transform="translate(247,171)"/>
<path d="M0 0 C2 2 2 2 2.375 5.375 C2 9 2 9 0.5 11.5 C-3.30528815 13.78317289 -5.70422019 12.90072803 -10 12 C-10.66 11.67 -11.32 11.34 -12 11 C-12.28782761 7.94902735 -12.42004236 5.04261451 -12 2 C-8.31277498 -1.79895911 -4.90109721 -1.20215592 0 0 Z " fill="#78A576" transform="translate(221,227)"/>
<path d="M0 0 C0.598125 0.226875 1.19625 0.45375 1.8125 0.6875 C0.8225 0.6875 -0.1675 0.6875 -1.1875 0.6875 C-1.1875 1.6775 -1.1875 2.6675 -1.1875 3.6875 C-1.8475 3.6875 -2.5075 3.6875 -3.1875 3.6875 C-3.1875 11.2775 -3.1875 18.8675 -3.1875 26.6875 C-1.2075 27.0175 0.7725 27.3475 2.8125 27.6875 C3.4725 28.6775 4.1325 29.6675 4.8125 30.6875 C6.78997122 31.05047936 6.78997122 31.05047936 8.9375 30.875 C10.21625 30.813125 11.495 30.75125 12.8125 30.6875 C12.9375 33.0625 12.9375 33.0625 12.8125 35.6875 C10.33231247 38.16768753 9.42734049 38.01111558 6 38.0625 C2.35037705 37.99393772 0.97478238 37.78354468 -2.25 35.875 C-6.82706534 30.70734559 -5.41161728 23.19700512 -5.4375 16.6875 C-5.458125 15.39070312 -5.47875 14.09390625 -5.5 12.7578125 C-5.50515625 11.51773438 -5.5103125 10.27765625 -5.515625 9 C-5.5249707 7.86175781 -5.53431641 6.72351563 -5.54394531 5.55078125 C-5.1875 2.6875 -5.1875 2.6875 -3.80371094 0.7734375 C-2.1875 -0.3125 -2.1875 -0.3125 0 0 Z " fill="#218762" transform="translate(173.1875,158.3125)"/>
<path d="M0 0 C0.99 0 1.98 0 3 0 C3.33 2.64 3.66 5.28 4 8 C4.33 5.36 4.66 2.72 5 0 C6.32 0 7.64 0 9 0 C9 6.6 9 13.2 9 20 C6.36 20 3.72 20 1 20 C0 19 0 19 -0.11352539 17.14233398 C-0.10828857 16.35157471 -0.10305176 15.56081543 -0.09765625 14.74609375 C-0.09443359 13.89208984 -0.09121094 13.03808594 -0.08789062 12.15820312 C-0.07951172 11.26037109 -0.07113281 10.36253906 -0.0625 9.4375 C-0.05798828 8.53580078 -0.05347656 7.63410156 -0.04882812 6.70507812 C-0.03700225 4.46998686 -0.0205222 2.23502563 0 0 Z " fill="#B7D0B8" transform="translate(128,220)"/>
<path d="M0 0 C3.90034706 0.58505206 6.11604329 2.05492503 9.34375 4.3515625 C10.7978125 5.310625 10.7978125 5.310625 12.28125 6.2890625 C15.6123506 11.23524217 14.72513858 16.56293134 14.34375 22.3515625 C14.01375 22.3515625 13.68375 22.3515625 13.34375 22.3515625 C13.01375 18.3915625 12.68375 14.4315625 12.34375 10.3515625 C11.68375 11.0115625 11.02375 11.6715625 10.34375 12.3515625 C10.34375 13.3415625 10.34375 14.3315625 10.34375 15.3515625 C11.00375 14.0315625 11.66375 12.7115625 12.34375 11.3515625 C12.53125 14.7265625 12.53125 14.7265625 12.34375 18.3515625 C11.35375 19.0115625 10.36375 19.6715625 9.34375 20.3515625 C9.01375 20.0215625 8.68375 19.6915625 8.34375 19.3515625 C8.34375 20.0115625 8.34375 20.6715625 8.34375 21.3515625 C7.35375 21.6815625 6.36375 22.0115625 5.34375 22.3515625 C5.36695313 21.58070313 5.39015625 20.80984375 5.4140625 20.015625 C5.43210938 19.01273438 5.45015625 18.00984375 5.46875 16.9765625 C5.49195313 15.97882813 5.51515625 14.98109375 5.5390625 13.953125 C5.61591848 11.18894077 5.61591848 11.18894077 3.34375 9.3515625 C0.68837628 8.78636247 -1.94769713 8.61368052 -4.65625 8.3515625 C-4.0375 8.3103125 -3.41875 8.2690625 -2.78125 8.2265625 C-2.08 7.9378125 -1.37875 7.6490625 -0.65625 7.3515625 C0.6483156 4.35540304 0.6483156 4.35540304 1.34375 1.3515625 C0.828125 1.6815625 0.3125 2.0115625 -0.21875 2.3515625 C-3.43651512 3.67167127 -6.2133028 3.48398355 -9.65625 3.3515625 C-6.67820265 -0.20136107 -4.44574351 -0.15877655 0 0 Z " fill="#369070" transform="translate(137.65625,163.6484375)"/>
<path d="M0 0 C0.05399736 1.45792884 0.09279177 2.91642712 0.125 4.375 C0.14820313 5.18710938 0.17140625 5.99921875 0.1953125 6.8359375 C0 9 0 9 -2 11 C-5.04029995 11.49614003 -7.95405237 11.43990834 -11 11 C-13.125 9.4375 -13.125 9.4375 -14 7 C-13.9375 3.375 -13.9375 3.375 -13 0 C-9.42199028 -3.3027782 -4.06144582 -2.03072291 0 0 Z " fill="#7BA47A" transform="translate(160,228)"/>
<path d="M0 0 C2.80474994 2.33729162 2.99053432 3.93255703 3.5 7.5625 C3 11 3 11 0.8125 12.9375 C-2.12328683 14.04657502 -3.9047996 14.48871585 -7 14 C-8.8125 13 -8.8125 13 -10 11 C-10.47086674 8.24370686 -10.51036399 5.75252486 -10 3 C-7.2188493 -0.42295471 -4.23831422 -0.63123829 0 0 Z " fill="#EEF8EE" transform="translate(204,226)"/>
<path d="M0 0 C2 2 2 2 2.22705078 4.33837891 C2.21657715 5.29147949 2.20610352 6.24458008 2.1953125 7.2265625 C2.18886719 8.2578125 2.18242188 9.2890625 2.17578125 10.3515625 C2.15902344 11.43179688 2.14226562 12.51203125 2.125 13.625 C2.11597656 14.71296875 2.10695313 15.8009375 2.09765625 16.921875 C2.07403409 19.61480152 2.04109556 22.30729255 2 25 C0.02 25 -1.96 25 -4 25 C-4 17.41 -4 9.82 -4 2 C-2.68 1.34 -1.36 0.68 0 0 Z " fill="#16805A" transform="translate(114,171)"/>
<path d="M0 0 C9.35650207 -0.02358162 18.71299332 -0.04114088 28.06951904 -0.05181217 C32.41810179 -0.05694398 36.76666365 -0.06385523 41.11523438 -0.07543945 C58.81218154 -0.12125062 76.49728661 -0.0963828 94.1875 0.44140625 C94.86389526 0.46093794 95.54029053 0.48046963 96.23718262 0.50059319 C107.91752917 0.84831521 107.91752917 0.84831521 113 2 C113 2.33 113 2.66 113 3 C109.16275828 3.90413673 105.62497726 4.10576898 101.6875 4.0625 C100.08455078 4.04896484 100.08455078 4.04896484 98.44921875 4.03515625 C97.64097656 4.02355469 96.83273437 4.01195312 96 4 C96 3.34 96 2.68 96 2 C94.05383789 2.00870117 94.05383789 2.00870117 92.06835938 2.01757812 C73.70090121 2.07170047 55.34039742 1.80841785 36.97558594 1.53643799 C32.79103384 1.47484584 28.60645323 1.41525447 24.421875 1.35546875 C16.28122168 1.23888008 8.14060133 1.12016361 0 1 C0 0.67 0 0.34 0 0 Z " fill="#D5AA7A" transform="translate(260,204)"/>
<path d="M0 0 C1.9375 1.1875 1.9375 1.1875 3 3 C3 4.65 3 6.3 3 8 C-0.63 8 -4.26 8 -8 8 C-7.67 8.99 -7.34 9.98 -7 11 C-3.7 11 -0.4 11 3 11 C2.67 11.66 2.34 12.32 2 13 C-0.98206952 13.8589328 -3.90338888 14.12451408 -7 14 C-9.5625 12.4375 -9.5625 12.4375 -11 10 C-11.60605429 6.36367425 -11.47161336 4.71685231 -9.4375 1.625 C-6.1005787 -0.5996142 -3.93094707 -0.50030235 0 0 Z " fill="#7BA479" transform="translate(268,226)"/>
<path d="M0 0 C2.4375 0.1875 2.4375 0.1875 3.4375 1.1875 C3.57865161 3.85808851 3.47997107 6.51182238 3.4375 9.1875 C2.4475 9.6825 2.4475 9.6825 1.4375 10.1875 C1.1075 11.1775 0.7775 12.1675 0.4375 13.1875 C-0.8825 13.1875 -2.2025 13.1875 -3.5625 13.1875 C-3.5625 22.7575 -3.5625 32.3275 -3.5625 42.1875 C-3.8925 42.1875 -4.2225 42.1875 -4.5625 42.1875 C-4.5625 32.6175 -4.5625 23.0475 -4.5625 13.1875 C-5.2225 12.8575 -5.8825 12.5275 -6.5625 12.1875 C-5.9025 11.8575 -5.2425 11.5275 -4.5625 11.1875 C-4.58570313 10.56101563 -4.60890625 9.93453125 -4.6328125 9.2890625 C-4.65085938 8.47179687 -4.66890625 7.65453125 -4.6875 6.8125 C-4.72230469 5.59433594 -4.72230469 5.59433594 -4.7578125 4.3515625 C-4.45325847 0.9771038 -3.29360637 0.24099559 0 0 Z " fill="#B5DACA" transform="translate(159.5625,151.8125)"/>
<path d="M0 0 C14.85 0 29.7 0 45 0 C45 0.33 45 0.66 45 1 C41.7 1.33 38.4 1.66 35 2 C40.445 2.495 40.445 2.495 46 3 C46 3.33 46 3.66 46 4 C36.4442402 4.10386695 26.92131899 4.03550772 17.375 3.5625 C16.5593457 3.52326416 15.74369141 3.48402832 14.90332031 3.44360352 C9.89562438 3.17595789 4.96912739 2.67657455 0 2 C0 1.34 0 0.68 0 0 Z " fill="#CA9E69" transform="translate(30,205)"/>
<path d="M0 0 C0.99 0 1.98 0 3 0 C3.33 0.99 3.66 1.98 4 3 C4.99 3.66 5.98 4.32 7 5 C7 5.66 7 6.32 7 7 C6.34 7 5.68 7 5 7 C5.33 8.98 5.66 10.96 6 13 C6.66 13 7.32 13 8 13 C8 9.04 8 5.08 8 1 C8.33 1 8.66 1 9 1 C9 10.57 9 20.14 9 30 C8.67 30 8.34 30 8 30 C7.67 28.02 7.34 26.04 7 24 C5.03177114 25.96822886 5.33751619 29.34808709 5 32 C4.67 32 4.34 32 4 32 C3.67 22.76 3.34 13.52 3 4 C2.01 3.67 1.02 3.34 0 3 C0 2.01 0 1.02 0 0 Z " fill="#DBF2E9" transform="translate(213,164)"/>
<path d="M0 0 C0.7940625 -0.01417969 1.588125 -0.02835938 2.40625 -0.04296875 C4.5 0.1875 4.5 0.1875 6.5 2.1875 C5.51 2.5175 4.52 2.8475 3.5 3.1875 C3.5 2.5275 3.5 1.8675 3.5 1.1875 C1.52 1.1875 -0.46 1.1875 -2.5 1.1875 C-3.16 2.5075 -3.82 3.8275 -4.5 5.1875 C-5.16 5.1875 -5.82 5.1875 -6.5 5.1875 C-6.5 5.8475 -6.5 6.5075 -6.5 7.1875 C-5.51 6.8575 -4.52 6.5275 -3.5 6.1875 C-3.17 5.5275 -2.84 4.8675 -2.5 4.1875 C0.26276177 4.71018466 2.8260876 5.29619587 5.5 6.1875 C6.1875 8.25 6.1875 8.25 6.5 10.1875 C5.84 9.8575 5.18 9.5275 4.5 9.1875 C2.85744209 9.06635079 1.20947522 9.01209233 -0.4375 9 C-1.75041016 8.97873047 -1.75041016 8.97873047 -3.08984375 8.95703125 C-5.76244335 9.02086651 -5.76244335 9.02086651 -8.5 11.1875 C-8.83 10.1975 -9.16 9.2075 -9.5 8.1875 C-10.098125 8.785625 -10.69625 9.38375 -11.3125 10 C-13.04166667 11.72916667 -14.77083333 13.45833333 -16.5 15.1875 C-16.58961104 11.60305842 -15.94756471 9.66740825 -13.5 7.04296875 C-5.63282412 0.04572098 -5.63282412 0.04572098 0 0 Z " fill="#358F6F" transform="translate(256.5,163.8125)"/>
<path d="M0 0 C2.64 0 5.28 0 8 0 C7.67 0.99 7.34 1.98 7 3 C6.90796257 4.51861755 6.86998716 6.04110426 6.875 7.5625 C6.87242187 8.34753906 6.86984375 9.13257813 6.8671875 9.94140625 C6.87023634 12.06438977 6.87023634 12.06438977 8 14 C6.68 13.67 5.36 13.34 4 13 C4 14.98 4 16.96 4 19 C5.32 19.33 6.64 19.66 8 20 C7.34 20 6.68 20 6 20 C6.33 21.98 6.66 23.96 7 26 C6.01 26 5.02 26 4 26 C4 27.32 4 28.64 4 30 C0.52176885 31.15941038 -1.45895578 30.70820884 -5 30 C-5 29.34 -5 28.68 -5 28 C-2.36 28 0.28 28 3 28 C2.89004549 24.0827588 2.75943266 20.16647155 2.625 16.25 C2.5940625 15.13882813 2.563125 14.02765625 2.53125 12.8828125 C2.49257813 11.81289062 2.45390625 10.74296875 2.4140625 9.640625 C2.3826416 8.65610352 2.3512207 7.67158203 2.31884766 6.65722656 C1.99897742 3.99147799 1.35631379 2.29383595 0 0 Z " fill="#D9F4EA" transform="translate(320,169)"/>
<path d="M0 0 C0.99 0 1.98 0 3 0 C3 1.32 3 2.64 3 4 C3.86625 4.185625 3.86625 4.185625 4.75 4.375 C7.02335767 5.00648824 8.9253529 5.88858191 11 7 C11 7.99 11 8.98 11 10 C8.03 9.67 5.06 9.34 2 9 C1.67 9.99 1.34 10.98 1 12 C-0.32 11.67 -1.64 11.34 -3 11 C-2.67 10.67 -2.34 10.34 -2 10 C-4.31 10 -6.62 10 -9 10 C-9.33 8.68 -9.66 7.36 -10 6 C-6.37 6 -2.74 6 1 6 C0.67 4.02 0.34 2.04 0 0 Z " fill="#E4F4E3" transform="translate(270,228)"/>
<path d="M0 0 C0.66 0.33 1.32 0.66 2 1 C2.99 0.67 3.98 0.34 5 0 C5.66 0.33 6.32 0.66 7 1 C6.01 2.32 5.02 3.64 4 5 C4.66 5 5.32 5 6 5 C6 5.66 6 6.32 6 7 C5.34 7 4.68 7 4 7 C4.33 7.99 4.66 8.98 5 10 C4.546875 12.0078125 4.546875 12.0078125 3.75 14.125 C3.49734375 14.82882813 3.2446875 15.53265625 2.984375 16.2578125 C2 18 2 18 -1 19 C-1.66 19.66 -2.32 20.32 -3 21 C-3 16.71 -3 12.42 -3 8 C-2.34 8 -1.68 8 -1 8 C-1 6.68 -1 5.36 -1 4 C-0.7018576 2.65835921 -0.37756808 1.32148827 0 0 Z " fill="#14845B" transform="translate(56,162)"/>
<path d="M0 0 C1.64666203 0.1135629 3.29236082 0.24117381 4.9375 0.375 C5.85402344 0.44460937 6.77054687 0.51421875 7.71484375 0.5859375 C8.84599609 0.79089844 8.84599609 0.79089844 10 1 C10.33 1.66 10.66 2.32 11 3 C11.33 2.01 11.66 1.02 12 0 C14.64 0 17.28 0 20 0 C19.67 0.66 19.34 1.32 19 2 C16.03 1.505 16.03 1.505 13 1 C13 14.53 13 28.06 13 42 C12.67 42 12.34 42 12 42 C12 31.11 12 20.22 12 9 C11.34 9 10.68 9 10 9 C9.67 10.65 9.34 12.3 9 14 C6.21362367 9.8204355 7.20437488 7.85331323 8 3 C5.36 2.34 2.72 1.68 0 1 C0 0.67 0 0.34 0 0 Z " fill="#B2DFCE" transform="translate(76,155)"/>
<path d="M0 0 C-0.50603992 2.16874252 -0.99983813 3.99967627 -2 6 C-4.32375692 6.39460023 -6.6593935 6.72230092 -9 7 C-10.33917261 7.30903983 -11.67653254 7.62942911 -13 8 C-13 8.66 -13 9.32 -13 10 C-14.65 10.33 -16.3 10.66 -18 11 C-18.33 13.64 -18.66 16.28 -19 19 C-19.33 19 -19.66 19 -20 19 C-20.50388709 13.25568715 -20.14663966 10.02059606 -16.5 5.47265625 C-11.85841975 0.91568814 -6.24062196 -0.13868049 0 0 Z " fill="#17805B" transform="translate(139,165)"/>
<path d="M0 0 C0.66 0 1.32 0 2 0 C2 2.31 2 4.62 2 7 C1.34 7 0.68 7 0 7 C0 6.34 0 5.68 0 5 C-0.99 5.33 -1.98 5.66 -3 6 C-3.66 5.67 -4.32 5.34 -5 5 C-4.67 6.32 -4.34 7.64 -4 9 C-3.34 9 -2.68 9 -2 9 C-2.33 9.66 -2.66 10.32 -3 11 C-6.63 10.01 -10.26 9.02 -14 8 C-14.33 6.68 -14.66 5.36 -15 4 C-11.97455666 1.98303778 -11.38932618 1.74188904 -8 1.8125 C-7.319375 1.81894531 -6.63875 1.82539063 -5.9375 1.83203125 C-4 2 -4 2 -1 3 C-0.67 2.01 -0.34 1.02 0 0 Z " fill="#E0F0E8" transform="translate(348,170)"/>
<path d="M0 0 C8.27934186 -0.36526508 8.27934186 -0.36526508 11.28125 1.15625 C13 3 13 3 13.390625 5.69921875 C13.32101563 7.17841797 13.32101563 7.17841797 13.25 8.6875 C13.21390625 9.68136719 13.1778125 10.67523438 13.140625 11.69921875 C13.07101563 12.83810547 13.07101563 12.83810547 13 14 C12.01 14 11.02 14 10 14 C9.67 10.04 9.34 6.08 9 2 C7.35 2 5.7 2 4 2 C3.67 5.96 3.34 9.92 3 14 C2.01 14 1.02 14 0 14 C0 9.38 0 4.76 0 0 Z " fill="#78A176" transform="translate(242,226)"/>
<path d="M0 0 C0.33 1.32 0.66 2.64 1 4 C0.01 3.67 -0.98 3.34 -2 3 C-2 2.34 -2 1.68 -2 1 C-3.32 1 -4.64 1 -6 1 C-5.67 11.56 -5.34 22.12 -5 33 C-5.66 33 -6.32 33 -7 33 C-7.33 23.76 -7.66 14.52 -8 5 C-8.33 5 -8.66 5 -9 5 C-9.33 14.24 -9.66 23.48 -10 33 C-10.66 32.67 -11.32 32.34 -12 32 C-11.67 22.1 -11.34 12.2 -11 2 C-11.66 1.67 -12.32 1.34 -13 1 C-8.59085217 -0.10228696 -4.51617599 -0.07654536 0 0 Z " fill="#CAE9DD" transform="translate(283,164)"/>
<path d="M0 0 C0.99 0 1.98 0 3 0 C3 9.24 3 18.48 3 28 C2.01 28.33 1.02 28.66 0 29 C0 19.43 0 9.86 0 0 Z " fill="#F6FEFB" transform="translate(273,168)"/>
<path d="M0 0 C1.76462683 3.08809695 2 4.23312136 2 8 C-0.31 8 -2.62 8 -5 8 C-5 7.67 -5 7.34 -5 7 C-3.02 7 -1.04 7 1 7 C0.67 5.35 0.34 3.7 0 2 C-1.19625 2.12375 -2.3925 2.2475 -3.625 2.375 C-4.63433594 2.47941406 -4.63433594 2.47941406 -5.6640625 2.5859375 C-8.66281122 3.05894397 -8.66281122 3.05894397 -14 5 C-14.33 12.59 -14.66 20.18 -15 28 C-14.01 28.33 -13.02 28.66 -12 29 C-12 29.99 -12 30.98 -12 32 C-13.32 31.34 -14.64 30.68 -16 30 C-16 20.43 -16 10.86 -16 1 C-13.03 1.495 -13.03 1.495 -10 2 C-6.3558226 -0.4294516 -4.28758728 -0.16179575 0 0 Z " fill="#4B987D" transform="translate(238,164)"/>
<path d="M0 0 C0 0.99 0 1.98 0 3 C-2.97 2.505 -2.97 2.505 -6 2 C-6 2.99 -6 3.98 -6 5 C-5.05125 5.12375 -4.1025 5.2475 -3.125 5.375 C0 6 0 6 2 8 C1.44444444 12.55555556 1.44444444 12.55555556 0 14 C-3.66344611 14.13568319 -6.50615721 14.16461426 -10 13 C-10 12.34 -10 11.68 -10 11 C-7.03 11.33 -4.06 11.66 -1 12 C-1 11.01 -1 10.02 -1 9 C-3.65228812 7.92474806 -6.28368454 6.90543849 -9 6 C-9 4.35 -9 2.7 -9 1 C-6.04335481 -0.4783226 -3.25770263 -0.06032783 0 0 Z " fill="#749F72" transform="translate(282,226)"/>
<path d="M0 0 C2.4375 1.5 2.4375 1.5 4 3 C3.67 4.32 3.34 5.64 3 7 C-2.28 6.34 -7.56 5.68 -13 5 C-12 2 -12 2 -9.875 0.8125 C-6.39018137 -0.17234005 -3.60728878 -0.32793534 0 0 Z " fill="#16835B" transform="translate(343,165)"/>
<path d="M0 0 C2.5 0.25 2.5 0.25 4.5 2.25 C4.75 5.25 4.75 5.25 4.5 8.25 C3.84 8.91 3.18 9.57 2.5 10.25 C-3.06818182 9.68181818 -3.06818182 9.68181818 -4.5 8.25 C-4.6875 5.3125 -4.6875 5.3125 -4.5 2.25 C-2.5 0.25 -2.5 0.25 0 0 Z " fill="#E5F5E4" transform="translate(231.5,227.75)"/>
<path d="M0 0 C2.80474994 2.33729162 2.99053432 3.93255703 3.5 7.5625 C3 11 3 11 0.8125 12.9375 C-2.12328683 14.04657502 -3.9047996 14.48871585 -7 14 C-8.8125 13 -8.8125 13 -10 11 C-10.47086674 8.24370686 -10.51036399 5.75252486 -10 3 C-7.2188493 -0.42295471 -4.23831422 -0.63123829 0 0 Z M-8 3 C-8.16677282 6.41656024 -8.16677282 6.41656024 -8 10 C-7.34 10.66 -6.68 11.32 -6 12 C-2.17435335 11.81242938 -2.17435335 11.81242938 1 10 C1.25005386 7.04182893 1.25005386 7.04182893 1 4 C-0.82537104 1.73980102 -0.82537104 1.73980102 -3.5 1.8125 C-5.99790956 1.84101023 -5.99790956 1.84101023 -8 3 Z " fill="#83A583" transform="translate(204,226)"/>
<path d="M0 0 C0.66 0 1.32 0 2 0 C2.33 3.3 2.66 6.6 3 10 C4.65614657 10.38218767 6.32457024 10.71395102 8 11 C9.58272601 9.41727399 9.34735747 7.61965997 9.5625 5.4375 C9.64628906 4.61121094 9.73007813 3.78492188 9.81640625 2.93359375 C9.87699219 2.29550781 9.93757813 1.65742188 10 1 C10.66 1 11.32 1 12 1 C12 4.63 12 8.26 12 12 C7.45721498 14.27139251 5.82630965 14.16188936 1 13 C-1.11295256 9.83057116 -1.25250929 9.00370047 -1.1875 5.375 C-1.17783203 4.18003906 -1.17783203 4.18003906 -1.16796875 2.9609375 C-1 1 -1 1 0 0 Z " fill="#6D996B" transform="translate(113,226)"/>
<path d="M0 0 C5.56818182 0.56818182 5.56818182 0.56818182 7 2 C7.29386153 5.72224599 7.14809171 6.77786243 5 10 C2.5 10.3125 2.5 10.3125 0 10 C-2 8 -2 8 -2.25 5 C-2 2 -2 2 0 0 Z " fill="#EDF6EB" transform="translate(151,228)"/>
<path d="M0 0 C0.66 0.33 1.32 0.66 2 1 C2.0809723 3.43816585 2.14046972 5.87364384 2.1875 8.3125 C2.22520508 9.34793945 2.22520508 9.34793945 2.26367188 10.40429688 C2.33777767 15.5175964 2.33777767 15.5175964 0.61328125 17.98046875 C-1 19 -1 19 -3 19 C-3.66 18.01 -4.32 17.02 -5 16 C-5.66 15.67 -6.32 15.34 -7 15 C-6.34 14.01 -5.68 13.02 -5 12 C-4.34 12 -3.68 12 -3 12 C-3.33 10.02 -3.66 8.04 -4 6 C-3.01 7.32 -2.02 8.64 -1 10 C-0.8508625 7.12800968 -0.8508625 7.12800968 -1.625 5 C-2 3 -2 3 0 0 Z " fill="#19805A" transform="translate(149,173)"/>
<path d="M0 0 C2.61580479 0.3269756 4.64078137 0.82039068 7 2 C7.22732116 4.80362763 7.34081872 6.46186517 5.8125 8.875 C4 10 4 10 1.375 9.75 C-1 9 -1 9 -2 8 C-2.1875 5.0625 -2.1875 5.0625 -2 2 C-1.34 1.34 -0.68 0.68 0 0 Z " fill="#EEF8EC" transform="translate(181,228)"/>
<path d="M0 0 C0.66 0.66 1.32 1.32 2 2 C0.68 2.33 -0.64 2.66 -2 3 C-2 3.66 -2 4.32 -2 5 C-2.66 5 -3.32 5 -4 5 C-4 5.66 -4 6.32 -4 7 C-5.98 7.66 -7.96 8.32 -10 9 C-10.66 7.35 -11.32 5.7 -12 4 C-12.33 4.66 -12.66 5.32 -13 6 C-13.33 5.01 -13.66 4.02 -14 3 C-9.63252845 -0.38126829 -5.34873901 -0.80914126 0 0 Z " fill="#1E845E" transform="translate(314,165)"/>
<path d="M0 0 C1.65 0 3.3 0 5 0 C5 0.66 5 1.32 5 2 C4.01 2 3.02 2 2 2 C2 3.32 2 4.64 2 6 C2.99 6 3.98 6 5 6 C5 6.66 5 7.32 5 8 C4.01 8 3.02 8 2 8 C2 11.96 2 15.92 2 20 C1.01 19.67 0.02 19.34 -1 19 C-1.22397733 16.95999027 -1.42848537 14.91783811 -1.625 12.875 C-1.74101562 11.73804688 -1.85703125 10.60109375 -1.9765625 9.4296875 C-2.00112837 5.83488201 -1.32167811 3.319329 0 0 Z " fill="#77A378" transform="translate(164,220)"/>
<path d="M0 0 C3 0.1875 3 0.1875 5 1.1875 C5 1.8475 5 2.5075 5 3.1875 C2.69 2.8575 0.38 2.5275 -2 2.1875 C-0.00239373 4.25644935 1.88270926 6.1060481 4.25 7.75 C4.8275 8.224375 5.405 8.69875 6 9.1875 C6 10.1775 6 11.1675 6 12.1875 C2.53076119 14.50032587 1.07794425 14.61228586 -3 14.1875 C-3.99 13.1975 -4.98 12.2075 -6 11.1875 C-3.03 11.5175 -0.06 11.8475 3 12.1875 C2.67 11.1975 2.34 10.2075 2 9.1875 C1.01 8.713125 0.02 8.23875 -1 7.75 C-4 6.1875 -4 6.1875 -5 4.125 C-5 0.53622875 -3.26217015 0.20388563 0 0 Z " fill="#7AA07B" transform="translate(291,225.8125)"/>
<path d="M0 0 C0.33 0 0.66 0 1 0 C1 13.53 1 27.06 1 41 C3.64 41 6.28 41 9 41 C9 41.33 9 41.66 9 42 C3.06 42.495 3.06 42.495 -3 43 C-3.33 40.03 -3.66 37.06 -4 34 C-3.01 33.505 -3.01 33.505 -2 33 C-2 35.31 -2 37.62 -2 40 C-1.34 40 -0.68 40 0 40 C0 26.8 0 13.6 0 0 Z " fill="#DBF8EC" transform="translate(189,155)"/>
<path d="M0 0 C0.33 0 0.66 0 1 0 C1 5.94 1 11.88 1 18 C-2.86790003 19.93395001 -4.1500459 20.23289353 -8.25 20.125 C-9.14203125 20.10695312 -10.0340625 20.08890625 -10.953125 20.0703125 C-11.62859375 20.04710937 -12.3040625 20.02390625 -13 20 C-13 19.34 -13 18.68 -13 18 C-11.906875 18.020625 -10.81375 18.04125 -9.6875 18.0625 C-6.05615809 18.18544452 -6.05615809 18.18544452 -3 17 C-2.67 13.37 -2.34 9.74 -2 6 C-2.66 6 -3.32 6 -4 6 C-4 8.97 -4 11.94 -4 15 C-4.33 15 -4.66 15 -5 15 C-5 11.7 -5 8.4 -5 5 C-3.68 5 -2.36 5 -1 5 C-0.67 3.35 -0.34 1.7 0 0 Z " fill="#DCEFDB" transform="translate(127,221)"/>
<path d="M0 0 C4.55555556 0.55555556 4.55555556 0.55555556 6 2 C6.1875 4.9375 6.1875 4.9375 6 8 C5.34 8.66 4.68 9.32 4 10 C-0.55555556 9.44444444 -0.55555556 9.44444444 -2 8 C-2.1875 5.0625 -2.1875 5.0625 -2 2 C-1.34 1.34 -0.68 0.68 0 0 Z " fill="#EAF5E9" transform="translate(214,228)"/>
<path d="M0 0 C3.5 0.1875 3.5 0.1875 5.5 1.1875 C5.5 1.8475 5.5 2.5075 5.5 3.1875 C3.11435923 2.61165568 0.83317216 1.96522405 -1.5 1.1875 C-2.33371359 4.14258447 -2.67889534 6.88859613 -2.81640625 9.953125 C-2.85830078 10.84257812 -2.90019531 11.73203125 -2.94335938 12.6484375 C-3.00233398 14.02902344 -3.00233398 14.02902344 -3.0625 15.4375 C-3.10568359 16.37335938 -3.14886719 17.30921875 -3.19335938 18.2734375 C-3.2991805 20.57798641 -3.40126557 22.88263839 -3.5 25.1875 C-4.16 25.1875 -4.82 25.1875 -5.5 25.1875 C-5.55786668 21.39589703 -5.59355054 17.60440689 -5.625 13.8125 C-5.64175781 12.73226562 -5.65851563 11.65203125 -5.67578125 10.5390625 C-5.68222656 9.5078125 -5.68867187 8.4765625 -5.6953125 7.4140625 C-5.70578613 6.46096191 -5.71625977 5.50786133 -5.72705078 4.52587891 C-5.33213951 0.45871742 -3.91122256 0.20952978 0 0 Z " fill="#C9EDE1" transform="translate(102.5,171.8125)"/>
<path d="M0 0 C0.99 0 1.98 0 3 0 C3 0.99 3 1.98 3 3 C2.34 3 1.68 3 1 3 C1.2784375 4.1446875 1.2784375 4.1446875 1.5625 5.3125 C2.15455682 10.30269322 1.57528099 15.02603203 1 20 C0.01 20.33 -0.98 20.66 -2 21 C-2.05791844 17.87507749 -2.09356746 14.75029234 -2.125 11.625 C-2.14175781 10.73554688 -2.15851563 9.84609375 -2.17578125 8.9296875 C-2.18222656 8.07890625 -2.18867187 7.228125 -2.1953125 6.3515625 C-2.20578613 5.56604004 -2.21625977 4.78051758 -2.22705078 3.97119141 C-2 2 -2 2 0 0 Z " fill="#679B66" transform="translate(108,219)"/>
<path d="M0 0 C0.99 0.33 1.98 0.66 3 1 C3 8.59 3 16.18 3 24 C0.36 24 -2.28 24 -5 24 C-5 19.71 -5 15.42 -5 11 C-4.67 11 -4.34 11 -4 11 C-4 14.96 -4 18.92 -4 23 C-2.35 23 -0.7 23 1 23 C0.67 15.41 0.34 7.82 0 0 Z " fill="#3E8F71" transform="translate(301,173)"/>
<path d="M0 0 C0.99 0.33 1.98 0.66 3 1 C2.34 4.63 1.68 8.26 1 12 C0.34 12 -0.32 12 -1 12 C-1.33 12.66 -1.66 13.32 -2 14 C-3.32 13.67 -4.64 13.34 -6 13 C-6.36521739 7.52173913 -6.36521739 7.52173913 -4.6875 5.125 C-3 4 -3 4 0 4 C-0.33 3.01 -0.66 2.02 -1 1 C-0.67 0.67 -0.34 0.34 0 0 Z " fill="#148359" transform="translate(126,171)"/>
<path d="M0 0 C0.99 0 1.98 0 3 0 C4.32229189 2.64458379 4.09677194 4.67761301 4.0625 7.625 C4.05347656 8.62789062 4.04445312 9.63078125 4.03515625 10.6640625 C4.02355469 11.43492187 4.01195312 12.20578125 4 13 C0.56731802 14.54867002 -2.05007366 15.23731123 -5.8125 15.125 C-6.60269531 15.10695312 -7.39289063 15.08890625 -8.20703125 15.0703125 C-9.09455078 15.03550781 -9.09455078 15.03550781 -10 15 C-10.66 13.68 -11.32 12.36 -12 11 C-11.01 11.495 -11.01 11.495 -10 12 C-8.48154798 12.09472912 -6.95889616 12.1298841 -5.4375 12.125 C-4.63183594 12.12757813 -3.82617188 12.13015625 -2.99609375 12.1328125 C-1.00057979 12.22011391 -1.00057979 12.22011391 0 11 C0.23192865 9.48530552 0.41215238 7.96245438 0.5625 6.4375 C0.64628906 5.61121094 0.73007813 4.78492188 0.81640625 3.93359375 C0.87699219 3.29550781 0.93757812 2.65742188 1 2 C0.34 1.67 -0.32 1.34 -1 1 C-0.67 0.67 -0.34 0.34 0 0 Z " fill="#DFF1E0" transform="translate(159,226)"/>
<path d="M0 0 C0.99 0 1.98 0 3 0 C3 6.6 3 13.2 3 20 C2.01 20 1.02 20 0 20 C0 13.4 0 6.8 0 0 Z " fill="#74A375" transform="translate(134,220)"/>
<path d="M0 0 C2.5 0.125 2.5 0.125 3.5 1.125 C3.625 4.125 3.625 4.125 3.5 7.125 C2.5 8.125 2.5 8.125 0 8.25 C-2.5 8.125 -2.5 8.125 -3.5 7.125 C-3.625 4.125 -3.625 4.125 -3.5 1.125 C-2.5 0.125 -2.5 0.125 0 0 Z " fill="#1A825D" transform="translate(159.5,151.875)"/>
<path d="M0 0 C0.33 0 0.66 0 1 0 C1 2.97 1 5.94 1 9 C1.66 9 2.32 9 3 9 C4.65 12.3 6.3 15.6 8 19 C7.34 19 6.68 19 6 19 C6 18.34 6 17.68 6 17 C4.68 17 3.36 17 2 17 C1.67 18.65 1.34 20.3 1 22 C0.67 22 0.34 22 0 22 C0 14.74 0 7.48 0 0 Z " fill="#DAF7EC" transform="translate(117,175)"/>
<path d="M0 0 C1.32 0 2.64 0 4 0 C4.33 0.99 4.66 1.98 5 3 C4.01 3.33 3.02 3.66 2 4 C2 7.3 2 10.6 2 14 C2.66 14.33 3.32 14.66 4 15 C2.35 15.66 0.7 16.32 -1 17 C-1.06058594 16.15695313 -1.12117187 15.31390625 -1.18359375 14.4453125 C-1.26738281 13.34960938 -1.35117188 12.25390625 -1.4375 11.125 C-1.51871094 10.03445312 -1.59992188 8.94390625 -1.68359375 7.8203125 C-1.83001703 5.05271029 -1.83001703 5.05271029 -3 3 C-2.01 2.67 -1.02 2.34 0 2 C0 1.34 0 0.68 0 0 Z " fill="#EAF8E9" transform="translate(256,224)"/>
<path d="M0 0 C0.99 0.495 0.99 0.495 2 1 C2.625 3.5625 2.625 3.5625 3 6 C4.546875 5.938125 4.546875 5.938125 6.125 5.875 C9.86829627 5.99575149 12.53734547 6.64872018 16 8 C16 8.66 16 9.32 16 10 C15.505 9.835 15.01 9.67 14.5 9.5 C9.02078882 8.40415776 5.04139249 8.47930376 0 11 C0 7.37 0 3.74 0 0 Z " fill="#CDEFE3" transform="translate(97,157)"/>
<path d="M0 0 C0.99 0.66 1.98 1.32 3 2 C2.01 2.66 1.02 3.32 0 4 C-0.17199883 6.32418935 0.06749942 8.49073941 0.28515625 10.80859375 C0.19105469 11.53175781 0.09695312 12.25492188 0 13 C-1.32 13.99 -2.64 14.98 -4 16 C-4 11.05 -4 6.1 -4 1 C-2.68 1.33 -1.36 1.66 0 2 C0 1.34 0 0.68 0 0 Z " fill="#EFFDEE" transform="translate(195,225)"/>
<path d="M0 0 C0.33 1.65 0.66 3.3 1 5 C0.67 4.34 0.34 3.68 0 3 C-2.32156597 2.59270772 -4.6568787 2.25561323 -7 2 C-7.309375 2.928125 -7.61875 3.85625 -7.9375 4.8125 C-8.625 6.875 -9.3125 8.9375 -10 11 C-10.66 11 -11.32 11 -12 11 C-12.28782761 7.94902735 -12.42004236 5.04261451 -12 2 C-8.28662663 -1.82589984 -4.94155751 -1.06582613 0 0 Z " fill="#7DA47B" transform="translate(221,227)"/>
<path d="M0 0 C1.62600941 0.0870005 3.25089678 0.1951781 4.875 0.3125 C5.77992187 0.37050781 6.68484375 0.42851562 7.6171875 0.48828125 C10 1 10 1 12 4 C12.125 6.6875 12.125 6.6875 12 9 C11.34 9 10.68 9 10 9 C9.67 10.65 9.34 12.3 9 14 C6.21362367 9.8204355 7.20437488 7.85331323 8 3 C5.36 2.34 2.72 1.68 0 1 C0 0.67 0 0.34 0 0 Z " fill="#CFE9E1" transform="translate(76,155)"/>
<path d="M0 0 C0.66 0 1.32 0 2 0 C2 6.6 2 13.2 2 20 C1.01 19.67 0.02 19.34 -1 19 C-0.67 12.73 -0.34 6.46 0 0 Z " fill="#7BA37B" transform="translate(237,220)"/>
<path d="M0 0 C2.64 1.32 5.28 2.64 8 4 C8 4.99 8 5.98 8 7 C4.33333333 7 0.66666667 7 -3 7 C-2.34 5.68 -1.68 4.36 -1 3 C-0.67 3 -0.34 3 0 3 C0 2.01 0 1.02 0 0 Z " fill="#E1F1E1" transform="translate(286,231)"/>
<path d="M0 0 C0.598125 0.226875 1.19625 0.45375 1.8125 0.6875 C0.8225 0.6875 -0.1675 0.6875 -1.1875 0.6875 C-1.1875 1.6775 -1.1875 2.6675 -1.1875 3.6875 C-1.8475 3.6875 -2.5075 3.6875 -3.1875 3.6875 C-3.5175 12.5975 -3.8475 21.5075 -4.1875 30.6875 C-4.5175 30.6875 -4.8475 30.6875 -5.1875 30.6875 C-5.26171454 26.75489056 -5.31613136 22.82255278 -5.35229492 18.8894043 C-5.37478333 16.89422299 -5.41290198 14.89923787 -5.45117188 12.90429688 C-5.46083984 11.65068359 -5.47050781 10.39707031 -5.48046875 9.10546875 C-5.4961792 7.94813232 -5.51188965 6.7907959 -5.52807617 5.59838867 C-5.1875 2.6875 -5.1875 2.6875 -3.8059082 0.7668457 C-2.1875 -0.3125 -2.1875 -0.3125 0 0 Z " fill="#439376" transform="translate(173.1875,158.3125)"/>
<path d="M0 0 C0.66 0.66 1.32 1.32 2 2 C1.67 2.33 1.34 2.66 1 3 C0.89998692 5.02535922 0.86918973 7.05420518 0.8671875 9.08203125 C0.86589844 10.32404297 0.86460937 11.56605469 0.86328125 12.84570312 C0.86714844 14.15474609 0.87101563 15.46378906 0.875 16.8125 C0.87113281 18.10994141 0.86726562 19.40738281 0.86328125 20.74414062 C0.86521484 22.61295898 0.86521484 22.61295898 0.8671875 24.51953125 C0.86831543 25.66526611 0.86944336 26.81100098 0.87060547 27.99145508 C0.9793942 30.52089569 1.25854656 32.59487818 2 35 C1.01 35.495 1.01 35.495 0 36 C-1.50076427 32.99847145 -1.14221592 29.9117999 -1.1328125 26.62109375 C-1.13424759 25.53019188 -1.13424759 25.53019188 -1.13571167 24.41725159 C-1.13639235 22.87981072 -1.13454585 21.34236699 -1.13037109 19.80493164 C-1.12501351 17.443457 -1.13032377 15.08217189 -1.13671875 12.72070312 C-1.1360581 11.22916624 -1.13477721 9.73762948 -1.1328125 8.24609375 C-1.13483673 7.53569443 -1.13686096 6.8252951 -1.13894653 6.09336853 C-1.11495714 1.11495714 -1.11495714 1.11495714 0 0 Z " fill="#D6F3E8" transform="translate(168,158)"/>
<path d="M0 0 C0 0.33 0 0.66 0 1 C-1.98 1.33 -3.96 1.66 -6 2 C-4.68 2.66 -3.36 3.32 -2 4 C-2.33 5.32 -2.66 6.64 -3 8 C-5.31 8 -7.62 8 -10 8 C-10 7.34 -10 6.68 -10 6 C-9.34 6 -8.68 6 -8 6 C-8 4.68 -8 3.36 -8 2 C-8.66 1.67 -9.32 1.34 -10 1 C-6.78548731 -0.60725635 -3.56387464 -0.05748185 0 0 Z " fill="#348F6E" transform="translate(210,164)"/>
<path d="M0 0 C0.66 0.33 1.32 0.66 2 1 C2.5546875 3.3984375 2.5546875 3.3984375 2.875 6.375 C2.99617188 7.35210937 3.11734375 8.32921875 3.2421875 9.3359375 C3 12 3 12 1.0078125 13.8515625 C0.01394531 14.42003906 0.01394531 14.42003906 -1 15 C-1.66 14.67 -2.32 14.34 -3 14 C-2.67 13.67 -2.34 13.34 -2 13 C-1.79103683 11.19188816 -1.63219639 9.37783968 -1.5 7.5625 C-1.10992366 2.21984733 -1.10992366 2.21984733 0 0 Z " fill="#ECF9EC" transform="translate(110,226)"/>
<path d="M0 0 C1.010625 0.33 2.02125 0.66 3.0625 1 C6.75479911 2.07001321 10.15248207 2.15704155 14 2 C13.67 2.66 13.34 3.32 13 4 C10.69 4 8.38 4 6 4 C5.34 5.32 4.68 6.64 4 8 C2 6.8125 2 6.8125 0 5 C-0.25 2.3125 -0.25 2.3125 0 0 Z " fill="#388B6E" transform="translate(326,189)"/>
<path d="M0 0 C0.625 1.875 0.625 1.875 1 4 C0.34 4.66 -0.32 5.32 -1 6 C-1 6.66 -1 7.32 -1 8 C-2.65 8.33 -4.3 8.66 -6 9 C-6.33 11.64 -6.66 14.28 -7 17 C-7.33 17 -7.66 17 -8 17 C-8.51689075 11.10744548 -8.01804002 8.13440604 -4.38671875 3.4453125 C-3 2 -3 2 0 0 Z " fill="#2A8864" transform="translate(127,167)"/>
<path d="M0 0 C0.66 0 1.32 0 2 0 C2 1.65 2 3.3 2 5 C2.66 3.68 3.32 2.36 4 1 C4.1875 4.375 4.1875 4.375 4 8 C3.01 8.66 2.02 9.32 1 10 C0.67 9.67 0.34 9.34 0 9 C0 9.66 0 10.32 0 11 C-0.99 11.33 -1.98 11.66 -3 12 C-2.88541307 10.56163249 -2.75790884 9.12429034 -2.625 7.6875 C-2.55539063 6.88699219 -2.48578125 6.08648437 -2.4140625 5.26171875 C-2 3 -2 3 0 0 Z " fill="#298F6A" transform="translate(146,174)"/>
<path d="M0 0 C1.60553374 0.08039153 3.21065374 0.1772597 4.8125 0.3125 C4.8125 0.6425 4.8125 0.9725 4.8125 1.3125 C0.3575 1.8075 0.3575 1.8075 -4.1875 2.3125 C-4.8475 6.2725 -5.5075 10.2325 -6.1875 14.3125 C-8.1875 12.3125 -8.1875 12.3125 -8.5 9 C-7.94300262 2.4274309 -6.73446444 0.01905082 0 0 Z " fill="#BEE6D7" transform="translate(256.1875,171.6875)"/>
<path d="M0 0 C3.3 0 6.6 0 10 0 C9.34 1.32 8.68 2.64 8 4 C5.03 3.67 2.06 3.34 -1 3 C-0.67 2.01 -0.34 1.02 0 0 Z " fill="#DBEFDA" transform="translate(178,239)"/>
<path d="M0 0 C1.2065625 0.0309375 1.2065625 0.0309375 2.4375 0.0625 C2.4375 1.3825 2.4375 2.7025 2.4375 4.0625 C3.7575 4.3925 5.0775 4.7225 6.4375 5.0625 C3.77797754 6.39226123 2.39540707 5.87372428 -0.5 5.3125 C-1.37527344 5.15265625 -2.25054687 4.9928125 -3.15234375 4.828125 C-5.74140625 4.00566754 -6.84549509 3.12517257 -8.5625 1.0625 C-7.3559375 1.0934375 -7.3559375 1.0934375 -6.125 1.125 C-3.0866539 1.050894 -3.0383461 0.074106 0 0 Z " fill="#17815B" transform="translate(337.5625,178.9375)"/>
<path d="M0 0 C1.670625 0.061875 1.670625 0.061875 3.375 0.125 C3.705 1.445 4.035 2.765 4.375 4.125 C3.653125 3.856875 2.93125 3.58875 2.1875 3.3125 C-0.88890537 2.77605845 -0.88890537 2.77605845 -3.4375 5.5625 C-4.159375 6.408125 -4.88125 7.25375 -5.625 8.125 C-5.75 5.25 -5.75 5.25 -5.625 2.125 C-3.625 0.125 -3.625 0.125 0 0 Z " fill="#E6F8EF" transform="translate(309.625,171.875)"/>
<path d="M0 0 C-0.99 1.485 -0.99 1.485 -2 3 C-3.65 2.67 -5.3 2.34 -7 2 C-7.268125 2.969375 -7.53625 3.93875 -7.8125 4.9375 C-8.204375 5.948125 -8.59625 6.95875 -9 8 C-9.99 8.33 -10.98 8.66 -12 9 C-12.3125 5.6875 -12.3125 5.6875 -12 2 C-8.17504288 -1.70904933 -4.96555054 -1.0710011 0 0 Z " fill="#84AB83" transform="translate(188,227)"/>
<path d="M0 0 C0 0.66 0 1.32 0 2 C-1.918125 2.4640625 -1.918125 2.4640625 -3.875 2.9375 C-6.10101675 3.47605244 -7.94739999 3.9737 -10 5 C-10.66 4.67 -11.32 4.34 -12 4 C-12.33 4.66 -12.66 5.32 -13 6 C-13.33 5.01 -13.66 4.02 -14 3 C-9.43672206 -0.53286034 -5.50366792 -0.32374517 0 0 Z " fill="#419275" transform="translate(314,165)"/>
<path d="M0 0 C3.32153186 4.42870914 3.3460174 5.46608682 3.1875 10.75 C3.16042969 11.92046875 3.13335937 13.0909375 3.10546875 14.296875 C3.07066406 15.18890625 3.03585938 16.0809375 3 17 C2.01 16.67 1.02 16.34 0 16 C0 10.72 0 5.44 0 0 Z " fill="#E4F3DF" transform="translate(239,222)"/>
<path d="M0 0 C1.98 0 3.96 0 6 0 C6.66 1.32 7.32 2.64 8 4 C5.03 4 2.06 4 -1 4 C-0.67 2.68 -0.34 1.36 0 0 Z " fill="#DAEBD7" transform="translate(261,228)"/>
<path d="M0 0 C0.66 0.66 1.32 1.32 2 2 C1.67 2.99 1.34 3.98 1 5 C0.34 4.34 -0.32 3.68 -1 3 C-4.58343976 2.83322718 -4.58343976 2.83322718 -8 3 C-8.33 4.98 -8.66 6.96 -9 9 C-9.33 9 -9.66 9 -10 9 C-10.25 6.1875 -10.25 6.1875 -10 3 C-7.08700977 -0.36114258 -4.28489249 -0.46574918 0 0 Z " fill="#79A173" transform="translate(204,226)"/>
<path d="M0 0 C2.75 -0.3125 2.75 -0.3125 6 0 C8.4375 2.125 8.4375 2.125 10 5 C9.75 8.3125 9.75 8.3125 9 11 C7 10 7 10 5.6875 6.5 C5.130625 5.345 4.57375 4.19 4 3 C1.42267086 1.94832473 1.42267086 1.94832473 -1 2 C-0.67 1.34 -0.34 0.68 0 0 Z " fill="#E9F8E8" transform="translate(200,224)"/>
<path d="M0 0 C-1.98 2.31 -3.96 4.62 -6 7 C-6.33 6.34 -6.66 5.68 -7 5 C-9.97 5 -12.94 5 -16 5 C-16 4.67 -16 4.34 -16 4 C-13.03 4 -10.06 4 -7 4 C-6.67 2.68 -6.34 1.36 -6 0 C-3 -1 -3 -1 0 0 Z " fill="#DBF5EB" transform="translate(247,168)"/>
<path d="M0 0 C0 1.32 0 2.64 0 4 C-2.97 3.505 -2.97 3.505 -6 3 C-6.33 3.99 -6.66 4.98 -7 6 C-7.99 6 -8.98 6 -10 6 C-10 4 -10 4 -8.375 1.875 C-5.39534381 -0.47736015 -3.70293685 -0.33663062 0 0 Z " fill="#15825B" transform="translate(260,165)"/>
<path d="M0 0 C0.33 0 0.66 0 1 0 C1.125 2.875 1.125 2.875 1 6 C-1 8 -1 8 -3.1640625 8.1953125 C-4.38222656 8.16050781 -4.38222656 8.16050781 -5.625 8.125 C-6.44226563 8.10695312 -7.25953125 8.08890625 -8.1015625 8.0703125 C-8.72804687 8.04710937 -9.35453125 8.02390625 -10 8 C-10.33 6.68 -10.66 5.36 -11 4 C-9.515 4.99 -9.515 4.99 -8 6 C-6.34450469 6.38499891 -4.6777567 6.72793135 -3 7 C-2.67 6.01 -2.34 5.02 -2 4 C-1.34 4 -0.68 4 0 4 C0 2.68 0 1.36 0 0 Z " fill="#6B986D" transform="translate(159,231)"/>
<path d="M0 0 C0.99 0 1.98 0 3 0 C3 0.99 3 1.98 3 3 C2.34 3 1.68 3 1 3 C1.2784375 4.1446875 1.2784375 4.1446875 1.5625 5.3125 C2.15455682 10.30269322 1.57528099 15.02603203 1 20 C0.67 20 0.34 20 0 20 C-0.19594676 16.85463232 -0.3803401 13.70869386 -0.5625 10.5625 C-0.61857422 9.66466797 -0.67464844 8.76683594 -0.73242188 7.84179688 C-0.78076172 6.98779297 -0.82910156 6.13378906 -0.87890625 5.25390625 C-0.9260376 4.46314697 -0.97316895 3.6723877 -1.02172852 2.85766602 C-1 1 -1 1 0 0 Z " fill="#9FC09E" transform="translate(108,219)"/>
<path d="M0 0 C0.66 0 1.32 0 2 0 C2 2.31 2 4.62 2 7 C5.63 7.33 9.26 7.66 13 8 C13 8.33 13 8.66 13 9 C7.06 9.495 7.06 9.495 1 10 C0 1.125 0 1.125 0 0 Z " fill="#D8ECE3" transform="translate(185,188)"/>
<path d="M0 0 C0.66 0 1.32 0 2 0 C2.625 1.8125 2.625 1.8125 3 4 C2.01 5.485 2.01 5.485 1 7 C0.34 7 -0.32 7 -1 7 C-1.33 10.3 -1.66 13.6 -2 17 C-2.33 17 -2.66 17 -3 17 C-3.34548714 10.66606918 -2.29342747 5.89738492 0 0 Z " fill="#49957A" transform="translate(54,163)"/>
<path d="M0 0 C0.33 0 0.66 0 1 0 C1.66 1.98 2.32 3.96 3 6 C5.35367713 6.6878236 5.35367713 6.6878236 8 7 C8.99 6.34 9.98 5.68 11 5 C11 6.32 11 7.64 11 9 C7.7 9 4.4 9 1 9 C-0.4783226 6.04335481 -0.06032783 3.25770263 0 0 Z " fill="#709A6F" transform="translate(177,230)"/>
<path d="M0 0 C3.4189044 4.55853921 3.4189044 4.55853921 2.9375 8.125 C2.628125 9.40375 2.31875 10.6825 2 12 C0.02 12.99 0.02 12.99 -2 14 C-1.34 9.38 -0.68 4.76 0 0 Z " fill="#E2F9F0" transform="translate(152,176)"/>
<path d="M0 0 C1.32 0 2.64 0 4 0 C4.33 1.32 4.66 2.64 5 4 C3.35 5.32 1.7 6.64 0 8 C-0.79953138 4.71303767 -1.09658936 3.28976808 0 0 Z " fill="#F4FAF4" transform="translate(214,228)"/>
<path d="M0 0 C0.66 0.33 1.32 0.66 2 1 C0.20671522 3.29141944 -0.90244212 3.9733933 -3.75 4.75 C-7.33089512 5.02545347 -10.47370317 4.63473343 -14 4 C-14 3.67 -14 3.34 -14 3 C-13.24074219 2.86722656 -12.48148437 2.73445312 -11.69921875 2.59765625 C-10.70535156 2.42105469 -9.71148437 2.24445313 -8.6875 2.0625 C-7.70136719 1.88847656 -6.71523437 1.71445313 -5.69921875 1.53515625 C-2.91810787 1.04253153 -2.91810787 1.04253153 0 0 Z " fill="#D4F0E5" transform="translate(82,195)"/>
<path d="M0 0 C2.31 0 4.62 0 7 0 C7 1.33333333 7 2.66666667 7 4 C4.36 4 1.72 4 -1 4 C-0.67 2.68 -0.34 1.36 0 0 Z " fill="#14815A" transform="translate(332,193)"/>
<path d="M0 0 C2.6875 1.4375 2.6875 1.4375 5 3 C3.75 4.5625 3.75 4.5625 2 6 C-0.1875 5.6875 -0.1875 5.6875 -2 5 C-2.33 3.68 -2.66 2.36 -3 1 C-2.01 0.67 -1.02 0.34 0 0 Z " fill="#148059" transform="translate(129,188)"/>
<path d="M0 0 C1.45922693 0.11409593 2.91740598 0.24165544 4.375 0.375 C5.59316406 0.47941406 5.59316406 0.47941406 6.8359375 0.5859375 C9 1 9 1 11 3 C4.6 4.23076923 4.6 4.23076923 1.5625 3.0625 C1.046875 2.711875 0.53125 2.36125 0 2 C0 1.34 0 0.68 0 0 Z " fill="#81AB83" transform="translate(177,242)"/>
<path d="M0 0 C0 2.97 0 5.94 0 9 C-0.66 9 -1.32 9 -2 9 C-2.33 7.35 -2.66 5.7 -3 4 C-4.32 3.67 -5.64 3.34 -7 3 C-2.25 0 -2.25 0 0 0 Z " fill="#60A38C" transform="translate(85,186)"/>
<path d="M0 0 C2.01822917 0.29296875 4.03645833 0.5859375 6.0546875 0.87890625 C8.08140667 1.1684297 8.08140667 1.1684297 10 0 C9.67 1.32 9.34 2.64 9 4 C6.69 4 4.38 4 2 4 C1.34 2.68 0.68 1.36 0 0 Z " fill="#8CAC87" transform="translate(226,236)"/>
<path d="M0 0 C4.75 0.875 4.75 0.875 7 2 C7 3.65 7 5.3 7 7 C6.67 5.68 6.34 4.36 6 3 C3.36 3.33 0.72 3.66 -2 4 C-1.34 2.68 -0.68 1.36 0 0 Z " fill="#DDF1DC" transform="translate(181,228)"/>
<path d="M0 0 C0.66 1.32 1.32 2.64 2 4 C1 5 1 5 -2.375 5.125 C-6 5 -6 5 -9 4 C-9 3.34 -9 2.68 -9 2 C-6.03 2.33 -3.06 2.66 0 3 C0 2.01 0 1.02 0 0 Z " fill="#91B293" transform="translate(281,235)"/>
<path d="M0 0 C0.33 0.66 0.66 1.32 1 2 C-0.41633336 2.16947579 -1.83308533 2.33545507 -3.25 2.5 C-4.43335938 2.63921875 -4.43335938 2.63921875 -5.640625 2.78125 C-8 3 -8 3 -12 3 C-8.40198016 -0.59801984 -4.84291279 -0.09137571 0 0 Z " fill="#579B82" transform="translate(343,165)"/>
<path d="M0 0 C0.33 0 0.66 0 1 0 C1 1.65 1 3.3 1 5 C-2.47823115 6.15941038 -4.45895578 5.70820884 -8 5 C-8 4.34 -8 3.68 -8 3 C-5.36 3 -2.72 3 0 3 C0 2.01 0 1.02 0 0 Z " fill="#D5F2E7" transform="translate(323,194)"/>
<path d="M0 0 C0.66 0.33 1.32 0.66 2 1 C0.99806563 4.79303725 0.18975773 7.71536341 -2 11 C-2.25 3.375 -2.25 3.375 0 0 Z " fill="#D1EDE1" transform="translate(130,173)"/>
<path d="M0 0 C3.3 0.33 6.6 0.66 10 1 C9.67 1.66 9.34 2.32 9 3 C6.67843403 3.40729228 4.3431213 3.74438677 2 4 C2 3.01 2 2.02 2 1 C1.34 0.67 0.68 0.34 0 0 Z " fill="#4E9D80" transform="translate(68,189)"/>
<path d="M0 0 C1.423125 0.2784375 1.423125 0.2784375 2.875 0.5625 C5.89868793 1.28686632 5.89868793 1.28686632 8 0 C8.33 0.99 8.66 1.98 9 3 C2.9453125 3.9765625 2.9453125 3.9765625 1 4 C0.34 3.34 -0.32 2.68 -1 2 C-0.67 1.34 -0.34 0.68 0 0 Z " fill="#84A781" transform="translate(115,236)"/>
<path d="M0 0 C0.66 0.33 1.32 0.66 2 1 C2.40729228 3.32156597 2.74438677 5.6568787 3 8 C1.02 8.33 -0.96 8.66 -3 9 C-2.34 8.01 -1.68 7.02 -1 6 C-0.60986284 4.0103005 -0.26797351 2.00980131 0 0 Z " fill="#D0EACE" transform="translate(223,230)"/>
<path d="M0 0 C0.66 0.33 1.32 0.66 2 1 C2.20086443 4.71599191 2.1519437 5.77208445 0 9 C-2.625 9.1875 -2.625 9.1875 -5 9 C-4.01 8.67 -3.02 8.34 -2 8 C-0.04457812 5.01540871 0 3.73585209 0 0 Z " fill="#DBEED9" transform="translate(156,229)"/>
<path d="M0 0 C0.99 0 1.98 0 3 0 C2.54177532 3.46941546 2.10868317 6.67395049 1 10 C0.34 10 -0.32 10 -1 10 C-1.02689216 8.52093108 -1.04634621 7.04172517 -1.0625 5.5625 C-1.07410156 4.73878906 -1.08570313 3.91507813 -1.09765625 3.06640625 C-1 1 -1 1 0 0 Z " fill="#8AB38A" transform="translate(210,228)"/>
<path d="M0 0 C0 0.66 0 1.32 0 2 C-3.35327639 4.23551759 -3.90743657 4.17283528 -7.6875 3.625 C-8.49574219 3.51414063 -9.30398437 3.40328125 -10.13671875 3.2890625 C-10.75160156 3.19367188 -11.36648437 3.09828125 -12 3 C-12 2.67 -12 2.34 -12 2 C-10.37548581 1.66430703 -8.75037083 1.3315204 -7.125 1 C-6.22007812 0.814375 -5.31515625 0.62875 -4.3828125 0.4375 C-2 0 -2 0 0 0 Z " fill="#DDF5EB" transform="translate(144,195)"/>
<path d="M0 0 C0.33 0.474375 0.66 0.94875 1 1.4375 C4.09813267 3.85791615 7.12026792 3.68198917 11 4 C11 4.33 11 4.66 11 5 C5.158256 5.35050464 1.1468192 5.16727335 -4 2 C-2.68 1.34 -1.36 0.68 0 0 Z " fill="#4A957A" transform="translate(249,192)"/>
<path d="M0 0 C0.99 0.66 1.98 1.32 3 2 C3 2.66 3 3.32 3 4 C0.03 4 -2.94 4 -6 4 C-6 3.34 -6 2.68 -6 2 C-4.7934375 1.7834375 -4.7934375 1.7834375 -3.5625 1.5625 C-1.07896294 1.25864751 -1.07896294 1.25864751 0 0 Z " fill="#12855C" transform="translate(258,191)"/>
<path d="M0 0 C0.66 0.99 1.32 1.98 2 3 C5.05429073 4.21284876 5.05429073 4.21284876 8 5 C8 5.33 8 5.66 8 6 C2.375 6.25 2.375 6.25 -1 4 C-0.67 2.68 -0.34 1.36 0 0 Z " fill="#BDE4D4" transform="translate(334,173)"/>
<path d="M0 0 C3.63 0 7.26 0 11 0 C9.02 0.99 9.02 0.99 7 2 C7 2.66 7 3.32 7 4 C4.08482708 2.92598892 2.22189824 2.22189824 0 0 Z " fill="#D5F0E6" transform="translate(261,164)"/>
<path d="M0 0 C0.66 0 1.32 0 2 0 C1.34 2.97 0.68 5.94 0 9 C-0.66 9 -1.32 9 -2 9 C-2.125 5.625 -2.125 5.625 -2 2 C-1.34 1.34 -0.68 0.68 0 0 Z " fill="#729871" transform="translate(227,227)"/>
<path d="M0 0 C1.65 0 3.3 0 5 0 C5.33 1.65 5.66 3.3 6 5 C3.5625 4.1875 3.5625 4.1875 1 3 C0.67 2.01 0.34 1.02 0 0 Z " fill="#E2EFDC" transform="translate(289,228)"/>
<path d="M0 0 C0.99 0.33 1.98 0.66 3 1 C3 2.32 3 3.64 3 5 C-0.63 5 -4.26 5 -8 5 C-8 4.67 -8 4.34 -8 4 C-5.03 4 -2.06 4 1 4 C0.67 2.68 0.34 1.36 0 0 Z " fill="#679364" transform="translate(268,228)"/>
<path d="M0 0 C0 0.99 0 1.98 0 3 C-2.97 2.505 -2.97 2.505 -6 2 C-6.33 2.66 -6.66 3.32 -7 4 C-7 3.34 -7 2.68 -7 2 C-7.66 1.67 -8.32 1.34 -9 1 C-6.04335481 -0.4783226 -3.25770263 -0.06032783 0 0 Z " fill="#8EAE8E" transform="translate(282,226)"/>
<path d="M0 0 C1.6396875 0.0928125 1.6396875 0.0928125 3.3125 0.1875 C3.3125 1.1775 3.3125 2.1675 3.3125 3.1875 C0.0125 3.1875 -3.2875 3.1875 -6.6875 3.1875 C-3.6875 0.1875 -3.6875 0.1875 0 0 Z " fill="#87A982" transform="translate(264.6875,225.8125)"/>
<path d="M0 0 C1.98 0.99 1.98 0.99 4 2 C3.34 4.64 2.68 7.28 2 10 C1.67 10 1.34 10 1 10 C0.67 6.7 0.34 3.4 0 0 Z " fill="#5BA488" transform="translate(263,175)"/>
<path d="M0 0 C0.66 0.99 1.32 1.98 2 3 C1.01 3.33 0.02 3.66 -1 4 C-1.33 6.64 -1.66 9.28 -2 12 C-2.33 12 -2.66 12 -3 12 C-3.36923077 4.61538462 -3.36923077 4.61538462 -1.5 1.5 C-1.005 1.005 -0.51 0.51 0 0 Z " fill="#589D82" transform="translate(122,172)"/>
<path d="M0 0 C3.0625 0.125 3.0625 0.125 5.0625 1.125 C5.0625 1.785 5.0625 2.445 5.0625 3.125 C2.7525 2.795 0.4425 2.465 -1.9375 2.125 C-2.2675 2.785 -2.5975 3.445 -2.9375 4.125 C-3.2675 3.135 -3.5975 2.145 -3.9375 1.125 C-2.9375 0.125 -2.9375 0.125 0 0 Z " fill="#8DAA89" transform="translate(290.9375,225.875)"/>
<path d="M0 0 C2.64 0 5.28 0 8 0 C7.01 1.485 7.01 1.485 6 3 C3.375 3.1875 3.375 3.1875 1 3 C0.67 2.01 0.34 1.02 0 0 Z " fill="#E5F7EF" transform="translate(296,197)"/>
<path d="M0 0 C0.99 0.33 1.98 0.66 3 1 C3 2.32 3 3.64 3 5 C1.68 5.33 0.36 5.66 -1 6 C-0.67 4.02 -0.34 2.04 0 0 Z " fill="#FCFBF9" transform="translate(230,231)"/>
<path d="M0 0 C0.99 0.66 1.98 1.32 3 2 C2.01 2.66 1.02 3.32 0 4 C-0.73606499 7.56769552 -0.73606499 7.56769552 -1 11 C-1.33 11 -1.66 11 -2 11 C-2.33 8.36 -2.66 5.72 -3 3 C-2.01 2.67 -1.02 2.34 0 2 C0 1.34 0 0.68 0 0 Z " fill="#D7E7D3" transform="translate(195,225)"/>
<path d="M0 0 C2.97 0 5.94 0 9 0 C6.62216162 2.37783838 5.27926335 2.59009208 2 3 C1.34 2.67 0.68 2.34 0 2 C0 1.34 0 0.68 0 0 Z " fill="#D8F0E6" transform="translate(332,198)"/>
<path d="M0 0 C0.33 0.66 0.66 1.32 1 2 C-1 4 -1 4 -3 5 C-3 4.34 -3 3.68 -3 3 C-4.65 2.67 -6.3 2.34 -8 2 C-8 1.67 -8 1.34 -8 1 C-5.36 0.67 -2.72 0.34 0 0 Z " fill="#D2EBE1" transform="translate(184,195)"/>
<path d="M0 0 C0.99 0.66 1.98 1.32 3 2 C2.2884375 2.495 2.2884375 2.495 1.5625 3 C-0.85791615 6.09813267 -0.68198917 9.12026792 -1 13 C-1.33 13 -1.66 13 -2 13 C-2.05447047 11.58376784 -2.09300508 10.16691809 -2.125 8.75 C-2.14820312 7.96109375 -2.17140625 7.1721875 -2.1953125 6.359375 C-1.9828378 3.79268059 -1.28654105 2.2083933 0 0 Z " fill="#3A9270" transform="translate(129,171)"/>
<path d="M0 0 C1.98 0 3.96 0 6 0 C6 1.65 6 3.3 6 5 C5.01 5 4.02 5 3 5 C2.67 4.01 2.34 3.02 2 2 C1.34 1.34 0.68 0.68 0 0 Z " fill="#13805B" transform="translate(77,159)"/>
<path d="M0 0 C1.66611905 -0.042721 3.33382885 -0.04063832 5 0 C6 1 6 1 6.0625 3.5625 C6.041875 4.366875 6.02125 5.17125 6 6 C5.67 5.01 5.34 4.02 5 3 C2.03 2.505 2.03 2.505 -1 2 C-0.67 1.34 -0.34 0.68 0 0 Z " fill="#3C9072" transform="translate(157,152)"/>
<path d="M0 0 C0.66 0 1.32 0 2 0 C2 0.66 2 1.32 2 2 C2.99 2.33 3.98 2.66 5 3 C5.33 3.99 5.66 4.98 6 6 C3.5625 5.25 3.5625 5.25 1 4 C0.1875 1.875 0.1875 1.875 0 0 Z " fill="#6F9F6F" transform="translate(286,228)"/>
<path d="M0 0 C2.31 0 4.62 0 7 0 C7.33 1.32 7.66 2.64 8 4 C6.68 3.67 5.36 3.34 4 3 C4 2.34 4 1.68 4 1 C2.68 0.67 1.36 0.34 0 0 Z " fill="#BBDECE" transform="translate(306,172)"/>
<path d="M0 0 C1.98 0 3.96 0 6 0 C4.37660195 1.70884005 2.70680947 3.37446717 1 5 C0.34 5 -0.32 5 -1 5 C-0.67 3.35 -0.34 1.7 0 0 Z " fill="#D8F3EA" transform="translate(125,164)"/>
</svg>
