<?xml version="1.0" encoding="utf-8"?>
<!-- Generator: Adobe Illustrator 19.2.1, SVG Export Plug-In . SVG Version: 6.00 Build 0)  -->
<svg version="1.1" id="layer" xmlns="http://www.w3.org/2000/svg" xmlns:xlink="http://www.w3.org/1999/xlink" x="0px" y="0px"
	 viewBox="0 0 652 652" style="enable-background:new 0 0 652 652;" xml:space="preserve">
<style type="text/css">
	.st0{fill:#82B6BF;}
	.st1{fill:#3B2912;}
	.st2{fill:#2F1E10;}
</style>
<g>
	<path class="st0" d="M372.2,195.6H269.9l-20.3,96.6c-2.1,8.4,2.5,17.1,10.6,20l54.2,19.5c1.8,0.6,3.7,1,5.6,1
		c1.8,0,3.6-0.3,5.3-0.9l56.4-19.5c8.2-2.8,12.9-11.5,10.7-20.1L372.2,195.6z"/>
</g>
<polygon class="st0" points="338.6,467.2 363.7,467.2 363.7,456.7 338.6,456.7 338.6,447.4 363.7,447.4 363.7,435.8 325.4,435.8 
	325.4,489 338.6,489 "/>
<polygon class="st0" points="250.6,467.2 275.7,467.2 275.7,456.7 250.6,456.7 250.6,447.4 275.7,447.4 275.7,435.8 237.5,435.8 
	237.5,489 250.6,489 "/>
<g>
	<path class="st0" d="M165.8,478.5c-9.9,0-18-7.2-18-16.1c0-8.9,8-16.1,18-16.1c9.9,0,17.9,7.2,17.9,16.1
		C183.7,471.3,175.7,478.5,165.8,478.5 M165.8,434.5c-17.2,0-31.1,12.5-31.1,27.8c0,15.4,13.9,27.9,31.1,27.9
		c17.1,0,31.1-12.5,31.1-27.9C196.8,447,182.9,434.5,165.8,434.5"/>
	<path class="st0" d="M87.7,470.6c-3.1,4.8-8.9,8-15.5,8c-10,0-18-7.2-18-16.1c0-8.9,8.1-16.2,18-16.2c6.6,0,12.4,3.2,15.5,8
		l9.8-7.9c-5.6-7.1-14.9-11.8-25.4-11.8c-17.2,0-31.1,12.5-31.1,27.9c0,15.4,13.9,27.8,31.1,27.8c10.5,0,19.7-4.7,25.4-11.8
		L87.7,470.6z"/>
</g>
<polygon class="st0" points="454.6,477.4 427.3,477.4 427.3,467.2 454.6,467.2 454.6,456.7 427.3,456.7 427.3,447.4 454.6,447.4 
	454.6,435.8 414.1,435.8 414.1,489 454.6,489 "/>
<polygon class="st0" points="546.9,477.4 519.6,477.4 519.6,467.2 546.9,467.2 546.9,456.7 519.6,456.7 519.6,447.4 546.9,447.4 
	546.9,435.8 506.4,435.8 506.4,489 546.9,489 "/>
<polygon class="st0" points="566.5,466.8 566.5,470.7 573.5,470.7 573.5,488.6 578.5,488.6 578.5,470.7 585.4,470.7 585.4,466.8 "/>
<g>
	<path class="st0" d="M589.1,466.5h0.4l12,11.8l11.8-11.8h0.4v22.1h-4.8v-8.2c0-1.5,0.2-3.8,0.2-3.8s-1.5,1.9-2.6,3.1l-4.8,4.8h-0.5
		l-4.8-4.8c-1.1-1.2-2.6-3.1-2.6-3.1s0.2,2.3,0.2,3.8v8.2h-4.8V466.5z"/>
	<path class="st1" d="M340.2,268.6c1.3-0.5,2.2-1.7,2-3c0-0.4-0.2-0.8-0.4-1.1c-2.5-4.2-8.4-12.4-25.4-7.2c0,0-32.1,9.4-33.2,23.4
		c-28.6,11.4-54.3,27.7-75.7,47.4l17.1,4.8c0,0,1.6,0.5,2.9,0.4c1.3-0.1,2.4-0.6,3.3-1.4l0,0c30.2-29.7,57.9-49.7,108.8-63
		C339.6,268.7,340.1,268.6,340.2,268.6"/>
	<path class="st1" d="M357.3,226.9c0-0.3-0.2-0.5-0.3-0.6l-1.7-1.5c-0.8-0.7-1.3-1.8-1.3-2.9c0-0.7,0.2-1.3,0.6-1.9l0.9-1.4
		c0.2-0.2,0.3-0.5,0.3-0.8c0-0.9-0.8-1.7-1.9-1.8c-0.2,0-0.4,0-0.6,0.1c-2,0.6-4.2,1-6.4,1.2c-6,0.6-12.6,0.5-19.4-0.6
		c-34.3-6-39.5-20.5-38.1-26.9c0.5-2.5,2-4.8,4.2-6.6c4.7-4.3,15.4-7,27.8-6.5c2.8,0.1,8.4,0.8,8.4,0.8h0c0.6,0.1,1.1-0.2,1.4-0.5
		c0.6-1.3-2-2.2-3.8-3.5c-5.3-3.8,8.3-6.4,9-7.9c1-2.4-5.4-1.8-8.1-3.3c-4.4-2.4,6-6.3,6.8-6.9c0.5-0.3,0.3-1-0.6-1
		c-30.3-0.7-53.2,17.9-52.3,37.2c1.1,20.7,31.1,37.1,66.8,36.7c2.2,0,6.9,0,8.2-0.8C357.1,227.4,357.3,227.2,357.3,226.9"/>
	<path class="st1" d="M365.6,239.6c0-1.7-1.4-3.1-3.3-3.3l-38.4-4.7c-0.1,0-0.1,0-0.2,0c-0.7,0-1.2,0.5-1.3,1.1c0,0.2,0,0.5,0,0.7
		c0,3.6,2.9,6.5,6.6,7.1v4.8c0,3.2,2.9,5.8,6.5,5.8c0.3,0,0.5,0,0.7-0.1l24.7-2.6c1.6-0.2,2.9-1.2,3.2-2.6l1.3-5.5
		C365.6,240.1,365.6,239.9,365.6,239.6"/>
	<path class="st1" d="M375.1,267c-45.4,4.7-82.4,23.7-82.4,23.7c-0.5,0.3-1,0.8-0.9,1.5c0.1,0.5,0.5,1.1,1.1,1.8
		c5.5,5.5,13.3,9,45.8-3.2c5.8-2.2,8.6-5.9,8.5-10.9c0,0,9.7-2.3,23.1-2.5c24.6-0.4,33.6,3.1,46.1,4.5c0.4,0.1,0.7,0.1,1.1,0.1
		c1.9-0.2,3.4-1.1,4.2-2.6l6.1-13.2C414.2,265.1,396.9,264.8,375.1,267"/>
	<path class="st2" d="M304.1,373.7c11.5-0.7,14.7-5,13.1-12.4c-1.6-7.4-11.7-9.6-17.4-8.6c-5.7,1-10.3,3.5-10.3,8.3
		C289.7,365.9,292.6,374.3,304.1,373.7"/>
	<path class="st2" d="M406.4,397.8c-7,3.9-22.3,10-31.3,2.5c-7.4-6.1,10.5-18.4,27.3-17.3C416.9,384.1,413.4,393.9,406.4,397.8
		 M155.8,407.6c-3.9,2.6-13.2,2.1-17.9-1.7c-3.3-2.7-5.3-6.1-2.8-9.8c2-2.9,10.6-9.9,20.6-2.5C160.8,397.3,156.6,407,155.8,407.6
		 M393.8,372c-1.7,0-2.9-1.2-2.3-2.5c0-0.1,12.2-24,13-26.4c1.2-3.8-1.1-7.3-9.1-4.8c-18.7,6-50.1,70.2-68.5,69.3
		c-13.7-0.6-10.4-27.9-26.4-26.2c-12.7,1.4-22.8,30.8-32.6,27.8c-12.6-3.8-11.4-18-11.2-27c0.2-9,5.1-16.5-32.8-6.5
		c-1.4-1.9-4.7-5.6-10.2-7.1c-5-1.3-10.1,1.1-19,8.8c-5.8,5-4.2,7.2,6.3,10.7c-2.1,6-11.5,23.4-27.2,20.3c0,0,6.1-15.9,4.9-23.8
		c-0.8-5-2.6-7.1-8.2-7.8c-6.3-0.7-7.2,2.8-13,2.1c-4.2-0.5-5.1-4.6-15.3-3.5c-12.7,1.3-17.8,5.8-21.2,9.2
		c-4.9,4.9-7.5,11.5-7.3,14.1c-8.7,3.8-44.4,11.7-58.6,0.2c-12.5-10,1.7-44.4,38.8-55.8c44.8-13.7,6.3,16.7,29.5,15
		c3-0.3,7.8-5.1,8.5-5.9c33-31.9-43.2-36.2-89.3,2.2C3.8,387,20.8,422.3,64.9,424c30.8,1.1,46.3-6,53.6-10.4
		c13.7,13.7,40.7,4.4,40.7,4.4s10.2,6.2,23.1,3.8c28.9-5.4,34.4-29.5,37.7-32.4c2.1-1.9,11.9-1.6,11.9-1.6s4,17.4,15.4,27.5
		c5.6,4.9,19.5,12.5,34.5,8.1c17.7-5.1,13.2-15.9,18.9-16.1c10.2-0.3,1.4,15,29.2,15.6c16.9,0.4,32-9.9,32-9.9s2.4,5.1,27.6,5.3
		c25.2,0.2,39.4-9.5,42.8-18.6C442.2,372.7,406,371.6,393.8,372"/>
	<path class="st2" d="M490.2,396.6c-2.9,8.2-21.5,21.7-26.8,5.4c-5.3-16.2,10.5-22.2,17.3-20.9C488.1,382.3,493.1,388.4,490.2,396.6
		 M615.7,403.2c-2.6,0.2-7.2,3.1-10.2,2.6c-3.1-0.5-5.9-9.6-5.2-17.6c0.6-6.9,1.3-12.5-8.4-12.6c-22.5-0.1-12.2,31.8-33.6,31.5
		c-18.4-0.3-4.4-33.8-19.7-35.5c0,0-9.3-1.3-27.8,8.7c-3.3,1.8-4.9,0.5-5.9-0.8c0,0-9.7-14.2-30.2-9.8
		c-28.7,6.1-33.2,29.2-36.6,36.2c-2,4.3-9,6.3-9.9,8.7c-0.8,2.4,5.1,6.4,9.4,6.4c4.3,0.1,9.3-5.4,16.6-4.3
		c7.2,1.2,17.7,10.2,34.6,4.9c17.1-5.4,21.6-23.1,21.6-23.1s14.5-12.4,18.9-7.3c3.1,3.5-0.9,17.4,7,24.3c4.5,3.9,19.6,7.2,30.9,5.8
		c14.5-1.9,19.2-9.1,19.2-9.1s4.7,5.5,16.5,3.9c12-1.6,18-8.8,18-10.1C621,404.6,618.4,403,615.7,403.2"/>
</g>
</svg>
