<?xml version="1.0" encoding="UTF-8"?>
<svg version="1.1" xmlns="http://www.w3.org/2000/svg" width="640" height="640">
<path d="M0 0 C211.2 0 422.4 0 640 0 C640 211.2 640 422.4 640 640 C428.8 640 217.6 640 0 640 C0 428.8 0 217.6 0 0 Z " fill="#FEFEFE" transform="translate(0,0)"/>
<path d="M0 0 C1.69360179 0.2829852 3.39088795 0.5441378 5.08984375 0.79296875 C47.42306462 7.00973545 89.02153138 24.33550104 122.30273438 51.38476562 C123.22183594 52.11179688 124.1409375 52.83882812 125.08789062 53.58789062 C132.48590363 59.50630103 139.42566063 65.87714142 146.30273438 72.38476562 C146.98335938 73.02285156 147.66398437 73.6609375 148.36523438 74.31835938 C152.60902321 78.41479443 156.29583809 82.91382541 159.98632812 87.50976562 C161.47768816 89.36076222 162.98935184 91.19567412 164.52539062 93.00976562 C206.28695292 142.50495056 223.61368249 208.66453652 218.99414062 272.51367188 C218.59485757 276.83106859 217.97628273 281.10279177 217.30273438 285.38476562 C217.109375 286.69936768 217.109375 286.69936768 216.91210938 288.04052734 C210.2771302 332.71144617 191.44163564 375.7790031 162.30273438 410.38476562 C161.86880371 410.90748047 161.43487305 411.43019531 160.98779297 411.96875 C150.70695879 424.34101974 139.92337354 435.37592299 127.30273438 445.38476562 C126.44292969 446.11179687 125.583125 446.83882812 124.69726562 447.58789062 C112.59002984 457.81734243 99.2399184 465.9163313 85.30273438 473.38476562 C84.68382324 473.72217773 84.06491211 474.05958984 83.42724609 474.40722656 C71.22596423 481.01907637 58.36897903 485.77219304 45.30273438 490.38476562 C44.56555176 490.64918457 43.82836914 490.91360352 43.06884766 491.18603516 C-17.35009335 512.61636695 -86.97647323 504.28315004 -143.99023438 477.20898438 C-161.41944447 468.71590028 -177.86911565 457.87043179 -192.69726562 445.38476562 C-193.21998047 444.95083496 -193.74269531 444.5169043 -194.28125 444.06982422 C-206.65351974 433.78899004 -217.68842299 423.00540479 -227.69726562 410.38476562 C-228.42429688 409.52496094 -229.15132812 408.66515625 -229.90039062 407.77929688 C-240.1261704 395.67640717 -248.24520424 382.3262309 -255.69726562 368.38476562 C-256.03999512 367.74990234 -256.38272461 367.11503906 -256.73583984 366.4609375 C-269.6715561 342.3109646 -277.87939229 315.83801778 -282.32226562 288.88476562 C-282.44561279 288.15 -282.56895996 287.41523438 -282.69604492 286.65820312 C-284.66482844 274.14518735 -284.96705353 261.46749632 -285.00976562 248.82226562 C-285.01238403 248.0696344 -285.01500244 247.31700317 -285.0177002 246.54156494 C-285.0233342 231.24241501 -283.45033008 216.45104098 -280.69726562 201.38476562 C-280.55305176 200.57523438 -280.40883789 199.76570312 -280.26025391 198.93164062 C-272.33723413 156.21455943 -250.47688446 113.90553152 -220.69726562 82.38476562 C-219.54596805 81.05614766 -218.39996685 79.72291845 -217.25976562 78.38476562 C-210.58673089 70.76063169 -203.38708092 63.90977572 -195.46679688 57.59570312 C-193.65207562 56.14699758 -191.85671337 54.67362575 -190.08398438 53.17382812 C-139.80635475 10.71716311 -65.30538226 -11.1012948 0 0 Z " fill="#1A8B55" transform="translate(352.697265625,69.615234375)"/>
<path d="M0 0 C0.639375 0.33 1.27875 0.66 1.9375 1 C7.4907743 2.81331406 13.07521814 2.13645088 18.8125 1.5 C20.05193359 1.38205078 20.05193359 1.38205078 21.31640625 1.26171875 C23.24502569 1.07362923 25.16956369 0.841791 27.08984375 0.58203125 C30.33426412 0.30531307 32.84022228 0.18735602 36 1 C38.8157385 3.99960202 40.45624927 7.20833155 42 11 C49.34591094 8.97565711 56.18566888 6.40716556 63 3 C65.8125 2.5625 65.8125 2.5625 69 3 C71.6875 5.8125 71.6875 5.8125 74 9 C74.53625 9.515625 75.0725 10.03125 75.625 10.5625 C78.39868252 13.46225899 80 15.96639676 80 20 C79.26136719 19.94199219 78.52273438 19.88398438 77.76171875 19.82421875 C69.61986611 19.46212873 64.10788309 21.11486677 57 25 C56.34 25.33 55.68 25.66 55 26 C52.2001773 35.95017565 52.15406623 46.97779429 51.375 57.25 C51.2400634 58.97790214 51.10465015 60.70576713 50.96875 62.43359375 C50.640344 66.62198835 50.31836665 70.81083083 50 75 C50.88042969 74.65066406 51.76085937 74.30132812 52.66796875 73.94140625 C53.82941406 73.48636719 54.99085938 73.03132813 56.1875 72.5625 C57.33605469 72.11003906 58.48460937 71.65757812 59.66796875 71.19140625 C62.47123233 70.18906699 65.07112576 69.47987205 68 69 C69.15454162 70.24196122 70.29832562 71.49392845 71.4375 72.75 C72.07558594 73.44609375 72.71367187 74.1421875 73.37109375 74.859375 C74.99081325 76.98792725 75.58267256 78.39023405 76 81 C76.66 81 77.32 81 78 81 C78 81.66 78 82.32 78 83 C76.85402344 83.38671875 75.70804687 83.7734375 74.52734375 84.171875 C72.99726814 84.69754515 71.46732735 85.22360779 69.9375 85.75 C69.18533203 86.00265625 68.43316406 86.2553125 67.65820312 86.515625 C63.95235853 87.79903438 60.60088595 89.14539934 57.25390625 91.203125 C53.92891355 93.03925542 52.64906031 93.17843816 49 93 C49.1204717 97.54925942 49.24479266 102.09839367 49.37231445 106.64746094 C49.41497699 108.18714721 49.45668147 109.7268604 49.49731445 111.26660156 C49.77781292 121.86321014 50.26611949 132.42491697 51 143 C63.29579315 137.0319557 63.29579315 137.0319557 75 130 C75.33 130.66 75.66 131.32 76 132 C74.625 133.5 74.625 133.5 73 135 C72.34 135 71.68 135 71 135 C70.67 135.66 70.34 136.32 70 137 C69.34 137 68.68 137 68 137 C68 137.66 68 138.32 68 139 C66.68 139.33 65.36 139.66 64 140 C66.49064888 140.68707555 68.37886292 141 71 141 C70.01 142.65 69.02 144.3 68 146 C69.32 145.34 70.64 144.68 72 144 C71.67 143.34 71.34 142.68 71 142 C72.91214732 137.69766852 75.88410571 135.20448088 79.4765625 132.33203125 C81.12972374 131.05635999 81.12972374 131.05635999 82 129 C80.02 129.99 80.02 129.99 78 131 C78 130.01 78 129.02 78 128 C80.5 125.8125 80.5 125.8125 83 124 C83.66 124.33 84.32 124.66 85 125 C84.505 126.485 84.505 126.485 84 128 C85.32 128 86.64 128 88 128 C88 129.65 88 131.3 88 133 C86.02 133.99 86.02 133.99 84 135 C84 134.34 84 133.68 84 133 C83.34 133 82.68 133 82 133 C82 133.66 82 134.32 82 135 C78.535 136.98 78.535 136.98 75 139 C76.32 139.33 77.64 139.66 79 140 C80.0625 142.5 80.0625 142.5 80 146 C75.07558083 152.08729405 67.41990432 157.80470124 59.6796875 159.51171875 C55.43219669 159.83567991 52.67813235 159.21062392 49.3125 156.5625 C39.45802343 146.82261037 37.08958748 136.01359556 36.87060547 122.57958984 C36.86421062 121.04005192 36.8632785 119.50048374 36.8671875 117.9609375 C36.86577759 117.12552429 36.86436768 116.29011108 36.86291504 115.42938232 C36.8607982 112.74454371 36.86703671 110.05982646 36.875 107.375 C36.8765509 106.45748962 36.87810181 105.53997925 36.87969971 104.59466553 C36.91388204 87.39719402 37.1008964 70.28892712 39.0625 53.1875 C39.78165261 46.87360643 40.26427533 40.60585823 40.375 34.25 C40.40086182 33.52321045 40.42672363 32.7964209 40.45336914 32.04760742 C40.47334879 26.51840123 38.96568077 23.47782631 36 19 C24.96128156 18.82614604 24.96128156 18.82614604 14 20 C11.87586172 22.12413828 12.62490922 26.73362831 12.5 29.6875 C12.43035784 31.29571806 12.3575045 32.90380066 12.28125 34.51171875 C12.25095703 35.22803467 12.22066406 35.94435059 12.18945312 36.68237305 C12 39 12 39 11.51586914 41.87524414 C10.53996621 47.78654634 10.29677345 53.77467588 9.9375 59.75 C9.89297699 60.48378876 9.84845398 61.21757751 9.80258179 61.97360229 C8.92410933 76.99854512 8.80724394 92.01508432 8.8125 107.0625 C8.81168427 108.18837524 8.81086853 109.31425049 8.81002808 110.47424316 C8.81029162 113.68211388 8.81905507 116.88981405 8.83203125 120.09765625 C8.83322968 121.07003738 8.8344281 122.04241852 8.83566284 123.04426575 C8.84195709 123.93337143 8.84825134 124.82247711 8.85473633 125.73852539 C8.85854813 126.51676163 8.86235992 127.29499786 8.86628723 128.09681702 C8.88391446 130.08735248 8.88391446 130.08735248 10 132 C10.14196886 133.91109109 10.22615956 135.82662248 10.28125 137.7421875 C10.33732422 139.46501953 10.33732422 139.46501953 10.39453125 141.22265625 C10.42933594 142.42792969 10.46414063 143.63320313 10.5 144.875 C10.56895359 147.24751433 10.64171114 149.61992195 10.71875 151.9921875 C10.74904297 153.04776855 10.77933594 154.10334961 10.81054688 155.19091797 C10.97357535 157.60819321 11.31295711 159.68644565 12 162 C6.41597317 160.93637584 4.3872589 158.41715998 1.296875 153.97265625 C0.65492188 152.99619141 0.65492188 152.99619141 0 152 C-0.66 151.01 -1.32 150.02 -2 149 C-2.70786172 145.37736404 -2.86512991 141.67873598 -3.125 138 C-3.20991699 136.82985352 -3.29483398 135.65970703 -3.38232422 134.45410156 C-4.70310329 113.01868105 -4.16528229 91.46420971 -4 70 C-2.515 70.495 -2.515 70.495 -1 71 C-1 69.35 -1 67.7 -1 66 C-0.01 65.505 -0.01 65.505 1 65 C1.33 66.32 1.66 67.64 2 69 C2.85373239 61.97195301 3.12109311 55.07721931 3 48 C2.96261719 48.91523438 2.92523438 49.83046875 2.88671875 50.7734375 C2.82097656 51.96195312 2.75523437 53.15046875 2.6875 54.375 C2.60048828 56.15003906 2.60048828 56.15003906 2.51171875 57.9609375 C2.34285156 58.96382813 2.17398438 59.96671875 2 61 C1.01 61.66 0.02 62.32 -1 63 C-1.125 55.25 -1.125 55.25 0 53 C-0.66 53 -1.32 53 -2 53 C-2 57.95 -2 62.9 -2 68 C-2.33 68 -2.66 68 -3 68 C-3.26372676 32.02766969 -3.26372676 32.02766969 -1 24 C-1.79664063 24.20496094 -2.59328125 24.40992188 -3.4140625 24.62109375 C-4.47367187 24.89050781 -5.53328125 25.15992188 -6.625 25.4375 C-7.66914063 25.70433594 -8.71328125 25.97117187 -9.7890625 26.24609375 C-12.84891124 26.96452539 -15.8948051 27.51976716 -19 28 C-19 28.66 -19 29.32 -19 30 C-22.03500987 29.66277668 -23.74658707 29.19548997 -26.1875 27.3125 C-28.86616125 23.89489772 -29.69797303 20.5856416 -30.5 16.375 C-30 14 -30 14 -27.5703125 12.01953125 C-23.47811901 9.43192755 -19.04094897 8.42873856 -14.375 7.3125 C-13.529375 7.10044922 -12.68375 6.88839844 -11.8125 6.66992188 C-9.54406186 6.10281234 -7.27261203 5.55008081 -5 5 C-3.66638042 4.66781374 -2.33295605 4.33483886 -1 4 C-0.67 2.68 -0.34 1.36 0 0 Z " fill="#EFF6F3" transform="translate(417,237)"/>
<path d="M0 0 C0.33 0.66 0.66 1.32 1 2 C3.56009424 3.5007449 6.04594592 4.63074324 9 5 C9.58007812 4.68289062 10.16015625 4.36578125 10.7578125 4.0390625 C15.20205626 1.9795349 20.21950926 2.48596874 25 3 C29.86007149 5.34003442 33.38784083 9.04382567 37 13 C37 13.66 37 14.32 37 15 C37.99 15.33 38.98 15.66 40 16 C45.94215226 24.21674466 48.18731503 33.2891226 46.65234375 43.2578125 C45.70186289 47.84248487 44.33676851 52.25112413 42.78125 56.6640625 C42.15784429 58.52804559 41.62712513 60.42294403 41.12890625 62.32421875 C39.94087893 66.19250148 38.35423359 69.64390775 36.4375 73.1875 C36.09033936 73.83388428 35.74317871 74.48026855 35.38549805 75.14624023 C30.59906452 83.81852026 24.45129597 91.50817242 18 99 C21.54809842 106.0620805 25.96607357 111.93491546 31 118 C32.29452961 119.62272021 33.58619913 121.24772618 34.875 122.875 C37.88835759 126.6461371 40.96264942 130.36245189 44.0625 134.0625 C45.70938016 136.04079568 47.35526 138.01992465 49 140 C50.10214844 141.31484375 50.10214844 141.31484375 51.2265625 142.65625 C51.87367188 143.4503125 52.52078125 144.244375 53.1875 145.0625 C53.75855469 145.75472656 54.32960937 146.44695312 54.91796875 147.16015625 C55.45357422 148.07087891 55.45357422 148.07087891 56 149 C55.67 149.99 55.34 150.98 55 152 C50.10738261 152.57560205 47.86695995 150.88126428 44 148 C42.93072266 147.24203125 42.93072266 147.24203125 41.83984375 146.46875 C37.57948034 143.40309168 37.57948034 143.40309168 36 142 C36 141.34 36 140.68 36 140 C35.44699219 139.78085937 34.89398438 139.56171875 34.32421875 139.3359375 C31.22601234 137.5551197 29.21054716 135.26745669 26.8125 132.625 C25.49185547 131.19027344 25.49185547 131.19027344 24.14453125 129.7265625 C22.23031995 127.29282937 21.36380486 126.01030685 21 123 C20.34 123 19.68 123 19 123 C16.20716472 120.55626913 14.59762108 118.30935795 13 115 C12.34 114.67 11.68 114.34 11 114 C11.15919922 115.010625 11.31839844 116.02125 11.48242188 117.0625 C11.96592518 120.74077418 12.18575138 124.29384097 12.28125 128 C12.31863281 129.299375 12.35601562 130.59875 12.39453125 131.9375 C12.44802729 133.97133124 12.50013312 136.00519541 12.55224609 138.0390625 C12.60451209 140.0261294 12.66158628 142.01306796 12.71875 144 C12.74904297 145.175625 12.77933594 146.35125 12.81054688 147.5625 C13.00488289 151.08859681 13.45071621 154.51304863 14 158 C9.79303449 157.50846451 8.05496274 156.50511456 5.375 153.25 C4.80523437 152.57453125 4.23546875 151.8990625 3.6484375 151.203125 C0.4555348 146.93583325 -1.37599469 143.98311606 -1.36749268 138.55763245 C-1.37306183 137.47715134 -1.37863098 136.39667023 -1.3843689 135.28344727 C-1.37515411 134.10782227 -1.36593933 132.93219727 -1.35644531 131.72094727 C-1.35848969 130.47474106 -1.36053406 129.22853485 -1.36264038 127.94456482 C-1.36513192 124.53059959 -1.35424648 121.11717995 -1.33711338 117.70329022 C-1.3220286 114.11705618 -1.32324999 110.53082528 -1.32244873 106.94456482 C-1.31875663 100.91294232 -1.30380311 94.88143362 -1.28125 88.84985352 C-1.2525023 81.14670897 -1.24203617 73.44365659 -1.2375679 65.74046421 C-1.2335597 59.08187533 -1.22105398 52.42330587 -1.20722103 45.76473117 C-1.20315416 43.64410939 -1.20021209 41.52348826 -1.19742584 39.40286446 C-1.19153634 35.41640963 -1.17681633 31.43003184 -1.16113281 27.44360352 C-1.16001495 26.28619659 -1.15889709 25.12878967 -1.15774536 23.93630981 C-1.11637207 15.92371981 -0.6569742 7.98497578 0 0 Z " fill="#F2F8F5" transform="translate(189,240)"/>
<path d="M0 0 C3.11963955 1.36018991 5.00834822 2.83260134 7.1875 5.4375 C7.69667969 6.03433594 8.20585937 6.63117188 8.73046875 7.24609375 C11.88554459 11.60495238 11.1910266 16.67996769 11.1875 21.8125 C11.18814453 22.7821167 11.18878906 23.7517334 11.18945312 24.75073242 C11.13296792 32.71835521 10.56096423 40.58142545 9.71166992 48.5012207 C9.12327379 54.03989879 8.90986588 59.42858459 9 65 C12.60992379 64.34414811 12.60992379 64.34414811 16 63 C16 64.65 16 66.3 16 68 C18.8103913 63.12444476 21.53646117 58.21385882 24.1875 53.25 C24.54263672 52.59128906 24.89777344 51.93257813 25.26367188 51.25390625 C26.7212475 48.52682928 28.02012898 45.93961305 29 43 C28.60167969 43.66386719 28.20335937 44.32773437 27.79296875 45.01171875 C23.89648438 51.50585938 23.89648438 51.50585938 20 58 C19.34 57.34 18.68 56.68 18 56 C18 55.01 18 54.02 18 53 C17.814375 51.989375 17.62875 50.97875 17.4375 49.9375 C17 47 17 47 18 45 C18.66 45 19.32 45 20 45 C20.33 44.34 20.66 43.68 21 43 C21.66 43 22.32 43 23 43 C23.66 40.03 24.32 37.06 25 34 C25.99 34 26.98 34 28 34 C28 32.35 28 30.7 28 29 C28.66 28.67 29.32 28.34 30 28 C30.34740923 26.00239695 30.67966043 24.00212229 31 22 C31.66 21.01 32.32 20.02 33 19 C33.66 19 34.32 19 35 19 C35.185625 18.1028125 35.185625 18.1028125 35.375 17.1875 C36 15 36 15 38 12 C38.66 12 39.32 12 40 12 C40.25394531 12.51949219 40.50789063 13.03898438 40.76953125 13.57421875 C42.31514904 16.70597614 43.80956299 19.71434448 45.75 22.625 C47.45198031 25.85876258 47.70966479 27.38070959 47 31 C45.47013065 32.93783451 43.77802236 34.67028386 42.07421875 36.45703125 C39.04530784 40.1704418 36.99713523 44.28224677 34.84179688 48.54467773 C33.3418051 51.50484191 31.83324655 54.24819867 29.9765625 57.01171875 C27.82137318 60.27005834 26.16386346 63.63801029 24.5625 67.1875 C24.2639209 67.84024902 23.9653418 68.49299805 23.65771484 69.16552734 C23.05484002 70.48461875 22.45389521 71.80459414 21.85498047 73.12548828 C21.07375637 74.838292 20.27414323 76.54267768 19.47265625 78.24609375 C19.02792969 79.19613281 18.58320313 80.14617187 18.125 81.125 C17.73570312 81.95257813 17.34640625 82.78015625 16.9453125 83.6328125 C15.94649224 86.1339905 15.27269039 88.31707838 15 91 C15.66 91.99 16.32 92.98 17 94 C17 94.99 17 95.98 17 97 C16.34 97 15.68 97 15 97 C14.34 95.68 13.68 94.36 13 93 C14.32 96.3 15.64 99.6 17 103 C17 101.68 17 100.36 17 99 C17.66 99 18.32 99 19 99 C19.99 101.97 20.98 104.94 22 108 C21.01 108.495 21.01 108.495 20 109 C21.32 110.65 22.64 112.3 24 114 C23.67 112.35 23.34 110.7 23 109 C25.71369243 111.5327796 27.39355503 113.68670725 29 117 C29.70125 117.78375 30.4025 118.5675 31.125 119.375 C33.38661443 122.54126021 33.33838989 124.19311379 33 128 C33 130.58926331 33.82653618 131.20051661 35.5 133.125 C36.325 134.07375 37.15 135.0225 38 136 C35.9375 133.75 35.9375 133.75 34 131 C34.25 128.6875 34.25 128.6875 35 127 C35.66 127 36.32 127 37 127 C37.763125 127.804375 38.52625 128.60875 39.3125 129.4375 C43.21367251 133.15722263 45.74645137 133 51 133 C49.16490101 138.67212414 45.97304587 142.68463608 41 146 C38.26711882 146.31232928 36.6011733 146.31453793 34.1484375 145.03125 C22.21735578 134.72952305 15.14224717 120.22044617 9 106 C8.74954257 125.22742387 9.21293487 143.94250063 12 163 C8.75728494 162.4409112 7.06942576 161.5867822 5 159 C5 158.34 5 157.68 5 157 C4.01 156.67 3.02 156.34 2 156 C-20.80189099 129.05231065 -5.12494041 48.78628419 -2.48730469 16.65771484 C-2.31359676 14.62973234 -2.1382021 12.60189346 -1.9609375 10.57421875 C-1.88026031 9.62505081 -1.79958313 8.67588287 -1.71646118 7.69795227 C-1.59843643 6.39859993 -1.59843643 6.39859993 -1.47802734 5.07299805 C-1.40981781 4.30811569 -1.34160828 3.54323334 -1.27133179 2.75517273 C-1 1 -1 1 0 0 Z " fill="#F0F7F4" transform="translate(130,238)"/>
<path d="M0 0 C1.43060712 0.95373808 2.8592356 1.91058705 4.27734375 2.8828125 C6.19543423 4.16903627 6.19543423 4.16903627 9.1875 5.625 C15.20795615 10.70894075 15.51588186 20.19380674 16.28125 27.6796875 C16.43068054 29.01895798 16.43068054 29.01895798 16.58312988 30.38528442 C16.89751065 33.21431078 17.19957072 36.04446117 17.5 38.875 C18.2982721 46.25418089 19.12002884 53.63007854 20 61 C20.16701416 62.40505798 20.16701416 62.40505798 20.33740234 63.83850098 C20.67384504 66.58544406 21.0356517 69.32779035 21.40625 72.0703125 C21.55604309 73.31009354 21.55604309 73.31009354 21.7088623 74.57492065 C22.41965305 79.58160685 23.62821001 82.0934176 27 86 C26.505 87.485 26.505 87.485 26 89 C25.34 89 24.68 89 24 89 C24.30811738 91.45895618 24.62128988 93.91708307 24.9375 96.375 C25.06801758 97.42300781 25.06801758 97.42300781 25.20117188 98.4921875 C25.66318128 102.36783575 25.66318128 102.36783575 27 106 C27.32438738 108.58330315 27.61100307 111.16051725 27.875 113.75 C28.60753392 120.47696118 29.76902042 126.97044774 31.26953125 133.57421875 C32.91868987 141.30850812 34.15504697 149.08067808 34 157 C31.5625 156.1875 31.5625 156.1875 29 155 C28.67 154.01 28.34 153.02 28 152 C27.401875 151.71125 26.80375 151.4225 26.1875 151.125 C23.08862959 149.53129522 21.91370194 147.94762735 20 145 C19.01262207 141.67365381 18.51093661 138.30287255 18 134.875 C17.84047852 133.88395264 17.68095703 132.89290527 17.51660156 131.87182617 C16.99351973 128.58370115 16.49565496 125.29236471 16 122 C15.61992222 119.54034441 15.23971132 117.08070938 14.859375 114.62109375 C14.14126187 109.91159313 13.42655559 105.20166823 12.734375 100.48828125 C12.52119629 99.04255737 12.52119629 99.04255737 12.30371094 97.56762695 C12 95 12 95 12 91 C7.62297367 92.22556737 3.30322683 93.53060547 -1 95 C-1 95.99 -1 96.98 -1 98 C-2.98 98.495 -2.98 98.495 -5 99 C-5.66 103.95 -6.32 108.9 -7 114 C-6.34 114 -5.68 114 -5 114 C-5 114.99 -5 115.98 -5 117 C-4.01 116.505 -4.01 116.505 -3 116 C-3.11026156 120.37550142 -3.24080284 124.75017242 -3.375 129.125 C-3.4059375 130.3625 -3.436875 131.6 -3.46875 132.875 C-3.52675781 134.67324219 -3.52675781 134.67324219 -3.5859375 136.5078125 C-3.6173584 137.60754395 -3.6487793 138.70727539 -3.68115234 139.84033203 C-4.01436543 143.14235634 -4.83646571 145.90132447 -6 149 C-10.06475152 147.17787001 -12.31065792 145.59954876 -14.10107422 141.44506836 C-15.21820768 137.16373476 -15.05390601 133.5106104 -14.7578125 129.12890625 C-14.71059052 128.2883519 -14.66336853 127.44779755 -14.61471558 126.58177185 C-14.46237913 123.90791204 -14.29423717 121.23533829 -14.125 118.5625 C-13.96626094 115.89312662 -13.81078921 113.22358582 -13.65670776 110.55393982 C-13.55999113 108.89753611 -13.46001814 107.24131817 -13.35623169 105.58534241 C-12.95033244 98.9428632 -12.71783303 92.57110572 -14 86 C-13.01 85.505 -13.01 85.505 -12 85 C-11.41241397 82.7109973 -10.98817213 80.51723867 -10.625 78.1875 C-10.439375 77.04244995 -10.439375 77.04244995 -10.25 75.87426758 C-8.6463214 65.43758229 -7.61930905 54.92061999 -6.48535156 44.42504883 C-5.56076314 35.89133411 -4.59565515 27.37269888 -3.375 18.875 C-3.26414062 18.09664795 -3.15328125 17.3182959 -3.0390625 16.51635742 C-2.21642705 10.97152519 -1.13872676 5.48789143 0 0 Z " fill="#F7FAF8" transform="translate(364,241)"/>
<path d="M0 0 C2.265625 1.828125 2.265625 1.828125 4.25 4.25 C4.91515625 5.03890625 5.5803125 5.8278125 6.265625 6.640625 C8.66649051 9.90666727 10 11.9044259 10 16 C9.27296875 16.00257813 8.5459375 16.00515625 7.796875 16.0078125 C-0.13857376 16.31302207 -9.11768559 18.11768559 -15 24 C-18.16979713 39.52705311 -18.14274331 55.23479449 -18 71 C-17.10796875 70.62746094 -16.2159375 70.25492187 -15.296875 69.87109375 C-13.54117187 69.16146484 -13.54117187 69.16146484 -11.75 68.4375 C-10.58984375 67.96183594 -9.4296875 67.48617187 -8.234375 66.99609375 C-5.13733356 66.04229476 -3.92678299 65.79016644 -1 67 C-1 67.66 -1 68.32 -1 69 C-0.01 69 0.98 69 2 69 C2.433125 69.9590625 2.433125 69.9590625 2.875 70.9375 C3.82823451 73.15206079 3.82823451 73.15206079 6 74 C6.72693904 75.97888961 7.39816251 77.97954558 8 80 C6.865625 80.38671875 5.73125 80.7734375 4.5625 81.171875 C3.04156737 81.69762949 1.52073961 82.22368746 0 82.75 C-0.74378906 83.00265625 -1.48757813 83.2553125 -2.25390625 83.515625 C-6.78708361 85.09238234 -10.97818132 86.90505785 -15.17578125 89.23925781 C-17 90 -17 90 -21 90 C-20.88204571 94.82398914 -20.75781982 99.64775958 -20.62768555 104.47143555 C-20.58427703 106.11364303 -20.54260642 107.75589739 -20.50268555 109.39819336 C-20.4451256 111.75388745 -20.38139108 114.10934428 -20.31640625 116.46484375 C-20.29969376 117.20339096 -20.28298126 117.94193817 -20.26576233 118.7028656 C-20.46451987 122.14300627 -20.46451987 122.14300627 -19 125 C-18.92686433 127.53049402 -18.90752473 130.03304837 -18.9375 132.5625 C-18.94201172 133.27341797 -18.94652344 133.98433594 -18.95117188 134.71679688 C-18.96299136 136.47790013 -18.98092737 138.23896036 -19 140 C-17.66553485 139.41926054 -16.33250545 138.83522199 -15 138.25 C-14.2575 137.92515625 -13.515 137.6003125 -12.75 137.265625 C-5.88707763 134.10712095 0.31917573 130.6109149 6.5 126.25 C7.22703125 125.74339844 7.9540625 125.23679687 8.703125 124.71484375 C10.47203595 123.48126111 12.23649663 122.24130092 14 121 C14.268125 121.639375 14.53625 122.27875 14.8125 122.9375 C15.88667752 125.33131686 15.88667752 125.33131686 19 126 C19 127.32 19 128.64 19 130 C17.46875 131.484375 17.46875 131.484375 15.5 132.75 C14.8503125 133.17796875 14.200625 133.6059375 13.53125 134.046875 C13.0259375 134.36140625 12.520625 134.6759375 12 135 C11.67 134.34 11.34 133.68 11 133 C11.33 132.67 11.66 132.34 12 132 C8.37206002 133.86566488 8.37206002 133.86566488 6 137 C6.99 137 7.98 137 9 137 C8.67 138.65 8.34 140.3 8 142 C8.66 142 9.32 142 10 142 C8.07455455 147.77633635 1.15285447 151.13730307 -4 154 C-4.8971875 154.5878125 -4.8971875 154.5878125 -5.8125 155.1875 C-9.31179835 156.48723939 -12.39173928 156.83974068 -16 156 C-23.14092557 151.72079367 -29.14860824 143.99286349 -31.3125 135.9375 C-32.5405572 128.90408148 -33.16607975 122.18739948 -33.125 115.0625 C-33.12089111 114.14847412 -33.11678223 113.23444824 -33.11254883 112.29272461 C-33.08720569 108.86159045 -33.04498297 105.43093433 -33 102 C-32.99139954 101.27506348 -32.98279907 100.55012695 -32.97393799 99.80322266 C-32.71629029 78.42684737 -31.99989213 57.27687703 -29.62109375 36.0234375 C-28.74603354 27.94340785 -28.32320588 23.93975901 -33 17 C-33.125 14.375 -33.125 14.375 -32 12 C-27.99388579 8.61021105 -23.53382744 6.86675379 -18.65625 5.015625 C-16.87114712 4.33308566 -15.09982916 3.61345605 -13.34375 2.859375 C-12.4878125 2.49328125 -11.631875 2.1271875 -10.75 1.75 C-9.59757812 1.24726563 -9.59757812 1.24726563 -8.421875 0.734375 C-5.38678338 -0.1859431 -3.15583531 -0.39863183 0 0 Z " fill="#F0F7F3" transform="translate(278,240)"/>
<path d="M0 0 C0.66 0 1.32 0 2 0 C2.25394531 0.51949219 2.50789063 1.03898438 2.76953125 1.57421875 C4.31514904 4.70597614 5.80956299 7.71434448 7.75 10.625 C9.45198031 13.85876258 9.70966479 15.38070959 9 19 C7.47013065 20.93783451 5.77802236 22.67028386 4.07421875 24.45703125 C1.04530784 28.1704418 -1.00286477 32.28224677 -3.15820312 36.54467773 C-4.6581949 39.50484191 -6.16675345 42.24819867 -8.0234375 45.01171875 C-10.17862682 48.27005834 -11.83613654 51.63801029 -13.4375 55.1875 C-13.7360791 55.84024902 -14.0346582 56.49299805 -14.34228516 57.16552734 C-14.94515998 58.48461875 -15.54610479 59.80459414 -16.14501953 61.12548828 C-16.92624363 62.838292 -17.72585677 64.54267768 -18.52734375 66.24609375 C-19.19443359 67.67115234 -19.19443359 67.67115234 -19.875 69.125 C-20.26429688 69.95257813 -20.65359375 70.78015625 -21.0546875 71.6328125 C-22.05350776 74.1339905 -22.72730961 76.31707838 -23 79 C-22.34 79.99 -21.68 80.98 -21 82 C-21 82.99 -21 83.98 -21 85 C-21.66 85 -22.32 85 -23 85 C-23.66 83.68 -24.32 82.36 -25 81 C-23.68 84.3 -22.36 87.6 -21 91 C-21 89.68 -21 88.36 -21 87 C-20.34 87 -19.68 87 -19 87 C-18.01 89.97 -17.02 92.94 -16 96 C-16.99 96.495 -16.99 96.495 -18 97 C-16.68 98.65 -15.36 100.3 -14 102 C-14.33 100.35 -14.66 98.7 -15 97 C-12.28630757 99.5327796 -10.60644497 101.68670725 -9 105 C-8.29875 105.78375 -7.5975 106.5675 -6.875 107.375 C-4.61338557 110.54126021 -4.66161011 112.19311379 -5 116 C-5 118.58926331 -4.17346382 119.20051661 -2.5 121.125 C-1.675 122.07375 -0.85 123.0225 0 124 C-2.0625 121.75 -2.0625 121.75 -4 119 C-3.75 116.6875 -3.75 116.6875 -3 115 C-2.34 115 -1.68 115 -1 115 C-0.236875 115.804375 0.52625 116.60875 1.3125 117.4375 C5.21367251 121.15722263 7.74645137 121 13 121 C11.16490101 126.67212414 7.97304587 130.68463608 3 134 C0.26711882 134.31232928 -1.3988267 134.31453793 -3.8515625 133.03125 C-8.68098124 128.8613554 -12.30980079 124.0833986 -15.9375 118.875 C-16.42234863 118.18212891 -16.90719727 117.48925781 -17.40673828 116.77539062 C-19.79619285 113.23079182 -21.60067945 110.36703751 -22 106 C-20.35 106.33 -18.7 106.66 -17 107 C-18.00423142 103.98730575 -19.27921223 101.38173398 -20.72265625 98.5546875 C-21.26083984 97.47703125 -21.79902344 96.399375 -22.35351562 95.2890625 C-23.48425712 93.03016407 -24.62733153 90.77739321 -25.78320312 88.53125 C-29.89454566 80.21972439 -31.36869317 74.17868603 -29 65 C-29.66 64.67 -30.32 64.34 -31 64 C-30.34 62.35 -29.68 60.7 -29 59 C-28.34 59 -27.68 59 -27 59 C-26.67 59.66 -26.34 60.32 -26 61 C-24.70161824 59.2758698 -23.41156253 57.54546768 -22.125 55.8125 C-21.40570313 54.84957031 -20.68640625 53.88664062 -19.9453125 52.89453125 C-18.1544142 50.22976089 -17.14162861 47.97515336 -16 45 C-14.51491391 42.03238454 -12.94367619 39.11161047 -11.375 36.1875 C-10.95476562 35.39923828 -10.53453125 34.61097656 -10.1015625 33.79882812 C-9.0699991 31.86464674 -8.03608828 29.93176017 -7 28 C-7.37511719 28.6290625 -7.75023437 29.258125 -8.13671875 29.90625 C-11.36681724 35.3087321 -14.64622701 40.67341936 -18 46 C-18.66 45.34 -19.32 44.68 -20 44 C-20 43.01 -20 42.02 -20 41 C-20.185625 39.989375 -20.37125 38.97875 -20.5625 37.9375 C-21 35 -21 35 -20 33 C-19.34 33 -18.68 33 -18 33 C-17.67 32.34 -17.34 31.68 -17 31 C-16.34 31 -15.68 31 -15 31 C-14.34 28.03 -13.68 25.06 -13 22 C-12.01 22 -11.02 22 -10 22 C-10 20.35 -10 18.7 -10 17 C-9.34 16.67 -8.68 16.34 -8 16 C-7.65259077 14.00239695 -7.32033957 12.00212229 -7 10 C-6.34 9.01 -5.68 8.02 -5 7 C-4.34 7 -3.68 7 -3 7 C-2.87625 6.401875 -2.7525 5.80375 -2.625 5.1875 C-2 3 -2 3 0 0 Z " fill="#EAF3EE" transform="translate(168,250)"/>
<path d="M0 0 C-0.433125 1.2375 -0.86625 2.475 -1.3125 3.75 C-2.59595226 7.52872224 -3.52354566 11.29027184 -4.375 15.1875 C-5.87409559 21.3166148 -7.71308132 24.99132748 -13.25 28.375 C-17.17764842 29.26764737 -20.99088245 29.1572203 -25 29 C-24.7834375 29.71542969 -24.566875 30.43085938 -24.34375 31.16796875 C-19.31782636 49.15426031 -19.31782636 49.15426031 -23.29296875 56.3359375 C-25 58 -25 58 -28.6875 58.625 C-33.9130538 58.41171209 -37.23722664 55.36247832 -41 52 C-40.67 50.02 -40.34 48.04 -40 46 C-39.34 46 -38.68 46 -38 46 C-38 45.34 -38 44.68 -38 44 C-36.35 44.33 -34.7 44.66 -33 45 C-31.14032031 34.77850266 -31.14032031 34.77850266 -33.625 25.125 C-37.12616977 21.99237441 -40.23566304 20 -45 20 C-44.46890625 20.23074219 -43.9378125 20.46148437 -43.390625 20.69921875 C-38.88635202 22.77874624 -35.56021861 24.54744589 -33 29 C-33.0625 31.25 -33.0625 31.25 -34 33 C-38.08403411 34.3613447 -41.73318818 34.63157628 -46 34 C-48.5705065 32.35487584 -50.01031498 31.18290902 -52 29 C-52.64582031 28.33742187 -53.29164063 27.67484375 -53.95703125 26.9921875 C-57.68794017 23.00372077 -57.68794017 23.00372077 -59 21 C-58 18 -58 18 -55.80859375 16.83203125 C-49.74130372 15.03462822 -43.27343418 15.1376629 -37.375 17.375 C-35 19 -35 19 -33 21 C-32.8040625 20.28714844 -32.608125 19.57429688 -32.40625 18.83984375 C-29.85648934 10.67401542 -26.50267196 6.25954454 -19.16015625 1.91015625 C-13.10113401 -0.86956431 -6.52050356 -0.26837438 0 0 Z " fill="#F4F9F6" transform="translate(352,208)"/>
<path d="M0 0 C0 6.6 0 13.2 0 20 C0.66 18.02 1.32 16.04 2 14 C2.33 14 2.66 14 3 14 C3.18313548 19.80801106 2.62521463 24.86572513 1.25 30.5 C1.01410156 31.56154297 1.01410156 31.56154297 0.7734375 32.64453125 C-0.46597093 37.85958056 -2.44018951 42.30643989 -5 47 C-5.53681396 48.01296143 -5.53681396 48.01296143 -6.08447266 49.04638672 C-7.18306406 51.10447643 -8.30685451 53.14687041 -9.4375 55.1875 C-9.80681641 55.87263672 -10.17613281 56.55777344 -10.55664062 57.26367188 C-12.92250534 61.52386847 -15.389367 64.72050089 -19 68 C-19.66 67.67 -20.32 67.34 -21 67 C-19.82744291 63.66272214 -18.81131596 61.22562513 -16 59 C-15.34 59 -14.68 59 -14 59 C-13.67 58.01 -13.34 57.02 -13 56 C-13.99 56.495 -13.99 56.495 -15 57 C-13.58192622 52.52761347 -11.88695626 48.28853694 -10 44 C-9.01 44.33 -8.02 44.66 -7 45 C-6.67 44.34 -6.34 43.68 -6 43 C-6.66 42.67 -7.32 42.34 -8 42 C-7.34 40.35 -6.68 38.7 -6 37 C-7.55459019 38.55459019 -8.36757143 40.4659975 -9.3984375 42.40234375 C-9.87796875 43.29244141 -10.3575 44.18253906 -10.8515625 45.09960938 C-11.86381473 46.98525359 -12.87166253 48.87326911 -13.875 50.76367188 C-14.35710937 51.65505859 -14.83921875 52.54644531 -15.3359375 53.46484375 C-15.99408447 54.69642212 -15.99408447 54.69642212 -16.66552734 55.95288086 C-18 58 -18 58 -21 60 C-21.09265712 52.48967858 -21.16374292 44.97941636 -21.20724869 37.46865368 C-21.228129 33.98109444 -21.25645318 30.49392606 -21.30175781 27.0065918 C-21.35351062 22.99784583 -21.37294136 18.98951078 -21.390625 14.98046875 C-21.41127014 13.72727341 -21.43191528 12.47407806 -21.45318604 11.1829071 C-21.45348816 10.02193008 -21.45379028 8.86095306 -21.45410156 7.66479492 C-21.46298401 6.64109299 -21.47186646 5.61739105 -21.48101807 4.56266785 C-21 2 -21 2 -19.10443115 0.22798157 C-18.06273773 -0.37986931 -18.06273773 -0.37986931 -17 -1 C-16.29875 -1.433125 -15.5975 -1.86625 -14.875 -2.3125 C-9.99304448 -3.47992415 -4.48152236 -2.24076118 0 0 Z " fill="#198A54" transform="translate(222,257)"/>
<path d="M0 0 C3 3.75 3 3.75 3 6 C3.66 6 4.32 6 5 6 C5 4.68 5 3.36 5 2 C5.66 2 6.32 2 7 2 C7.99 4.97 8.98 7.94 10 11 C9.01 11.495 9.01 11.495 8 12 C9.32 13.65 10.64 15.3 12 17 C11.67 15.35 11.34 13.7 11 12 C13.71369243 14.5327796 15.39355503 16.68670725 17 20 C17.70125 20.78375 18.4025 21.5675 19.125 22.375 C21.38661443 25.54126021 21.33838989 27.19311379 21 31 C21 33.58926331 21.82653618 34.20051661 23.5 36.125 C24.325 37.07375 25.15 38.0225 26 39 C23.9375 36.75 23.9375 36.75 22 34 C22.25 31.6875 22.25 31.6875 23 30 C23.66 30 24.32 30 25 30 C25.763125 30.804375 26.52625 31.60875 27.3125 32.4375 C31.21367251 36.15722263 33.74645137 36 39 36 C37.16490101 41.67212414 33.97304587 45.68463608 29 49 C26.26711882 49.31232928 24.6011733 49.31453793 22.1484375 48.03125 C17.31901876 43.8613554 13.69019921 39.0833986 10.0625 33.875 C9.57765137 33.18212891 9.09280273 32.48925781 8.59326172 31.77539062 C6.20380715 28.23079182 4.39932055 25.36703751 4 21 C5.65 21.33 7.3 21.66 9 22 C8.19055526 19.57166579 7.32200958 17.56557058 6.15234375 15.3125 C5.79462891 14.61382812 5.43691406 13.91515625 5.06835938 13.1953125 C4.31363228 11.73017735 3.55580971 10.26663268 2.79492188 8.8046875 C2.43849609 8.10601562 2.08207031 7.40734375 1.71484375 6.6875 C1.22165649 5.73423828 1.22165649 5.73423828 0.71850586 4.76171875 C0 3 0 3 0 0 Z " fill="#F0F7F3" transform="translate(142,335)"/>
<path d="M0 0 C1.32 0.33 2.64 0.66 4 1 C4 6.28 4 11.56 4 17 C4.66 17 5.32 17 6 17 C6 17.99 6 18.98 6 20 C6.66 19.67 7.32 19.34 8 19 C7.88973844 23.37550142 7.75919716 27.75017242 7.625 32.125 C7.57859375 33.98125 7.57859375 33.98125 7.53125 35.875 C7.47324219 37.67324219 7.47324219 37.67324219 7.4140625 39.5078125 C7.3826416 40.60754395 7.3512207 41.70727539 7.31884766 42.84033203 C6.98563457 46.14235634 6.16353429 48.90132447 5 52 C0.94184869 50.18082872 -1.30852793 48.60399355 -3.09667969 44.45605469 C-4.22686218 40.13203755 -4.0877283 36.38432253 -3.828125 31.953125 C-3.78564636 31.10071228 -3.74316772 30.24829956 -3.69940186 29.37005615 C-3.6072726 27.57795106 -3.50945081 25.78613052 -3.40625 23.99462891 C-3.24975544 21.24570407 -3.11582854 18.49631769 -2.984375 15.74609375 C-2.89196406 14.00253268 -2.79825946 12.25903959 -2.703125 10.515625 C-2.6634259 9.6916925 -2.62372681 8.86776001 -2.58282471 8.01885986 C-2.23043805 2.23043805 -2.23043805 2.23043805 0 0 Z " fill="#F2F8F4" transform="translate(353,338)"/>
<path d="M0 0 C1.57211639 4.94093724 0.13411809 9.07430369 -1 14 C-1.31130859 15.57394531 -1.31130859 15.57394531 -1.62890625 17.1796875 C-3.3507046 25.22786493 -3.3507046 25.22786493 -6.3125 28.75 C-9.60906793 30.28328741 -11.40118867 30.58756103 -15 30 C-18.375 28 -18.375 28 -21 26 C-20.505 24.515 -20.505 24.515 -20 23 C-19.29875 23.495 -18.5975 23.99 -17.875 24.5 C-14.53124015 26.24457036 -12.71451163 26.64600202 -9 26 C-6.29748957 23.02723853 -6.01043887 21.21225709 -5.8125 17.1875 C-5.874375 16.135625 -5.93625 15.08375 -6 14 C-7.3303125 15.0209375 -7.3303125 15.0209375 -8.6875 16.0625 C-12 18 -12 18 -14.8125 17.8125 C-17 17 -17 17 -18 16 C-18 9.9873564 -15.93280041 6.98612247 -11.8359375 2.671875 C-7.89821016 -0.91397033 -5.0673988 -1.44782823 0 0 Z " fill="#80EF0F" transform="translate(326,417)"/>
<path d="M0 0 C0.33 0.99 0.66 1.98 1 3 C1.66 3 2.32 3 3 3 C3 5.31 3 7.62 3 10 C3.66 7.69 4.32 5.38 5 3 C5.99 3 6.98 3 8 3 C7.34 9.27 6.68 15.54 6 22 C5.01 22 4.02 22 3 22 C2.87625 20.576875 2.87625 20.576875 2.75 19.125 C2.34925077 15.89538209 2.34925077 15.89538209 -0.0625 14.625 C-0.701875 14.41875 -1.34125 14.2125 -2 14 C-2 15.65 -2 17.3 -2 19 C-6.55426184 21.66590937 -9.73946963 22.31563182 -15 22 C-15 21.01 -15 20.02 -15 19 C-12.03 18.67 -9.06 18.34 -6 18 C-6.73399412 14.7057621 -6.73399412 14.7057621 -10.0625 13.1875 C-13 11 -13 11 -13.8125 8.0625 C-12.77885595 4.16645704 -11.28072381 3.02111314 -7.95703125 0.90234375 C-5.22811582 -0.35589869 -2.95037471 -0.35980179 0 0 Z " fill="#1D8C54" transform="translate(450,414)"/>
<path d="M0 0 C0.66 0 1.32 0 2 0 C2.30091492 9.82988722 1.79885922 19.56759927 1.125 29.375 C1.04652832 30.57479492 0.96805664 31.77458984 0.88720703 33.01074219 C0.41755115 39.49577948 -0.05419399 45.77599799 -2 52 C-4.07373047 53.23583984 -4.07373047 53.23583984 -6 54 C-6.33 53.67 -6.66 53.34 -7 53 C-7.99 53.99 -8.98 54.98 -10 56 C-9.60285931 47.17929629 -9.10414128 38.55730987 -7.46875 29.86328125 C-6.79157909 25.72689559 -6.56331463 21.58114377 -6.34375 17.3984375 C-6 15 -6 15 -4 13 C-4 19.27 -4 25.54 -4 32 C-2.43150603 24.79020001 -1.47357193 17.72467827 -0.875 10.375 C-0.74544922 8.86873047 -0.74544922 8.86873047 -0.61328125 7.33203125 C-0.40382717 4.88840034 -0.19948243 2.44446159 0 0 Z " fill="#268A53" transform="translate(366,268)"/>
<path d="M0 0 C0.66 0.33 1.32 0.66 2 1 C2.02474682 5.91129185 2.04288223 10.82254727 2.05493164 15.73388672 C2.05995569 17.40414055 2.06677605 19.07438999 2.07543945 20.74462891 C2.08758946 23.14747196 2.09324763 25.55025679 2.09765625 27.953125 C2.10281754 28.69806213 2.10797882 29.44299927 2.11329651 30.21051025 C2.11366364 33.61502191 2.07330918 36.74664759 1 40 C0.34 40 -0.32 40 -1 40 C-1.33 38.35 -1.66 36.7 -2 35 C-1.98839844 35.66386719 -1.97679687 36.32773437 -1.96484375 37.01171875 C-1.87521968 45.78207381 -1.87521968 45.78207381 -3 50 C-3.33 50 -3.66 50 -4 50 C-4.33 47.69 -4.66 45.38 -5 43 C-5.33 43 -5.66 43 -6 43 C-6.24833558 28.83914098 -5.83607408 15.04924542 -4 1 C-3.34 1 -2.68 1 -2 1 C-1.67 3.64 -1.34 6.28 -1 9 C-0.67 6.03 -0.34 3.06 0 0 Z " fill="#AED5C1" transform="translate(194,281)"/>
<path d="M0 0 C2.4375 1.4375 2.4375 1.4375 4 4 C4.34965896 8.57115126 3.59176156 12.04093816 1.1875 15.9375 C-1.72174388 18.68050137 -3.58903958 19.82793166 -7.5625 20.3125 C-10.52718506 19.93241217 -11.1803457 19.31592366 -13 17 C-13.98269246 12.35213025 -13.38714752 8.7342453 -11.1875 4.5625 C-7.67675536 0.44991342 -5.34086932 -0.653984 0 0 Z " fill="#88F50A" transform="translate(476,416)"/>
<path d="M0 0 C0.99 0.66 1.98 1.32 3 2 C4.47689953 2.77516826 5.95626247 3.54565359 7.4375 4.3125 C11.16264741 6.37865028 13.85535807 8.19813476 16 12 C15.9375 14.25 15.9375 14.25 15 16 C10.91596589 17.3613447 7.26681182 17.63157628 3 17 C0.4294935 15.35487584 -1.01031498 14.18290902 -3 12 C-3.64582031 11.33742187 -4.29164063 10.67484375 -4.95703125 9.9921875 C-8.68794017 6.00372077 -8.68794017 6.00372077 -10 4 C-9 1 -9 1 -6.6875 -0.25 C-3.83379267 -1.04638344 -2.70614243 -1.08245697 0 0 Z " fill="#F6FAF8" transform="translate(303,225)"/>
<path d="M0 0 C1.32 0.66 2.64 1.32 4 2 C3.814375 2.556875 3.62875 3.11375 3.4375 3.6875 C2.85016727 5.99424406 2.85016727 5.99424406 3.4609375 8.265625 C5.20582119 17.11648428 3.97375952 26.64687012 3.125 35.5625 C3.04660889 36.4191626 2.96821777 37.2758252 2.88745117 38.15844727 C2.44765956 42.42522701 1.90265615 46.09076111 0 50 C-0.33 50 -0.66 50 -1 50 C-1 44.06 -1 38.12 -1 32 C-1.13277344 33.31355469 -1.26554687 34.62710938 -1.40234375 35.98046875 C-1.5806038 37.71615871 -1.75899617 39.45183509 -1.9375 41.1875 C-2.02451172 42.05181641 -2.11152344 42.91613281 -2.20117188 43.80664062 C-2.6267231 47.9203025 -3.07203814 51.96211191 -4 56 C-6.42230861 52.36653709 -6.12802082 51.17812325 -5.75 46.91015625 C-5.64042969 45.65734863 -5.53085937 44.40454102 -5.41796875 43.11376953 C-4.77355074 36.63155633 -4.0474366 30.15971767 -3.27050781 23.69213867 C-2.99659897 21.40915297 -2.7284403 19.12554121 -2.4609375 16.84179688 C-1.02527097 4.72770138 -1.02527097 4.72770138 0 0 Z " fill="#DAEBE2" transform="translate(362,251)"/>
<path d="M0 0 C0.99 0.66 1.98 1.32 3 2 C3.2229542 4.56545961 3.28124147 6.88244396 3.1875 9.4375 C3.16719727 10.4594043 3.16719727 10.4594043 3.14648438 11.50195312 C3.10878423 13.3348981 3.05515894 15.16749732 3 17 C3 17.99 3 18.98 3 20 C2.01 20 1.02 20 0 20 C-0.33 18.02 -0.66 16.04 -1 14 C-1.44730469 14.3609375 -1.89460938 14.721875 -2.35546875 15.09375 C-7.33071439 18.91270188 -7.33071439 18.91270188 -10.875 19.375 C-13 19 -13 19 -14 18 C-14.64846069 12.71967725 -14.38377529 9.95263016 -11.1875 5.625 C-7.90853519 1.56070288 -5.38906499 -0.5389065 0 0 Z " fill="#88EB13" transform="translate(344,416)"/>
<path d="M0 0 C1.89293578 2.83940367 2.33532511 3.92866949 2.81640625 7.140625 C2.94039795 7.95756836 3.06438965 8.77451172 3.19213867 9.61621094 C3.31435791 10.48536133 3.43657715 11.35451172 3.5625 12.25 C3.69180908 13.13719727 3.82111816 14.02439453 3.9543457 14.93847656 C5.03185934 22.61274513 5.65987119 30.25913741 6 38 C5.34 38 4.68 38 4 38 C3.91435791 37.34402832 3.82871582 36.68805664 3.74047852 36.01220703 C3.35153499 33.049303 2.95708727 30.08715747 2.5625 27.125 C2.42779297 26.09246094 2.29308594 25.05992187 2.15429688 23.99609375 C2.02216797 23.00996094 1.89003906 22.02382813 1.75390625 21.0078125 C1.63345947 20.09660645 1.5130127 19.18540039 1.38891602 18.24658203 C1.10637049 15.97266576 1.10637049 15.97266576 0 14 C-0.06058594 14.58007812 -0.12117188 15.16015625 -0.18359375 15.7578125 C-0.66016561 20.20092863 -1.21008666 24.59905423 -2 29 C-1.34 29.33 -0.68 29.66 0 30 C-0.33 33.3 -0.66 36.6 -1 40 C-4.465 40.495 -4.465 40.495 -8 41 C-7.01 29.78 -6.02 18.56 -5 7 C-3.68 6.67 -2.36 6.34 -1 6 C-1.33 7.32 -1.66 8.64 -2 10 C-1.34 10 -0.68 10 0 10 C0 6.7 0 3.4 0 0 Z " fill="#1A8953" transform="translate(374,279)"/>
<path d="M0 0 C5.19225931 28.15094647 5.19225931 28.15094647 6.59765625 40.55859375 C7.24116733 46.0628002 8.11946747 51.52945746 9 57 C8.34 57 7.68 57 7 57 C5.0751125 49.99099259 3.99210491 42.93574901 2.9375 35.75 C2.59414572 33.43203954 2.24916314 31.11431953 1.90234375 28.796875 C1.75273193 27.77948242 1.60312012 26.76208984 1.44897461 25.71386719 C1.07114708 23.43005491 0.60471146 21.23247357 0 19 C0.02320313 19.83144531 0.04640625 20.66289062 0.0703125 21.51953125 C0.09738281 23.14955078 0.09738281 23.14955078 0.125 24.8125 C0.14820313 25.89144531 0.17140625 26.97039062 0.1953125 28.08203125 C0 31 0 31 -2 34 C-2.67141148 29.584041 -3.33631007 25.16712555 -4 20.75 C-4.19078125 19.49574219 -4.3815625 18.24148438 -4.578125 16.94921875 C-4.75859375 15.74394531 -4.9390625 14.53867187 -5.125 13.296875 C-5.29257812 12.18666992 -5.46015625 11.07646484 -5.6328125 9.93261719 C-6 7 -6 7 -6 3 C-7.65 3 -9.3 3 -11 3 C-11 2.67 -11 2.34 -11 2 C-9.5422647 1.664061 -8.08378894 1.33133376 -6.625 1 C-5.40683594 0.7215625 -5.40683594 0.7215625 -4.1640625 0.4375 C-2 0 -2 0 0 0 Z " fill="#75B796" transform="translate(382,329)"/>
<path d="M0 0 C0.268125 0.639375 0.53625 1.27875 0.8125 1.9375 C1.88667752 4.33131686 1.88667752 4.33131686 5 5 C5 6.32 5 7.64 5 9 C3.46875 10.484375 3.46875 10.484375 1.5 11.75 C0.8503125 12.17796875 0.200625 12.6059375 -0.46875 13.046875 C-0.9740625 13.36140625 -1.479375 13.6759375 -2 14 C-2.33 13.34 -2.66 12.68 -3 12 C-2.67 11.67 -2.34 11.34 -2 11 C-5.62793998 12.86566488 -5.62793998 12.86566488 -8 16 C-7.34 16.33 -6.68 16.66 -6 17 C-7.28813342 17.83878455 -8.58063256 18.67086783 -9.875 19.5 C-10.59429687 19.9640625 -11.31359375 20.428125 -12.0546875 20.90625 C-14 22 -14 22 -16 22 C-16.90786761 18.70897992 -17.59440475 16.18880951 -16 13 C-15.01 13 -14.02 13 -13 13 C-12.67 12.01 -12.34 11.02 -12 10 C-11.01 9.67 -10.02 9.34 -9 9 C-8.566875 8.236875 -8.13375 7.47375 -7.6875 6.6875 C-5.62842917 3.40823905 -3.28781317 1.9726879 0 0 Z " fill="#E1EFE7" transform="translate(292,361)"/>
<path d="M0 0 C2.25 0.375 2.25 0.375 3.25 1.375 C3.5546875 3.703125 3.5546875 3.703125 3.25 6.375 C1.5703125 8.359375 1.5703125 8.359375 -0.625 10.125 C-1.34429687 10.71796875 -2.06359375 11.3109375 -2.8046875 11.921875 C-4.75 13.375 -4.75 13.375 -6.75 14.375 C-6.75 15.365 -6.75 16.355 -6.75 17.375 C-1.45558305 17.87923019 1.06413519 16.56423033 5.25 13.375 C5.125 15.125 5.125 15.125 4.25 17.375 C1.16517274 19.95764608 -0.9313142 21.26263136 -4.9375 21.8125 C-7.75 21.375 -7.75 21.375 -9.625 20.3125 C-11.40886119 17.24029462 -11.10458787 14.86178068 -10.75 11.375 C-8.79516853 6.23070667 -5.85151948 0.79793447 0 0 Z " fill="#94F50A" transform="translate(299.75,414.625)"/>
<path d="M0 0 C0.99 0 1.98 0 3 0 C3 0.99 3 1.98 3 3 C2.34 3 1.68 3 1 3 C1 4.32 1 5.64 1 7 C1.66 7 2.32 7 3 7 C2.67 11.29 2.34 15.58 2 20 C2.66 20.33 3.32 20.66 4 21 C3.34 21 2.68 21 2 21 C2 27.27 2 33.54 2 40 C2.66 40 3.32 40 4 40 C4 37.36 4 34.72 4 32 C4.33 32 4.66 32 5 32 C5 36.29 5 40.58 5 45 C3.515 45.495 3.515 45.495 2 46 C1.67 48.31 1.34 50.62 1 53 C0.34 53 -0.32 53 -1 53 C-0.67 50.03 -0.34 47.06 0 44 C-0.66 44 -1.32 44 -2 44 C-2.18400316 34.56856021 -1.60592453 25.21754666 -1 15.8125 C-0.90333324 14.27280605 -0.80697687 12.73309258 -0.7109375 11.19335938 C-0.47753095 7.46200807 -0.23994397 3.7309373 0 0 Z " fill="#A1CEB8" transform="translate(126,278)"/>
<path d="M0 0 C3 3.75 3 3.75 3 6 C3.66 6 4.32 6 5 6 C5 4.68 5 3.36 5 2 C5.66 2 6.32 2 7 2 C7.99 4.97 8.98 7.94 10 11 C9.01 11.495 9.01 11.495 8 12 C9.32 13.65 10.64 15.3 12 17 C11.67 15.35 11.34 13.7 11 12 C13.71369243 14.5327796 15.39355503 16.68670725 17 20 C17.70125 20.78375 18.4025 21.5675 19.125 22.375 C21.36755366 25.51457512 21.35099077 27.22684928 21 31 C20.34 31 19.68 31 19 31 C18.34 31.66 17.68 32.32 17 33 C0 6.66197183 0 6.66197183 0 0 Z " fill="#9BC9B0" transform="translate(142,335)"/>
<path d="M0 0 C0.99 0.33 1.98 0.66 3 1 C-0.79264875 7.65847658 -4.69247351 14.24960019 -8.75 20.75 C-9.31448853 21.68030029 -9.31448853 21.68030029 -9.89038086 22.62939453 C-10.984375 24.359375 -10.984375 24.359375 -13 27 C-13.99 27 -14.98 27 -16 27 C-17.53926208 23.42430624 -19.05312844 19.83840192 -20.5625 16.25 C-21.00013672 15.23421875 -21.43777344 14.2184375 -21.88867188 13.171875 C-22.50258789 11.70234375 -22.50258789 11.70234375 -23.12890625 10.203125 C-23.51119385 9.30239258 -23.89348145 8.40166016 -24.28735352 7.47363281 C-25.05212059 4.81908675 -24.94191316 3.55699416 -24 1 C-23.01 1.33 -22.02 1.66 -21 2 C-20.15625 3.78515625 -20.15625 3.78515625 -19.5 6.0625 C-18.5465136 9.22565329 -17.52683575 12.30210342 -16.3125 15.375 C-15 19 -15 19 -15 22 C-11.01223304 18.52208453 -8.83967054 14.46750278 -6.375 9.875 C-5.59416266 8.43325785 -4.81043135 6.99307828 -4.0234375 5.5546875 C-3.68231934 4.92030762 -3.34120117 4.28592773 -2.98974609 3.63232422 C-2 2 -2 2 0 0 Z " fill="#8DF808" transform="translate(288,408)"/>
<path d="M0 0 C0.763125 0.00902344 1.52625 0.01804687 2.3125 0.02734375 C2.869375 0.03894531 3.42625 0.05054688 4 0.0625 C4 1.0525 4 2.0425 4 3.0625 C-2.435 3.5575 -2.435 3.5575 -9 4.0625 C-9.66 7.0325 -10.32 10.0025 -11 13.0625 C-4.565 12.5675 -4.565 12.5675 2 12.0625 C1.67 13.3825 1.34 14.7025 1 16.0625 C-2.96 16.3925 -6.92 16.7225 -11 17.0625 C-11.33 20.6925 -11.66 24.3225 -12 28.0625 C-12.99 27.7325 -13.98 27.4025 -15 27.0625 C-15.38064163 18.26544908 -14.20731692 9.75086995 -13 1.0625 C-8.63410135 0.47513863 -4.41216343 -0.06894005 0 0 Z " fill="#BEF906" transform="translate(408,408.9375)"/>
<path d="M0 0 C0.66 0 1.32 0 2 0 C2 3.63 2 7.26 2 11 C2.78375 9.72125 3.5675 8.4425 4.375 7.125 C5.81217371 4.78013764 7.04690501 2.95309499 9 1 C11.625 1.375 11.625 1.375 14 2 C15.29243536 6.1196377 16.26252625 9.66831683 16 14 C17.32 14 18.64 14 20 14 C19.67 14.99 19.34 15.98 19 17 C17.33388095 17.042721 15.66617115 17.04063832 14 17 C12.26043342 15.26043342 12.62809614 12.8063378 12.4375 10.4375 C12.35371094 9.42558594 12.26992188 8.41367187 12.18359375 7.37109375 C12.12300781 6.58863281 12.06242187 5.80617188 12 5 C6.99694324 7.14416718 5.50992656 10.33171414 3.30859375 15.0390625 C2 17 2 17 -0.08178711 17.62255859 C-0.71479736 17.74711426 -1.34780762 17.87166992 -2 18 C-1.85980308 15.18711295 -1.71312045 12.37483115 -1.5625 9.5625 C-1.52318359 8.76005859 -1.48386719 7.95761719 -1.44335938 7.13085938 C-1.11328125 1.11328125 -1.11328125 1.11328125 0 0 Z " fill="#B6F40C" transform="translate(486,417)"/>
<path d="M0 0 C0.66 0 1.32 0 2 0 C2 1.65 2 3.3 2 5 C2.66 5.33 3.32 5.66 4 6 C3.66480542 10.02233499 3.09358259 13.1437701 1.23046875 16.73828125 C0.87098145 17.4338916 0.51149414 18.12950195 0.14111328 18.84619141 C-0.42373779 19.91232666 -0.42373779 19.91232666 -1 21 C-1.35980957 21.6811084 -1.71961914 22.3622168 -2.09033203 23.06396484 C-3.18875875 25.11511361 -4.3098559 27.15228742 -5.4375 29.1875 C-5.80681641 29.87263672 -6.17613281 30.55777344 -6.55664062 31.26367188 C-8.92250534 35.52386847 -11.389367 38.72050089 -15 42 C-15.66 41.67 -16.32 41.34 -17 41 C-15.82744291 37.66272214 -14.81131596 35.22562513 -12 33 C-11.34 33 -10.68 33 -10 33 C-9.67 32.01 -9.34 31.02 -9 30 C-9.66 30.33 -10.32 30.66 -11 31 C-9.58192622 26.52761347 -7.88695626 22.28853694 -6 18 C-5.01 18.33 -4.02 18.66 -3 19 C-2.67 18.34 -2.34 17.68 -2 17 C-2.66 16.67 -3.32 16.34 -4 16 C-2.68 13.36 -1.36 10.72 0 8 C-0.66 8 -1.32 8 -2 8 C-1.34 5.36 -0.68 2.72 0 0 Z " fill="#20864E" transform="translate(218,283)"/>
<path d="M0 0 C0.99 0 1.98 0 3 0 C2.34 4.95 1.68 9.9 1 15 C7.54774529 11.07135283 9.24949562 7.81077276 12 1 C12.99 1 13.98 1 15 1 C15 6.94 15 12.88 15 19 C14.01 19 13.02 19 12 19 C11.34 16.69 10.68 14.38 10 12 C9.29875 12.99 8.5975 13.98 7.875 15 C5.69709234 17.64460216 5.3408444 17.9541171 1.75 18.4375 C-1 18 -1 18 -2 17 C-2.43634266 11.04341538 -2.40312827 5.55723413 0 0 Z " fill="#91F20D" transform="translate(416,417)"/>
<path d="M0 0 C0.66 0 1.32 0 2 0 C2 3.63 2 7.26 2 11 C2.78375 9.72125 3.5675 8.4425 4.375 7.125 C5.81217371 4.78013764 7.04690501 2.95309499 9 1 C11.625 1.375 11.625 1.375 14 2 C15.29243536 6.1196377 16.26252625 9.66831683 16 14 C17.32 14 18.64 14 20 14 C19.67 14.99 19.34 15.98 19 17 C17.35 17 15.7 17 14 17 C13.34 13.37 12.68 9.74 12 6 C7.94904429 6.54629816 7.94904429 6.54629816 6.4375 9.25 C5.963125 10.1575 5.48875 11.065 5 12 C3.5625 14.75 3.5625 14.75 2 17 C-0.09765625 17.640625 -0.09765625 17.640625 -2 18 C-1.85980308 15.18711295 -1.71312045 12.37483115 -1.5625 9.5625 C-1.52318359 8.76005859 -1.48386719 7.95761719 -1.44335938 7.13085938 C-1.11328125 1.11328125 -1.11328125 1.11328125 0 0 Z " fill="#AAF609" transform="translate(354,417)"/>
<path d="M0 0 C0.33 0.66 0.66 1.32 1 2 C0.27490234 3.82836914 0.27490234 3.82836914 -0.9140625 6.03515625 C-1.56181641 7.25041992 -1.56181641 7.25041992 -2.22265625 8.49023438 C-2.68542969 9.33908203 -3.14820313 10.18792969 -3.625 11.0625 C-4.06457031 11.88427734 -4.50414062 12.70605469 -4.95703125 13.55273438 C-5.84584032 15.20915128 -6.74071981 16.86232504 -7.64160156 18.51220703 C-8.56379467 20.20112648 -9.4769188 21.89502322 -10.38183594 23.59326172 C-10.82043945 24.40682129 -11.25904297 25.22038086 -11.7109375 26.05859375 C-12.1032959 26.79263428 -12.4956543 27.5266748 -12.89990234 28.28295898 C-14 30 -14 30 -16 31 C-16 29.35 -16 27.7 -16 26 C-16.66 26.66 -17.32 27.32 -18 28 C-18.99 28 -19.98 28 -21 28 C-20.56802365 23.2482602 -19.67230705 21.07999946 -16 18 C-16.33 17.01 -16.66 16.02 -17 15 C-16.67 14.34 -16.34 13.68 -16 13 C-14.35 13.33 -12.7 13.66 -11 14 C-11.33 15.65 -11.66 17.3 -12 19 C-8.71183876 15.12678305 -6.20650914 11.10466735 -3.75 6.6875 C-3.38648438 6.04232422 -3.02296875 5.39714844 -2.6484375 4.73242188 C-1.76163795 3.15718584 -0.88025437 1.57890286 0 0 Z " fill="#A8CFB8" transform="translate(161,276)"/>
<path d="M0 0 C0.33 0 0.66 0 1 0 C1 6.27 1 12.54 1 19 C1.33 19 1.66 19 2 19 C2.08982121 22.86231194 1.78868347 26.23184564 1 30 C0.96261719 30.71671875 0.92523438 31.4334375 0.88671875 32.171875 C0.81904297 33.35523438 0.81904297 33.35523438 0.75 34.5625 C0.72421875 35.30628906 0.6984375 36.05007813 0.671875 36.81640625 C-0.30324151 39.9855349 -2.3521359 41.14059225 -5 43 C-4.60283342 34.17872133 -4.09642917 25.55948736 -2.47265625 16.86328125 C-1.78976804 12.72644606 -1.51498089 8.57990688 -1.24609375 4.3984375 C-1 2 -1 2 0 0 Z " fill="#52A47A" transform="translate(361,281)"/>
<path d="M0 0 C2.375 0.5 2.375 0.5 4.375 2.5 C4.84644431 5.46336423 4.89488739 7.55045361 3.4296875 10.2265625 C1.37659985 12.95110019 0.04139037 14.39398335 -3.375 14.9375 C-5.625 14.5 -5.625 14.5 -6.625 13.5 C-7.03861748 9.28110175 -6.82110029 6.89946355 -4.9375 3.0625 C-2.625 0.5 -2.625 0.5 0 0 Z " fill="#1B8A54" transform="translate(472.625,418.5)"/>
<path d="M0 0 C0 0.99 0 1.98 0 3 C-0.56589844 3.10957031 -1.13179688 3.21914063 -1.71484375 3.33203125 C-2.81505859 3.56986328 -2.81505859 3.56986328 -3.9375 3.8125 C-4.66839844 3.96332031 -5.39929688 4.11414063 -6.15234375 4.26953125 C-6.76207031 4.51058594 -7.37179687 4.75164062 -8 5 C-8.33 5.99 -8.66 6.98 -9 8 C-8.4225 8.30292969 -7.845 8.60585938 -7.25 8.91796875 C-5.02969393 10.17074561 -2.98092118 11.3926736 -1 13 C-0.5 15.8125 -0.5 15.8125 -1 18 C-5.55426184 20.66590937 -8.73946963 21.31563182 -14 21 C-14 20.01 -14 19.02 -14 18 C-11.03 17.67 -8.06 17.34 -5 17 C-5.73399412 13.7057621 -5.73399412 13.7057621 -9.0625 12.1875 C-12 10 -12 10 -12.6875 7 C-12 4 -12 4 -9.9375 1.625 C-6.38328737 -0.34116018 -4.002247 -0.31390173 0 0 Z " fill="#9CF707" transform="translate(449,415)"/>
<path d="M0 0 C0.33 0 0.66 0 1 0 C1.67908897 3.8103935 2.34097063 7.62359019 3 11.4375 C3.19078125 12.50677734 3.3815625 13.57605469 3.578125 14.67773438 C4.64142211 20.88662998 5.21193289 26.70161952 5 33 C2.06858323 31.33886383 1.09225855 30.24237961 -0.12109375 27.0546875 C-1.40933547 22.14755371 -1.25358126 17.2270657 -1.1875 12.1875 C-1.18685547 11.23423828 -1.18621094 10.28097656 -1.18554688 9.29882812 C-1.14078764 2.28157529 -1.14078764 2.28157529 0 0 Z " fill="#EFF6F2" transform="translate(382,345)"/>
<path d="M0 0 C1.89293578 2.83940367 2.33532511 3.92866949 2.81640625 7.140625 C3.0023938 8.36604004 3.0023938 8.36604004 3.19213867 9.61621094 C3.31435791 10.48536133 3.43657715 11.35451172 3.5625 12.25 C3.69180908 13.13719727 3.82111816 14.02439453 3.9543457 14.93847656 C5.03185934 22.61274513 5.65987119 30.25913741 6 38 C5.34 38 4.68 38 4 38 C3.91435791 37.34402832 3.82871582 36.68805664 3.74047852 36.01220703 C3.35153499 33.049303 2.95708727 30.08715747 2.5625 27.125 C2.42779297 26.09246094 2.29308594 25.05992187 2.15429688 23.99609375 C2.02216797 23.00996094 1.89003906 22.02382813 1.75390625 21.0078125 C1.57323608 19.64100342 1.57323608 19.64100342 1.38891602 18.24658203 C1.10637049 15.97266576 1.10637049 15.97266576 0 14 C-0.66 16.97 -1.32 19.94 -2 23 C-2.33 23 -2.66 23 -3 23 C-2.979375 21.9275 -2.95875 20.855 -2.9375 19.75 C-2.98697979 16.78121283 -3.16879648 14.77067841 -4 12 C-4.34060811 10.33480481 -4.67558396 8.66842534 -5 7 C-3.68 6.67 -2.36 6.34 -1 6 C-1.33 7.32 -1.66 8.64 -2 10 C-1.34 10 -0.68 10 0 10 C0 6.7 0 3.4 0 0 Z " fill="#7CBB9B" transform="translate(374,279)"/>
<path d="M0 0 C0.99 0.33 1.98 0.66 3 1 C3 1.66 3 2.32 3 3 C3.99 3 4.98 3 6 3 C6.14285714 10.42857143 6.14285714 10.42857143 5 14 C4.34 14 3.68 14 3 14 C2.67 12.35 2.34 10.7 2 9 C2.01160156 9.66386719 2.02320313 10.32773437 2.03515625 11.01171875 C2.12478032 19.78207381 2.12478032 19.78207381 1 24 C0.67 24 0.34 24 0 24 C-0.33 21.69 -0.66 19.38 -1 17 C-1.33 17 -1.66 17 -2 17 C-2.05441656 15.10448978 -2.09298035 13.2085208 -2.125 11.3125 C-2.14820313 10.25675781 -2.17140625 9.20101563 -2.1953125 8.11328125 C-1.99858729 4.97748141 -1.33057654 2.82354627 0 0 Z " fill="#8FC5AA" transform="translate(190,307)"/>
<path d="M0 0 C0.66 0 1.32 0 2 0 C2 10.23 2 20.46 2 31 C3.32 31.33 4.64 31.66 6 32 C6 33.98 6 35.96 6 38 C5.34 38 4.68 38 4 38 C3.505 36.515 3.505 36.515 3 35 C2.34 36.32 1.68 37.64 1 39 C0.08954273 34.36895437 -0.13279048 29.89822573 -0.09765625 25.1953125 C-0.0962413 24.4713327 -0.09482635 23.74735291 -0.09336853 23.00143433 C-0.08781075 20.70924593 -0.07526633 18.41715843 -0.0625 16.125 C-0.05747953 14.56250142 -0.05291759 13.00000129 -0.04882812 11.4375 C-0.03785519 7.62496165 -0.0206201 3.81249788 0 0 Z " fill="#7FBD9E" transform="translate(189,335)"/>
<path d="M0 0 C0.66 0.33 1.32 0.66 2 1 C1.67 1.99 1.34 2.98 1 4 C2.32 4 3.64 4 5 4 C5 5.65 5 7.3 5 9 C3.02 9.99 3.02 9.99 1 11 C1 10.34 1 9.68 1 9 C0.34 9 -0.32 9 -1 9 C-1 9.66 -1 10.32 -1 11 C-2.7015625 11.8353125 -2.7015625 11.8353125 -4.4375 12.6875 C-7.55468831 14.4222876 -7.55468831 14.4222876 -8.9375 17.75 C-8.958125 18.4925 -8.97875 19.235 -9 20 C-9.99 19.34 -10.98 18.68 -12 18 C-9.87483132 13.74966265 -7.16671919 11.24511935 -3.5234375 8.33203125 C-1.87027626 7.05635999 -1.87027626 7.05635999 -1 5 C-2.98 5.99 -2.98 5.99 -5 7 C-5 6.01 -5 5.02 -5 4 C-2.5 1.8125 -2.5 1.8125 0 0 Z " fill="#EFF7F2" transform="translate(500,361)"/>
<path d="M0 0 C-0.45382956 4.87866775 -1.6360844 7.43820701 -5 11 C-8 13 -8 13 -10.1875 12.625 C-10.785625 12.41875 -11.38375 12.2125 -12 12 C-11.85015836 7.05522572 -9.16394878 4.68957045 -5.88671875 1.35546875 C-4 0 -4 0 0 0 Z " fill="#188955" transform="translate(323,419)"/>
<path d="M0 0 C0.99 0 1.98 0 3 0 C2.39702691 8.67254919 1.74558682 17.33850205 1 26 C0.34 26 -0.32 26 -1 26 C-2.62169332 7.784909 -2.62169332 7.784909 -2 2 C-1.34 1.34 -0.68 0.68 0 0 Z " fill="#93C7AD" transform="translate(353,338)"/>
<path d="M0 0 C0.33 0 0.66 0 1 0 C1.19148936 19.34042553 1.19148936 19.34042553 0 29 C-2 28 -2 28 -3 25 C-3.33 26.65 -3.66 28.3 -4 30 C-4.99 29.67 -5.98 29.34 -7 29 C-7 27.35 -7 25.7 -7 24 C-6.67 24 -6.34 24 -6 24 C-5.67 20.04 -5.34 16.08 -5 12 C-4.34 12 -3.68 12 -3 12 C-3 14.97 -3 17.94 -3 21 C-1.42679728 19.42679728 -1.67057664 17.70811236 -1.46484375 15.52734375 C-1.33432617 14.17866211 -1.33432617 14.17866211 -1.20117188 12.80273438 C-1.0706543 11.38444336 -1.0706543 11.38444336 -0.9375 9.9375 C-0.80118164 8.5134082 -0.80118164 8.5134082 -0.66210938 7.06054688 C-0.43743502 4.70737865 -0.21691818 2.35389381 0 0 Z " fill="#73B796" transform="translate(420,278)"/>
<path d="M0 0 C3 3 3 3 3.29296875 6.57421875 C3.27309338 7.94561913 3.23741111 9.31686405 3.1875 10.6875 C3.17396484 11.38939453 3.16042969 12.09128906 3.14648438 12.81445312 C3.11120182 14.54329829 3.05739583 16.27174765 3 18 C2.34 18 1.68 18 1 18 C1 18.66 1 19.32 1 20 C1.66 20 2.32 20 3 20 C2.67 25.94 2.34 31.88 2 38 C1.34 37.67 0.68 37.34 0 37 C0 24.79 0 12.58 0 0 Z " fill="#C3DFD1" transform="translate(246,301)"/>
<path d="M0 0 C1.32 0.66 2.64 1.32 4 2 C3.814375 2.556875 3.62875 3.11375 3.4375 3.6875 C2.83055717 5.97166248 2.83055717 5.97166248 3.5625 8.0625 C4.19530234 12.31131572 3.34036156 16.1186677 2.5625 20.3125 C2.41490234 21.14845703 2.26730469 21.98441406 2.11523438 22.84570312 C1.75158098 24.89858521 1.3768822 26.94950532 1 29 C-0.7247803 26.00203534 -1.24851034 23.85751564 -1.23046875 20.41015625 C-1.22756836 19.10981445 -1.22756836 19.10981445 -1.22460938 17.78320312 C-1.21236328 16.88537109 -1.20011719 15.98753906 -1.1875 15.0625 C-1.18685547 14.16853516 -1.18621094 13.27457031 -1.18554688 12.35351562 C-1.15725403 8.11901976 -1.07649951 4.12514613 0 0 Z " fill="#D1E7DC" transform="translate(362,251)"/>
<path d="M0 0 C-0.409639 5.22289724 -1.13174285 8.34664603 -5 12 C-7.75 12.8125 -7.75 12.8125 -10 13 C-9.59062548 6.17709135 -7.73034899 0 0 0 Z " fill="#158756" transform="translate(343,419)"/>
<path d="M0 0 C0.66 0 1.32 0 2 0 C2 1.98 2 3.96 2 6 C2.66 6 3.32 6 4 6 C2.66976744 13.25581395 2.66976744 13.25581395 -0.25 16.5 C-3.59119756 18.3224714 -5.24456694 18.61313193 -9 18 C-12.375 16 -12.375 16 -15 14 C-14.67 13.01 -14.34 12.02 -14 11 C-13.29875 11.495 -12.5975 11.99 -11.875 12.5 C-8.53124015 14.24457036 -6.71451163 14.64600202 -3 14 C-0.05517721 10.95701645 0.16827468 8.2504502 0.1875 4.1875 C0.13966204 2.79108728 0.08204828 1.39482079 0 0 Z " fill="#45F40C" transform="translate(320,429)"/>
<path d="M0 0 C0.99 0.33 1.98 0.66 3 1 C3.99 0.67 4.98 0.34 6 0 C4.28037862 4.02981981 1.89490816 5.85851795 -1.5390625 8.4375 C-3.45531241 10.13044864 -3.45531241 10.13044864 -3 14 C-4.375 15.75 -4.375 15.75 -6 17 C-6.66 17 -7.32 17 -8 17 C-7.67 15.68 -7.34 14.36 -7 13 C-7.66 13 -8.32 13 -9 13 C-9.99 13 -10.98 13 -12 13 C-12 12.34 -12 11.68 -12 11 C-10.68 10.67 -9.36 10.34 -8 10 C-8 9.34 -8 8.68 -8 8 C-7.34 8 -6.68 8 -6 8 C-5.67 7.01 -5.34 6.02 -5 5 C-4.01 5 -3.02 5 -2 5 C-1.34 3.35 -0.68 1.7 0 0 Z " fill="#2C8F5A" transform="translate(493,366)"/>
<path d="M0 0 C0.33 0.99 0.66 1.98 1 3 C-0.375 4.5 -0.375 4.5 -2 6 C-2.66 6 -3.32 6 -4 6 C-4 6.66 -4 7.32 -4 8 C-4.66 8 -5.32 8 -6 8 C-6 8.66 -6 9.32 -6 10 C-6.66 10.66 -7.32 11.32 -8 12 C-8.64767793 14.57061311 -8.64767793 14.57061311 -9 17 C-10.32 17.33 -11.64 17.66 -13 18 C-13.90786761 14.70897992 -14.59440475 12.18880951 -13 9 C-12.01 9 -11.02 9 -10 9 C-9.67 8.01 -9.34 7.02 -9 6 C-8.01 5.67 -7.02 5.34 -6 5 C-4.33289654 3.50014391 -4.33289654 3.50014391 -3 2 C-2.34 2.33 -1.68 2.66 -1 3 C-0.67 2.01 -0.34 1.02 0 0 Z " fill="#18844A" transform="translate(289,365)"/>
<path d="M0 0 C0.99 0 1.98 0 3 0 C3 0.99 3 1.98 3 3 C2.34 3 1.68 3 1 3 C1 4.32 1 5.64 1 7 C1.66 7 2.32 7 3 7 C2.67 11.29 2.34 15.58 2 20 C2.66 20.33 3.32 20.66 4 21 C3.01 21.33 2.02 21.66 1 22 C0.67 28.27 0.34 34.54 0 41 C-0.33 41 -0.66 41 -1 41 C-1.20638953 11.65458453 -1.20638953 11.65458453 0 0 Z " fill="#C0DECF" transform="translate(126,278)"/>
<path d="M0 0 C3.75428904 3.75428904 2.94764698 9.91593985 3 15 C2.72268602 18.14289174 2.43377187 21.16489454 1 24 C-1.08203125 25.23828125 -1.08203125 25.23828125 -3 26 C-2.85936865 23.70800823 -2.71234057 21.41640814 -2.5625 19.125 C-2.48128906 17.84882813 -2.40007812 16.57265625 -2.31640625 15.2578125 C-2 12 -2 12 -1 10 C-0.77377919 8.29636178 -0.59111527 6.58671299 -0.4375 4.875 C-0.31181641 3.50988281 -0.31181641 3.50988281 -0.18359375 2.1171875 C-0.12300781 1.41851562 -0.06242187 0.71984375 0 0 Z " fill="#13854C" transform="translate(363,296)"/>
<path d="M0 0 C0.66 0.66 1.32 1.32 2 2 C1.9765625 4.1640625 1.9765625 4.1640625 1.625 6.625 C1.45871094 7.85089844 1.45871094 7.85089844 1.2890625 9.1015625 C1.14597656 10.04128906 1.14597656 10.04128906 1 11 C-1 9 -1 9 -1.125 5.875 C-1.08375 4.92625 -1.0425 3.9775 -1 3 C-3.92516824 3.66860988 -5.60837505 4.45484027 -7.375 6.9140625 C-8.23800844 8.36782077 -9.07623698 9.83662925 -9.88671875 11.3203125 C-10.25410156 11.87460937 -10.62148438 12.42890625 -11 13 C-11.66 13 -12.32 13 -13 13 C-12.59709958 7.35939411 -10.78085674 4.96528877 -7 1 C-4.48718205 -0.25640898 -2.78302919 -0.20872719 0 0 Z " fill="#C8F40B" transform="translate(344,416)"/>
<path d="M0 0 C1.72482928 2.98255249 2.2273891 4.98356083 2.046875 8.4140625 C2.00570557 9.25348389 1.96453613 10.09290527 1.92211914 10.95776367 C1.86531982 11.83795166 1.80852051 12.71813965 1.75 13.625 C1.6977124 14.52130127 1.6454248 15.41760254 1.59155273 16.34106445 C1.20176889 22.37312022 0.62791659 28.15865222 -1 34 C-1.99 34.495 -1.99 34.495 -3 35 C-3.25515365 27.85569773 -2.45158118 20.97417566 -1.51171875 13.91015625 C-0.90596569 9.281463 -0.42460519 4.64830944 0 0 Z " fill="#F2F8F5" transform="translate(364,266)"/>
<path d="M0 0 C0 0.99 0 1.98 0 3 C-4.30038679 4.70015292 -6.55853911 4.92960809 -11 4 C-14.03366415 4.10407081 -17.0429522 4.29739567 -20 5 C-20.33 5.66 -20.66 6.32 -21 7 C-21.33 6.34 -21.66 5.68 -22 5 C-24.02463255 4.34786708 -24.02463255 4.34786708 -26 4 C-26 3.34 -26 2.68 -26 2 C-22.4169389 1.66369671 -18.83351076 1.33147475 -15.25 1 C-14.23421875 0.90460938 -13.2184375 0.80921875 -12.171875 0.7109375 C-11.1921875 0.62070313 -10.2125 0.53046875 -9.203125 0.4375 C-8.30239258 0.35371094 -7.40166016 0.26992187 -6.47363281 0.18359375 C-4.32080902 0.02381054 -2.15874522 0 0 0 Z " fill="#138146" transform="translate(454,246)"/>
<path d="M0 0 C0.93065133 2.60582371 1.14917407 3.64198224 0.0625 6.25 C-0.288125 6.8275 -0.63875 7.405 -1 8 C-1.66 8 -2.32 8 -3 8 C-3 6.02 -3 4.04 -3 2 C-7.380042 3.28824765 -9.68378209 5.46654595 -12.66796875 8.7578125 C-14 10 -14 10 -16 10 C-15.43736042 6.49490749 -14.34814818 5.04731992 -11.625 2.8125 C-11.01914062 2.30332031 -10.41328125 1.79414063 -9.7890625 1.26953125 C-6.27839682 -1.22166165 -4.00404039 -0.97395577 0 0 Z " fill="#D0F40B" transform="translate(326,417)"/>
<path d="M0 0 C2.3203125 0.296875 2.3203125 0.296875 3.3203125 1.296875 C3.6953125 3.546875 3.6953125 3.546875 3.3203125 6.296875 C1.0078125 9.109375 1.0078125 9.109375 -1.6796875 11.296875 C-2.6696875 11.296875 -3.6596875 11.296875 -4.6796875 11.296875 C-4.6796875 10.636875 -4.6796875 9.976875 -4.6796875 9.296875 C-4.0403125 8.8225 -3.4009375 8.348125 -2.7421875 7.859375 C-0.39595787 6.3877385 -0.39595787 6.3877385 0.3203125 3.296875 C-4.11348425 5.51377338 -6.14605682 8.07415719 -8.6796875 12.296875 C-9.375 10.5625 -9.375 10.5625 -9.6796875 8.296875 C-8.421875 6.15625 -8.421875 6.15625 -6.5546875 4.046875 C-5.95398438 3.34046875 -5.35328125 2.6340625 -4.734375 1.90625 C-2.6796875 0.296875 -2.6796875 0.296875 0 0 Z " fill="#D5F709" transform="translate(299.6796875,414.703125)"/>
<path d="M0 0 C0 0.99 0 1.98 0 3 C-6.435 3.495 -6.435 3.495 -13 4 C-13.99 6.97 -14.98 9.94 -16 13 C-16.33 13 -16.66 13 -17 13 C-17 9.04 -17 5.08 -17 1 C-11.27959989 0.1679418 -5.77759884 -0.12036664 0 0 Z " fill="#F6FA03" transform="translate(412,409)"/>
<path d="M0 0 C0.99 0.33 1.98 0.66 3 1 C2.38511719 1.37511719 1.77023437 1.75023437 1.13671875 2.13671875 C-4.35084854 5.61130282 -8.03019977 7.96538239 -9.609375 14.53515625 C-10.12608183 17.01744378 -10.58714518 19.49858548 -11 22 C-11.99 21.67 -12.98 21.34 -14 21 C-14.46229687 15.22128913 -13.71404687 12.45685624 -10 8 C-3.45689655 1.72844828 -3.45689655 1.72844828 0 0 Z " fill="#2A8C56" transform="translate(337,213)"/>
<path d="M0 0 C0.99 0.33 1.98 0.66 3 1 C-0.73399 7.55331386 -4.47141835 13.96189113 -9 20 C-9.73828125 18.4453125 -9.73828125 18.4453125 -10 16 C-8.82261407 13.4824291 -7.62440224 11.23336746 -6.1875 8.875 C-5.81818359 8.24207031 -5.44886719 7.60914063 -5.06835938 6.95703125 C-3.54616324 4.38268878 -2.12229093 2.12229093 0 0 Z " fill="#E9F40B" transform="translate(288,408)"/>
<path d="M0 0 C0.99 0 1.98 0 3 0 C2.34 6.27 1.68 12.54 1 19 C0.01 19 -0.98 19 -2 19 C-2.19818283 12.29481414 -2.30844801 6.34823202 0 0 Z " fill="#CBF60A" transform="translate(455,417)"/>
<path d="M0 0 C2.875 0.5 2.875 0.5 4.75 1.75 C5.875 3.5 5.875 3.5 5.875 7.5 C5.215 7.5 4.555 7.5 3.875 7.5 C3.215 6.51 2.555 5.52 1.875 4.5 C-0.53763295 3.74914894 -0.53763295 3.74914894 -3.125 4.5 C-5.33668225 7.44236782 -5.33668225 7.44236782 -7.125 10.5 C-7.785 10.5 -8.445 10.5 -9.125 10.5 C-8.82697895 7.02308771 -8.1132377 5.48487704 -5.9375 2.6875 C-3.125 0.5 -3.125 0.5 0 0 Z " fill="#E4F905" transform="translate(473.125,415.5)"/>
<path d="M0 0 C0.66 0 1.32 0 2 0 C2.33910994 2.04071515 2.67102704 4.08262621 3 6.125 C3.185625 7.26195312 3.37125 8.39890625 3.5625 9.5703125 C3.96956049 12.76137602 4.07809902 15.78817791 4 19 C3.67 18.34 3.34 17.68 3 17 C2.34 17 1.68 17 1 17 C0.67 17.66 0.34 18.32 0 19 C0.01160156 18.40832031 0.02320313 17.81664062 0.03515625 17.20703125 C0.0997018 12.19900362 0.0997018 12.19900362 -0.5625 7.25 C-1.08281322 4.57410343 -0.6734045 2.61879527 0 0 Z " fill="#95C8AE" transform="translate(373,299)"/>
<path d="M0 0 C1.9781542 2.79268829 2.0867488 4.77777121 1.6875 8.0625 C1 12 1 12 0 15 C-1.32 15.33 -2.64 15.66 -4 16 C-4 12.37 -4 8.74 -4 5 C-3.01 5.33 -2.02 5.66 -1 6 C-1.020625 5.195625 -1.04125 4.39125 -1.0625 3.5625 C-1 1 -1 1 0 0 Z " fill="#DDEDE5" transform="translate(417,302)"/>
<path d="M0 0 C0.33 0 0.66 0 1 0 C2.42705634 5.30723432 3.4002792 9.53891111 2 15 C1.34 15 0.68 15 0 15 C0.66 15.66 1.32 16.32 2 17 C1.9765625 19.1640625 1.9765625 19.1640625 1.625 21.625 C1.51414063 22.44226563 1.40328125 23.25953125 1.2890625 24.1015625 C1.19367188 24.72804688 1.09828125 25.35453125 1 26 C0.34 26 -0.32 26 -1 26 C-1.09744014 17.27369392 -1.16711095 8.66996704 0 0 Z " fill="#ACD3BF" transform="translate(128,251)"/>
<path d="M0 0 C0.33 0 0.66 0 1 0 C1 5.94 1 11.88 1 18 C0.34 18 -0.32 18 -1 18 C-1.33 18.66 -1.66 19.32 -2 20 C-2.05379226 17.04142591 -2.09357093 14.08382279 -2.125 11.125 C-2.14175781 10.28324219 -2.15851563 9.44148438 -2.17578125 8.57421875 C-2.18222656 7.76855469 -2.18867188 6.96289062 -2.1953125 6.1328125 C-2.21102295 5.01737061 -2.21102295 5.01737061 -2.22705078 3.87939453 C-2 2 -2 2 0 0 Z " fill="#B5D8C6" transform="translate(456,321)"/>
<path d="M0 0 C0.66 0 1.32 0 2 0 C1.96690258 2.25062454 1.89742124 4.50073465 1.8125 6.75 C1.76029297 8.62945312 1.76029297 8.62945312 1.70703125 10.546875 C1 14 1 14 -1.55078125 16.453125 C-2.35902344 16.96359375 -3.16726563 17.4740625 -4 18 C-3.88590318 15.89521396 -3.75834639 13.79115423 -3.625 11.6875 C-3.55539062 10.51574219 -3.48578125 9.34398437 -3.4140625 8.13671875 C-3 5 -3 5 -1 2 C-0.67 1.34 -0.34 0.68 0 0 Z " fill="#8CC2A5" transform="translate(360,306)"/>
<path d="M0 0 C2.71369243 2.5327796 4.39355503 4.68670725 6 8 C6.721875 8.825 7.44375 9.65 8.1875 10.5 C10 13 10 13 9.75 15.3125 C9.5025 15.869375 9.255 16.42625 9 17 C8.34 15.35 7.68 13.7 7 12 C6.01 13.485 6.01 13.485 5 15 C1.10640794 10.10160999 0.2757735 6.2049038 0 0 Z " fill="#4E9E71" transform="translate(153,347)"/>
<path d="M0 0 C3 3.75 3 3.75 3 6 C3.66 6 4.32 6 5 6 C5 4.68 5 3.36 5 2 C5.66 2 6.32 2 7 2 C7.99 4.97 8.98 7.94 10 11 C9.34 11 8.68 11 8 11 C8 12.65 8 14.3 8 16 C5.34154327 13.62999752 3.88838209 11.18015846 2.3125 8 C1.87550781 7.13375 1.43851563 6.2675 0.98828125 5.375 C0 3 0 3 0 0 Z " fill="#4EA377" transform="translate(142,335)"/>
<path d="M0 0 C0.33 0 0.66 0 1 0 C4.11807692 17.13653846 4.11807692 17.13653846 0 24 C-0.33 24 -0.66 24 -1 24 C-1.16677223 15.95787245 -0.6466598 8.01396246 0 0 Z " fill="#309462" transform="translate(139,280)"/>
<path d="M0 0 C0.33 0.99 0.66 1.98 1 3 C1.66 3 2.32 3 3 3 C2.67 8.28 2.34 13.56 2 19 C1.01 19 0.02 19 -1 19 C-0.67 12.73 -0.34 6.46 0 0 Z " fill="#B3D7C5" transform="translate(248,281)"/>
<path d="M0 0 C0.66 0.33 1.32 0.66 2 1 C0 4 0 4 -3 5 C-3.33 5.66 -3.66 6.32 -4 7 C-4.99 7 -5.98 7 -7 7 C-7.226875 7.804375 -7.45375 8.60875 -7.6875 9.4375 C-8.3371875 10.7059375 -8.3371875 10.7059375 -9 12 C-11.625 12.8125 -11.625 12.8125 -14 13 C-13.76953125 10.6640625 -13.76953125 10.6640625 -13 8 C-11.07421875 6.5234375 -11.07421875 6.5234375 -8.6875 5.375 C-5.52324726 3.8164094 -2.77012826 2.19328233 0 0 Z " fill="#D1E7DB" transform="translate(283,367)"/>
<path d="M0 0 C0.66 0 1.32 0 2 0 C2 1.65 2 3.3 2 5 C2.66 5.33 3.32 5.66 4 6 C3.49202991 10.3177458 2.80317221 14.03302114 1 18 C-0.20628008 15.66785852 -1.1654738 13.50357861 -2 11 C-1.34 10.01 -0.68 9.02 0 8 C-0.66 8 -1.32 8 -2 8 C-1.34 5.36 -0.68 2.72 0 0 Z " fill="#359766" transform="translate(218,283)"/>
<path d="M0 0 C0.99 0 1.98 0 3 0 C3 3.63 3 7.26 3 11 C2.34 11 1.68 11 1 11 C1 15.95 1 20.9 1 26 C0.67 26 0.34 26 0 26 C0 17.42 0 8.84 0 0 Z " fill="#BDDCCD" transform="translate(414,279)"/>
<path d="M0 0 C0.66 0 1.32 0 2 0 C3.10914408 6.53162622 2.78441153 12.43507888 2 19 C1.01 19.33 0.02 19.66 -1 20 C-0.67 13.4 -0.34 6.8 0 0 Z " fill="#FAFCFB" transform="translate(128,299)"/>
<path d="M0 0 C6.40347204 -0.66702834 9.95945654 1.09471407 15 5 C17.34942915 7.05575051 17.93663297 8.15117658 18.16796875 11.25 C18.18562435 13.50991715 18.13014221 15.74420174 18 18 C17.67 18 17.34 18 17 18 C16.84144531 17.32453125 16.68289063 16.6490625 16.51953125 15.953125 C15.05911674 10.32700825 15.05911674 10.32700825 11.875 5.5625 C8.0657284 3.4922437 4.15727019 2.19555483 0 1 C0 0.67 0 0.34 0 0 Z " fill="#36925F" transform="translate(303,227)"/>
<path d="M0 0 C0.33 0 0.66 0 1 0 C2.42002108 6.7831364 3.22731216 13.06697907 3 20 C2.34 19.01 1.68 18.02 1 17 C0.67 18.65 0.34 20.3 0 22 C-0.33 22 -0.66 22 -1 22 C-1.02895225 18.70835171 -1.0467823 15.41673601 -1.0625 12.125 C-1.07506836 10.71927734 -1.07506836 10.71927734 -1.08789062 9.28515625 C-1.09111328 8.38925781 -1.09433594 7.49335938 -1.09765625 6.5703125 C-1.10289307 5.74289551 -1.10812988 4.91547852 -1.11352539 4.06298828 C-1 2 -1 2 0 0 Z " fill="#F6FAF8" transform="translate(382,345)"/>
<path d="M0 0 C0.66 0 1.32 0 2 0 C2 7.26 2 14.52 2 22 C1.34 22 0.68 22 0 22 C-0.75667376 14.46818582 -1.14364008 7.49719609 0 0 Z " fill="#86C0A3" transform="translate(190,282)"/>
<path d="M0 0 C0 0.99 0 1.98 0 3 C-2.64 3.66 -5.28 4.32 -8 5 C-8.33 6.32 -8.66 7.64 -9 9 C-9.99 9 -10.98 9 -12 9 C-12.3125 6.75 -12.3125 6.75 -12 4 C-8.2996981 -0.14882334 -5.40488073 -0.42391221 0 0 Z " fill="#DBF806" transform="translate(449,415)"/>
<path d="M0 0 C0.33 0 0.66 0 1 0 C1 4.29 1 8.58 1 13 C0.01 13.33 -0.98 13.66 -2 14 C-2.33 16.31 -2.66 18.62 -3 21 C-3.66 21 -4.32 21 -5 21 C-5 17.37 -5 13.74 -5 10 C-3.35 9.34 -1.7 8.68 0 8 C0 5.36 0 2.72 0 0 Z " fill="#ACD4C0" transform="translate(130,310)"/>
<path d="M0 0 C0.33 1.32 0.66 2.64 1 4 C1.66 4 2.32 4 3 4 C3.18451025 14.55808656 3.18451025 14.55808656 2 19 C1.34 19 0.68 19 0 19 C0 12.73 0 6.46 0 0 Z " fill="#ADD4C0" transform="translate(455,300)"/>
<path d="M0 0 C0.66 0 1.32 0 2 0 C2 0.66 2 1.32 2 2 C2.99 2 3.98 2 5 2 C5.14285714 9.42857143 5.14285714 9.42857143 4 13 C3.34 13 2.68 13 2 13 C1.67 11.35 1.34 9.7 1 8 C0.67 8 0.34 8 0 8 C0 5.36 0 2.72 0 0 Z " fill="#B3D7C4" transform="translate(191,308)"/>
<path d="M0 0 C0.33 0 0.66 0 1 0 C1.18451025 14.78132118 1.18451025 14.78132118 0 21 C-0.99 21.33 -1.98 21.66 -3 22 C-2.69088746 19.08293797 -2.37784575 16.1663891 -2.0625 13.25 C-1.97548828 12.425 -1.88847656 11.6 -1.79882812 10.75 C-1.71181641 9.95078125 -1.62480469 9.1515625 -1.53515625 8.328125 C-1.456604 7.5949707 -1.37805176 6.86181641 -1.29711914 6.10644531 C-1.0026123 4.01852006 -0.54882504 2.03447232 0 0 Z " fill="#E8F3ED" transform="translate(356,304)"/>
<path d="M0 0 C0.99 0 1.98 0 3 0 C2.86722656 0.58007812 2.73445313 1.16015625 2.59765625 1.7578125 C1.60295999 6.15770982 0.68631668 10.53894158 0 15 C-0.66 15 -1.32 15 -2 15 C-2.21755666 9.5610835 -2.10428384 5.12919186 0 0 Z " fill="#BBF30B" transform="translate(416,417)"/>
<path d="M0 0 C2 2 2 2 2.265625 4.93359375 C2.26046875 6.08988281 2.2553125 7.24617188 2.25 8.4375 C2.25515625 9.59121094 2.2603125 10.74492187 2.265625 11.93359375 C2 15 2 15 0 18 C-0.66 12.39 -1.32 6.78 -2 1 C-1.34 0.67 -0.68 0.34 0 0 Z " fill="#BDDCCD" transform="translate(380,345)"/>
<path d="M0 0 C0 0.99 0 1.98 0 3 C-1.32 3.33 -2.64 3.66 -4 4 C-4 7.96 -4 11.92 -4 16 C-4.99 15.34 -5.98 14.68 -7 14 C-6.67 9.71 -6.34 5.42 -6 1 C-2 0 -2 0 0 0 Z " fill="#EAF4EF" transform="translate(373,282)"/>
<path d="M0 0 C0.99 0.33 1.98 0.66 3 1 C4.34256953 5.31035482 5 8.47781648 5 13 C4.34 13 3.68 13 3 13 C2.29819469 11.5903653 1.61406042 10.17192359 0.9375 8.75 C0.55464844 7.96109375 0.17179687 7.1721875 -0.22265625 6.359375 C-1.08564091 3.74006478 -0.93045933 2.55144824 0 0 Z " fill="#E1F30C" transform="translate(264,409)"/>
<path d="M0 0 C0.33 0.66 0.66 1.32 1 2 C0.22729492 3.95532227 0.22729492 3.95532227 -1.01953125 6.31640625 C-1.46490234 7.16267578 -1.91027344 8.00894531 -2.36914062 8.88085938 C-2.84544922 9.76580078 -3.32175781 10.65074219 -3.8125 11.5625 C-4.27720703 12.45130859 -4.74191406 13.34011719 -5.22070312 14.25585938 C-8.73611201 20.86805601 -8.73611201 20.86805601 -11 22 C-10.56677237 16.22363158 -8.13004944 12.66472742 -5 8 C-4.05745407 6.50316554 -3.11974202 5.00327345 -2.1875 3.5 C-1.45833333 2.33333333 -0.72916667 1.16666667 0 0 Z " fill="#218247" transform="translate(161,276)"/>
<path d="M0 0 C0.66 0.33 1.32 0.66 2 1 C1.67 1.7425 1.34 2.485 1 3.25 C-0.22782871 6.13883312 -0.22782871 6.13883312 0 10 C-0.33 9.34 -0.66 8.68 -1 8 C-1.66 8 -2.32 8 -3 8 C-3.103125 8.7425 -3.20625 9.485 -3.3125 10.25 C-4.04253504 13.17014018 -5.06789398 14.73187554 -7 17 C-7.33 16.34 -7.66 15.68 -8 15 C-6.75874818 12.38838269 -5.4689476 9.89498214 -4.0625 7.375 C-3.48338867 6.31539063 -3.48338867 6.31539063 -2.89257812 5.234375 C-1.93551304 3.48566349 -0.96865969 1.74231568 0 0 Z " fill="#B3D7C5" transform="translate(215,293)"/>
<path d="M0 0 C1.06723961 3.46222615 1.10173486 6.64039266 1.0625 10.25 C1.05347656 11.32765625 1.04445313 12.4053125 1.03515625 13.515625 C1.02355469 14.33546875 1.01195312 15.1553125 1 16 C0.01 16 -0.98 16 -2 16 C-2.08997924 10.87118304 -1.93119789 6.0698552 -1 1 C-0.67 0.67 -0.34 0.34 0 0 Z " fill="#067F43" transform="translate(359,339)"/>
<path d="M0 0 C0.33 0.66 0.66 1.32 1 2 C1.66 2 2.32 2 3 2 C2.67 5.3 2.34 8.6 2 12 C1.34 12 0.68 12 0 12 C0 10.02 0 8.04 0 6 C-0.99 6.33 -1.98 6.66 -3 7 C-1.125 2.25 -1.125 2.25 0 0 Z " fill="#9AF509" transform="translate(322,423)"/>
<path d="M0 0 C0.66 0 1.32 0 2 0 C1.88573491 2.41760876 1.75900339 4.83347218 1.625 7.25 C1.5940625 7.93191406 1.563125 8.61382812 1.53125 9.31640625 C1.31740626 12.98739038 0.98922945 15.86251616 -1 19 C-2.00053923 14.39612021 -1.86574911 10.75549487 -1.0625 6.125 C-0.86785156 4.97257812 -0.67320312 3.82015625 -0.47265625 2.6328125 C-0.31667969 1.76398438 -0.16070312 0.89515625 0 0 Z " fill="#55A67C" transform="translate(363,261)"/>
<path d="M0 0 C0.33 0.99 0.66 1.98 1 3 C-3.77618266 6.89635954 -5.80401645 8.13469529 -12 8 C-9.54945142 4.32417713 -8.0945678 4.3102617 -4 3 C-1.69833325 1.48446847 -1.69833325 1.48446847 0 0 Z " fill="#81F50A" transform="translate(304,428)"/>
<path d="M0 0 C1.48828125 1.01953125 1.48828125 1.01953125 3 3 C3.2172101 5.64996326 3.28351554 8.05076558 3.1875 10.6875 C3.17396484 11.38939453 3.16042969 12.09128906 3.14648438 12.81445312 C3.11120182 14.54329829 3.05739583 16.27174765 3 18 C2.34 18 1.68 18 1 18 C-0.32594359 12.03325384 -0.0884587 6.07416385 0 0 Z " fill="#86C0A3" transform="translate(246,301)"/>
<path d="M0 0 C0.33 0 0.66 0 1 0 C1 3.96 1 7.92 1 12 C1.99 11.67 2.98 11.34 4 11 C4 11.99 4 12.98 4 14 C3.01 14.495 3.01 14.495 2 15 C1.67 15.99 1.34 16.98 1 18 C0.34 18 -0.32 18 -1 18 C-1.09706112 11.88514973 -0.77040851 6.06696699 0 0 Z " fill="#C6E1D3" transform="translate(189,292)"/>
<path d="M0 0 C0 0.33 0 0.66 0 1 C-1.12019531 1.13277344 -2.24039062 1.26554688 -3.39453125 1.40234375 C-4.86720729 1.58056569 -6.33986247 1.75896011 -7.8125 1.9375 C-8.55048828 2.02451172 -9.28847656 2.11152344 -10.04882812 2.20117188 C-13.16733121 2.58216546 -16.01108122 3.00369374 -19 4 C-19.66 3.67 -20.32 3.34 -21 3 C-21 2.34 -21 1.68 -21 1 C-13.65485589 -0.50382815 -7.4189942 -1.23649903 0 0 Z " fill="#268E5A" transform="translate(450,241)"/>
<path d="M0 0 C3 1 3 1 4 2 C4.36442233 3.66014616 4.69972883 5.32706064 5 7 C3.35 7.66 1.7 8.32 0 9 C-0.90786761 5.70897992 -1.59440475 3.18880951 0 0 Z " fill="#52A176" transform="translate(276,374)"/>
<path d="M0 0 C0.66 1.32 1.32 2.64 2 4 C-2.1205746 5.99785435 -5.45194365 6.17835515 -10 6 C-10 5.01 -10 4.02 -10 3 C-9.36191406 2.95101563 -8.72382813 2.90203125 -8.06640625 2.8515625 C-7.24011719 2.77679688 -6.41382813 2.70203125 -5.5625 2.625 C-4.73878906 2.55539062 -3.91507812 2.48578125 -3.06640625 2.4140625 C-2.38449219 2.27742188 -1.70257813 2.14078125 -1 2 C-0.67 1.34 -0.34 0.68 0 0 Z " fill="#77F20D" transform="translate(445,430)"/>
<path d="M0 0 C0.66 0 1.32 0 2 0 C2.33 0.99 2.66 1.98 3 3 C1.7934375 3.37125 1.7934375 3.37125 0.5625 3.75 C-2.171081 4.72238859 -2.171081 4.72238859 -2.8125 7.125 C-2.874375 7.74375 -2.93625 8.3625 -3 9 C-3 8.34 -3 7.68 -3 7 C-3.99 7.33 -4.98 7.66 -6 8 C-6.66 7.34 -7.32 6.68 -8 6 C-2.25 2 -2.25 2 0 2 C0 1.34 0 0.68 0 0 Z " fill="#499D70" transform="translate(499,370)"/>
<path d="M0 0 C0.66 0 1.32 0 2 0 C2.226875 0.721875 2.45375 1.44375 2.6875 2.1875 C4.24831013 5.53209313 6.3031287 7.51603959 9 10 C8.67 10.66 8.34 11.32 8 12 C4.81042093 10.93680698 3.91621368 10.14289269 1.75 7.6875 C0.93789062 6.79611328 0.93789062 6.79611328 0.109375 5.88671875 C-1 4 -1 4 -0.671875 1.76953125 C-0.45015625 1.18558594 -0.2284375 0.60164063 0 0 Z " fill="#90C4A7" transform="translate(165,365)"/>
<path d="M0 0 C0.66 0 1.32 0 2 0 C2 4.95 2 9.9 2 15 C1.01 15.33 0.02 15.66 -1 16 C-0.67 10.72 -0.34 5.44 0 0 Z " fill="#4AA176" transform="translate(366,268)"/>
<path d="M0 0 C0.33 0.99 0.66 1.98 1 3 C1.66 3 2.32 3 3 3 C3 4.32 3 5.64 3 7 C5.31 6.34 7.62 5.68 10 5 C6.69298952 8.91941982 6.69298952 8.91941982 3.3125 9.3125 C1 9 1 9 0 8 C-0.14115161 5.32941149 -0.04247107 2.67567762 0 0 Z " fill="#89F708" transform="translate(330,426)"/>
<path d="M0 0 C0.66 0 1.32 0 2 0 C2.08167446 1.41569064 2.13949698 2.83276805 2.1875 4.25 C2.22230469 5.03890625 2.25710938 5.8278125 2.29296875 6.640625 C1.93578688 9.51712968 0.88248282 10.84576769 -1 13 C-1.02686553 11.02090602 -1.04633375 9.04171029 -1.0625 7.0625 C-1.07410156 5.96035156 -1.08570313 4.85820312 -1.09765625 3.72265625 C-1 1 -1 1 0 0 Z " fill="#C8F906" transform="translate(486,417)"/>
<path d="M0 0 C-0.61277612 2.96175123 -1.25372522 4.38058783 -3 7 C-3.99 7 -4.98 7 -6 7 C-6 5.68 -6 4.36 -6 3 C-7.65 3 -9.3 3 -11 3 C-11 2.67 -11 2.34 -11 2 C-9.5422647 1.664061 -8.08378894 1.33133376 -6.625 1 C-5.40683594 0.7215625 -5.40683594 0.7215625 -4.1640625 0.4375 C-2 0 -2 0 0 0 Z " fill="#B1D6C3" transform="translate(382,329)"/>
<path d="M0 0 C0.33 0 0.66 0 1 0 C0.88487847 1.72985242 0.75744323 3.45888751 0.625 5.1875 C0.52058594 6.63189453 0.52058594 6.63189453 0.4140625 8.10546875 C-0.00215853 11.01508938 -0.79874096 13.32890774 -2 16 C-2.33 16 -2.66 16 -3 16 C-3.02712066 14.56260487 -3.04645067 13.12506137 -3.0625 11.6875 C-3.07410156 10.88699219 -3.08570313 10.08648437 -3.09765625 9.26171875 C-3 7 -3 7 -2 4 C-1.34 4 -0.68 4 0 4 C0 2.68 0 1.36 0 0 Z " fill="#D4E8DE" transform="translate(364,285)"/>
<path d="M0 0 C2.475 0.495 2.475 0.495 5 1 C5.33 1.99 5.66 2.98 6 4 C4.75 6.1875 4.75 6.1875 3 8 C2.01 8 1.02 8 0 8 C0 5.36 0 2.72 0 0 Z " fill="#85F40B" transform="translate(484,427)"/>
<path d="M0 0 C-0.33 1.32 -0.66 2.64 -1 4 C-2.98 4 -4.96 4 -7 4 C-7 3.34 -7 2.68 -7 2 C-8.98 2 -10.96 2 -13 2 C-13 1.67 -13 1.34 -13 1 C-8.62426048 0.40667939 -4.42471556 -0.13827236 0 0 Z " fill="#A9E618" transform="translate(410,421)"/>
<path d="M0 0 C0.66 0 1.32 0 2 0 C2.16682272 4.92127034 2.24828052 8.50343896 0 13 C-0.33 13 -0.66 13 -1 13 C-1.02686553 11.02090602 -1.04633375 9.04171029 -1.0625 7.0625 C-1.07410156 5.96035156 -1.08570313 4.85820312 -1.09765625 3.72265625 C-1 1 -1 1 0 0 Z " fill="#CBFB04" transform="translate(354,417)"/>
<path d="M0 0 C0.33 0 0.66 0 1 0 C1.28571429 8.57142857 1.28571429 8.57142857 -1 12 C-2.32 11.34 -3.64 10.68 -5 10 C-4.67 8.35 -4.34 6.7 -4 5 C-3.34 5.33 -2.68 5.66 -2 6 C-1.34 4.02 -0.68 2.04 0 0 Z " fill="#3F9B6D" transform="translate(224,271)"/>
<path d="M0 0 C2.78633115 4.17949673 4 6.93375326 4 12 C1 11 1 11 -0.25 8.8125 C-1.12860506 5.51773102 -0.76557916 3.29199038 0 0 Z " fill="#ACF40C" transform="translate(269,419)"/>
<path d="M0 0 C0 0.99 0 1.98 0 3 C-1.53125 4.38671875 -1.53125 4.38671875 -3.5 5.6875 C-4.47453125 6.34298828 -4.47453125 6.34298828 -5.46875 7.01171875 C-5.9740625 7.33785156 -6.479375 7.66398437 -7 8 C-7.99 7.34 -8.98 6.68 -10 6 C-3.71428571 0.42857143 -3.71428571 0.42857143 0 0 Z " fill="#C6E1D2" transform="translate(287,382)"/>
<path d="M0 0 C1.32 0.66 2.64 1.32 4 2 C2.865625 2.556875 1.73125 3.11375 0.5625 3.6875 C-2.55468831 5.4222876 -2.55468831 5.4222876 -3.9375 8.75 C-3.958125 9.4925 -3.97875 10.235 -4 11 C-4.99 10.34 -5.98 9.68 -7 9 C-5.03681826 5.46627288 -2.95929119 2.75520215 0 0 Z " fill="#D2E7DD" transform="translate(495,370)"/>
<path d="M0 0 C1.5625 1.25 1.5625 1.25 3 3 C2.79375 3.598125 2.5875 4.19625 2.375 4.8125 C1.74474226 7.00165939 1.74474226 7.00165939 3.03515625 8.58984375 C4.31077688 10.09997959 5.65236829 11.55376109 7 13 C2.7257442 11.4169423 0.73468206 8.49431596 -2 5 C-1.34 3.35 -0.68 1.7 0 0 Z " fill="#368F5B" transform="translate(163,362)"/>
<path d="M0 0 C0.33 0 0.66 0 1 0 C1.66 3.96 2.32 7.92 3 12 C2.34 12 1.68 12 1 12 C1 11.01 1 10.02 1 9 C0.34 9 -0.32 9 -1 9 C-0.67 9.99 -0.34 10.98 0 12 C-0.66 12 -1.32 12 -2 12 C-1.85831863 10.56208484 -1.71148957 9.1246763 -1.5625 7.6875 C-1.48128906 6.88699219 -1.40007812 6.08648437 -1.31640625 5.26171875 C-1 3 -1 3 0 0 Z " fill="#EDF5F1" transform="translate(374,290)"/>
<path d="M0 0 C0 0.66 0 1.32 0 2 C-1.41538717 2.33872513 -2.83237963 2.67074624 -4.25 3 C-5.03890625 3.185625 -5.8278125 3.37125 -6.640625 3.5625 C-9 4 -9 4 -13 4 C-13 3.34 -13 2.68 -13 2 C-8.49646738 0.24252386 -4.82360189 -0.19294408 0 0 Z " fill="#C9E2D5" transform="translate(438,239)"/>
<path d="M0 0 C0 2 0 2 -2.3125 4.4375 C-3.199375 5.283125 -4.08625 6.12875 -5 7 C-5.8971875 7.8971875 -5.8971875 7.8971875 -6.8125 8.8125 C-7.204375 9.204375 -7.59625 9.59625 -8 10 C-7.30900988 3.91928698 -6.72220126 0 0 0 Z " fill="#BBF30C" transform="translate(365,420)"/>
<path d="M0 0 C3.625 -0.1875 3.625 -0.1875 7 0 C6.13375 0.309375 6.13375 0.309375 5.25 0.625 C2.20666366 2.48481665 0.92688574 5.04544187 -1 8 C-1.66 8 -2.32 8 -3 8 C-2.45276317 4.62537285 -1.9451 2.91765 0 0 Z " fill="#C9F30D" transform="translate(467,418)"/>
<path d="M0 0 C2.57449581 2.57449581 2.2763761 4.41337147 2.36328125 7.9296875 C1.89993013 10.57029065 0.71533958 11.98142097 -1 14 C-1.02705729 12.22925083 -1.04642195 10.45838289 -1.0625 8.6875 C-1.07410156 7.70136719 -1.08570313 6.71523438 -1.09765625 5.69921875 C-1 3 -1 3 0 0 Z " fill="#B6D9C7" transform="translate(361,340)"/>
<path d="M0 0 C3 3 3 3 3.29296875 5.26171875 C3.25816406 6.06222656 3.22335937 6.86273438 3.1875 7.6875 C3.16042969 8.49574219 3.13335937 9.30398438 3.10546875 10.13671875 C3.07066406 10.75160156 3.03585937 11.36648438 3 12 C2.01 12 1.02 12 0 12 C0 8.04 0 4.08 0 0 Z " fill="#83F011" transform="translate(453,424)"/>
<path d="M0 0 C-0.125 1.75 -0.125 1.75 -1 4 C-4.0625 6.25 -4.0625 6.25 -7 8 C-6.62952882 5.25851328 -6.31412056 3.41406801 -4.625 1.1875 C-3 0 -3 0 0 0 Z " fill="#1E8A54" transform="translate(300,418)"/>
<path d="M0 0 C1.65 0.33 3.3 0.66 5 1 C3.8141763 4.37503669 2.72426311 6.64722731 0 9 C-1.125 2.25 -1.125 2.25 0 0 Z " fill="#B2D6C4" transform="translate(145,289)"/>
<path d="M0 0 C0.33 0 0.66 0 1 0 C2.42705634 5.30723432 3.4002792 9.53891111 2 15 C1.34 15 0.68 15 0 15 C0 10.05 0 5.1 0 0 Z " fill="#C3E0D2" transform="translate(128,251)"/>
<path d="M0 0 C0.33 0 0.66 0 1 0 C1 1.65 1 3.3 1 5 C2.32 5 3.64 5 5 5 C4.67 5.99 4.34 6.98 4 8 C2.35 8 0.7 8 -1 8 C-1.33 6.02 -1.66 4.04 -2 2 C-1.34 2 -0.68 2 0 2 C0 1.34 0 0.68 0 0 Z " fill="#8BF50A" transform="translate(369,426)"/>
<path d="M0 0 C0.33 0.99 0.66 1.98 1 3 C1.66 3 2.32 3 3 3 C3 5.64 3 8.28 3 11 C2.01 10.67 1.02 10.34 0 10 C0 6.7 0 3.4 0 0 Z " fill="#86F905" transform="translate(393,426)"/>
<path d="M0 0 C0.33 0 0.66 0 1 0 C1 1.65 1 3.3 1 5 C2.32 5 3.64 5 5 5 C4.67 5.99 4.34 6.98 4 8 C2.35 8 0.7 8 -1 8 C-1.33 6.68 -1.66 5.36 -2 4 C-1.34 4 -0.68 4 0 4 C0 2.68 0 1.36 0 0 Z " fill="#82EF10" transform="translate(501,426)"/>
<path d="M0 0 C0 3.3 0 6.6 0 10 C-0.66 10 -1.32 10 -2 10 C-2.33 7.36 -2.66 4.72 -3 2 C-3.99 1.67 -4.98 1.34 -6 1 C-3 0 -3 0 0 0 Z " fill="#B0F10D" transform="translate(501,420)"/>
<path d="M0 0 C0.99 0.33 1.98 0.66 3 1 C2.67 5.95 2.34 10.9 2 16 C1.67 16 1.34 16 1 16 C0.67 10.72 0.34 5.44 0 0 Z " fill="#379767" transform="translate(200,354)"/>
<path d="M0 0 C0.33 0.66 0.66 1.32 1 2 C0.04060332 3.69036558 -0.96642853 5.35394174 -2 7 C-2.33 7.886875 -2.66 8.77375 -3 9.6875 C-4 12 -4 12 -7 14 C-7 10.11708254 -5.62139506 8.53247465 -3.5 5.3125 C-2.8503125 4.31863281 -2.200625 3.32476562 -1.53125 2.30078125 C-0.77328125 1.16189453 -0.77328125 1.16189453 0 0 Z " fill="#13844A" transform="translate(226,311)"/>
<path d="M0 0 C0.99 0.66 1.98 1.32 3 2 C1.68 4.31 0.36 6.62 -1 9 C-1.66 9 -2.32 9 -3 9 C-2.5020163 5.26512223 -2.12508244 3.18762365 0 0 Z " fill="#BAF609" transform="translate(334,420)"/>
<path d="M0 0 C0.99 0 1.98 0 3 0 C1.68775452 3.93673644 0.08089673 6.22719294 -3 9 C-2.5020163 5.26512223 -2.12508244 3.18762365 0 0 Z " fill="#C2F40B" transform="translate(281,419)"/>
<path d="M0 0 C0.5534764 2.07553648 1 3.84365964 1 6 C-0.32 5.67 -1.64 5.34 -3 5 C-3.33 5.66 -3.66 6.32 -4 7 C-4.99 6.67 -5.98 6.34 -7 6 C-4.74259377 3.66475218 -2.7194239 1.81294927 0 0 Z " fill="#AED5C1" transform="translate(292,361)"/>
<path d="M0 0 C0.33 1.32 0.66 2.64 1 4 C1.66 4 2.32 4 3 4 C3.20140476 7.62528568 2.85776765 9.86501708 1 13 C0 12 0 12 -0.09765625 9.27734375 C-0.08605469 8.17519531 -0.07445312 7.07304687 -0.0625 5.9375 C-0.05347656 4.83277344 -0.04445313 3.72804688 -0.03515625 2.58984375 C-0.02355469 1.73519531 -0.01195312 0.88054687 0 0 Z " fill="#B8DAC8" transform="translate(415,265)"/>
<path d="M0 0 C2.65269897 2.47585238 4.68010103 4.59026101 6 8 C6 8.99 6 9.98 6 11 C5.01 10.67 4.02 10.34 3 10 C1.38346804 6.76693609 0.60852308 3.54971796 0 0 Z " fill="#C2DFD0" transform="translate(153,347)"/>
<path d="M0 0 C0.99 0 1.98 0 3 0 C2.25 4.75 2.25 4.75 0 7 C-0.99 7.33 -1.98 7.66 -3 8 C-1.125 2.25 -1.125 2.25 0 0 Z " fill="#E0EFE7" transform="translate(217,302)"/>
<path d="M0 0 C0.33 0.99 0.66 1.98 1 3 C1.66 3 2.32 3 3 3 C2.67 5.97 2.34 8.94 2 12 C0 10 0 10 -0.1953125 7.6171875 C-0.17210937 6.71226562 -0.14890625 5.80734375 -0.125 4.875 C-0.10695313 3.96492188 -0.08890625 3.05484375 -0.0703125 2.1171875 C-0.04710937 1.41851562 -0.02390625 0.71984375 0 0 Z " fill="#ACD3C0" transform="translate(456,290)"/>
<path d="M0 0 C2.97 0 5.94 0 9 0 C8.67 0.99 8.34 1.98 8 3 C7.34 3 6.68 3 6 3 C5.67 3.66 5.34 4.32 5 5 C4.67 4.34 4.34 3.68 4 3 C1.97536745 2.34786708 1.97536745 2.34786708 0 2 C0 1.34 0 0.68 0 0 Z " fill="#228A54" transform="translate(428,248)"/>
<path d="M0 0 C1.98 0.99 1.98 0.99 4 2 C4.08131463 3.43655854 4.13933559 4.8744483 4.1875 6.3125 C4.22230469 7.11300781 4.25710938 7.91351563 4.29296875 8.73828125 C3.93801608 11.47851584 3.10633718 12.29171079 1 14 C1.01160156 13.15695312 1.02320313 12.31390625 1.03515625 11.4453125 C1.04417969 10.34960938 1.05320312 9.25390625 1.0625 8.125 C1.07410156 7.03445313 1.08570313 5.94390625 1.09765625 4.8203125 C1.19744303 2.04822454 1.19744303 2.04822454 0 0 Z " fill="#259052" transform="translate(354,415)"/>
<path d="M0 0 C0 0.66 0 1.32 0 2 C-2.97411124 3.23921302 -5.85262818 4.30058404 -9 5 C-6.81610567 0.16423399 -5.20641855 -0.13701101 0 0 Z " fill="#EAF905" transform="translate(344,416)"/>
<path d="M0 0 C0.66 0 1.32 0 2 0 C2.33 0.66 2.66 1.32 3 2 C3.66 1.34 4.32 0.68 5 0 C4.43628586 3.26954202 3.50037734 4.82575883 1 7 C0.01 6.34 -0.98 5.68 -2 5 C-1.34 3.35 -0.68 1.7 0 0 Z " fill="#A2CDB5" transform="translate(139,309)"/>
<path d="M0 0 C2.49505962 2.49505962 2.35948376 3.67328888 2.625 7.125 C2.69976562 8.03507812 2.77453125 8.94515625 2.8515625 9.8828125 C2.92503906 10.93082031 2.92503906 10.93082031 3 12 C2.01 11.67 1.02 11.34 0 11 C0 7.37 0 3.74 0 0 Z " fill="#0A7E43" transform="translate(363,296)"/>
<path d="M0 0 C0.33 0 0.66 0 1 0 C1.33 4.29 1.66 8.58 2 13 C1.01 13 0.02 13 -1 13 C-1.33 11.68 -1.66 10.36 -2 9 C-1.34 9 -0.68 9 0 9 C0 6.03 0 3.06 0 0 Z " fill="#73E31C" transform="translate(429,423)"/>
<path d="M0 0 C2.31 0 4.62 0 7 0 C7 0.99 7 1.98 7 3 C4.69 3.33 2.38 3.66 0 4 C0 2.68 0 1.36 0 0 Z " fill="#D8EE11" transform="translate(442,415)"/>
<path d="M0 0 C0.99 0 1.98 0 3 0 C3 0.66 3 1.32 3 2 C3.66 2.33 4.32 2.66 5 3 C2.525 4.485 2.525 4.485 0 6 C-0.66 5.34 -1.32 4.68 -2 4 C-1.34 4 -0.68 4 0 4 C-0.33 3.01 -0.66 2.02 -1 1 C-0.67 0.67 -0.34 0.34 0 0 Z " fill="#C1DED0" transform="translate(281,375)"/>
<path d="M0 0 C0.99 0.66 1.98 1.32 3 2 C2.67 3.98 2.34 5.96 2 8 C0.68 7.34 -0.64 6.68 -2 6 C-1.34 4.02 -0.68 2.04 0 0 Z " fill="#B7DAC8" transform="translate(383,361)"/>
<path d="M0 0 C0.66 0.33 1.32 0.66 2 1 C1.67 2.65 1.34 4.3 1 6 C-0.98 6.33 -2.96 6.66 -5 7 C-5 6.01 -5 5.02 -5 4 C-2.5 1.8125 -2.5 1.8125 0 0 Z " fill="#B8DAC8" transform="translate(500,361)"/>
<path d="M0 0 C0.66 0 1.32 0 2 0 C2.99 2.97 3.98 5.94 5 9 C3.68 9.33 2.36 9.66 1 10 C0.67 6.7 0.34 3.4 0 0 Z " fill="#C9E3D6" transform="translate(147,337)"/>
<path d="M0 0 C0.66 0 1.32 0 2 0 C2 2.97 2 5.94 2 9 C1.01 9.495 1.01 9.495 0 10 C0 9.34 0 8.68 0 8 C-0.66 8 -1.32 8 -2 8 C-1.34 5.36 -0.68 2.72 0 0 Z " fill="#7BBB9B" transform="translate(218,283)"/>
<path d="M0 0 C2.125 0.375 2.125 0.375 4 1 C2.37660195 2.70884005 0.70680947 4.37446717 -1 6 C-1.66 6 -2.32 6 -3 6 C-2.42655063 3.13275314 -2.1385485 2.1385485 0 0 Z " fill="#BEF30B" transform="translate(313,421)"/>
<path d="M0 0 C0.99 0 1.98 0 3 0 C3 1.65 3 3.3 3 5 C1.68 5 0.36 5 -1 5 C-0.67 3.35 -0.34 1.7 0 0 Z " fill="#DDEB12" transform="translate(458,405)"/>
<path d="M0 0 C2.25 0.25 2.25 0.25 4 1 C1.03 3.475 1.03 3.475 -2 6 C-2.66 5.34 -3.32 4.68 -4 4 C-2.25 1.9375 -2.25 1.9375 0 0 Z " fill="#B0D5C1" transform="translate(493,382)"/>
<path d="M0 0 C0.66 0.99 1.32 1.98 2 3 C1.01 4.98 0.02 6.96 -1 9 C-1.99 8.67 -2.98 8.34 -4 8 C-2.87548273 5.0280615 -1.77706209 2.66559313 0 0 Z " fill="#85C0A3" transform="translate(205,316)"/>
<path d="M0 0 C1.32 0 2.64 0 4 0 C4 0.99 4 1.98 4 3 C2.02 3.66 0.04 4.32 -2 5 C-2 4.01 -2 3.02 -2 2 C-1.34 2 -0.68 2 0 2 C0 1.34 0 0.68 0 0 Z " fill="#6BB18C" transform="translate(450,246)"/>
<path d="M0 0 C-1.32 0.33 -2.64 0.66 -4 1 C-4 1.66 -4 2.32 -4 3 C-5.75 3.6875 -5.75 3.6875 -8 4 C-10.25 2.5625 -10.25 2.5625 -12 1 C-7.95858806 0.36605303 -4.0934693 -0.12404452 0 0 Z " fill="#B6D8C7" transform="translate(446,242)"/>
<path d="M0 0 C1.32 0 2.64 0 4 0 C4 1.65 4 3.3 4 5 C3.34 5 2.68 5 2 5 C1.34 5.66 0.68 6.32 0 7 C0 4.69 0 2.38 0 0 Z " fill="#0D8058" transform="translate(325,428)"/>
<path d="M0 0 C0.33 0 0.66 0 1 0 C0.67 2.97 0.34 5.94 0 9 C-0.99 9 -1.98 9 -3 9 C-2.67 7.02 -2.34 5.04 -2 3 C-1.34 3 -0.68 3 0 3 C0 2.01 0 1.02 0 0 Z " fill="#ACF20D" transform="translate(479,420)"/>
<path d="M0 0 C0.66 0 1.32 0 2 0 C1.34 3.96 0.68 7.92 0 12 C-0.33 12 -0.66 12 -1 12 C-0.979375 10.88625 -0.95875 9.7725 -0.9375 8.625 C-0.73619282 5.16784079 -0.73619282 5.16784079 -2 3 C-1.34 2.01 -0.68 1.02 0 0 Z " fill="#8CC3A7" transform="translate(372,290)"/>
<path d="M0 0 C-0.33 0.66 -0.66 1.32 -1 2 C-3.97 1.67 -6.94 1.34 -10 1 C-10.33 1.66 -10.66 2.32 -11 3 C-11.66 2.34 -12.32 1.68 -13 1 C-11.58622218 0.63447197 -10.16879424 0.28304505 -8.75 -0.0625 C-7.96109375 -0.25972656 -7.1721875 -0.45695313 -6.359375 -0.66015625 C-3.89605178 -1.01497267 -2.34395868 -0.76877544 0 0 Z " fill="#9BCBB3" transform="translate(447,250)"/>
<path d="M0 0 C0.99 0 1.98 0 3 0 C2.67 1.65 2.34 3.3 2 5 C0.68 5.33 -0.64 5.66 -2 6 C-1.34 4.02 -0.68 2.04 0 0 Z " fill="#C6F00E" transform="translate(428,418)"/>
<path d="M0 0 C1.65 0.33 3.3 0.66 5 1 C4.67 1.99 4.34 2.98 4 4 C2 4 0 4 -2 4 C-1.34 2.68 -0.68 1.36 0 0 Z " fill="#E3FC02" transform="translate(495,418)"/>
<path d="M0 0 C1.2065625 0.0309375 1.2065625 0.0309375 2.4375 0.0625 C2.1075 2.7025 1.7775 5.3425 1.4375 8.0625 C1.1075 8.0625 0.7775 8.0625 0.4375 8.0625 C0.4375 6.0825 0.4375 4.1025 0.4375 2.0625 C-0.8825 1.7325 -2.2025 1.4025 -3.5625 1.0625 C-2.5625 0.0625 -2.5625 0.0625 0 0 Z " fill="#118349" transform="translate(413.5625,260.9375)"/>
<path d="M0 0 C0.33 0.99 0.66 1.98 1 3 C1.66 3 2.32 3 3 3 C3 4.98 3 6.96 3 9 C2.01 9.495 2.01 9.495 1 10 C0.67 6.7 0.34 3.4 0 0 Z " fill="#B9DAC9" transform="translate(189,260)"/>
<path d="M0 0 C1.485 0.99 1.485 0.99 3 2 C2.34 3.65 1.68 5.3 1 7 C0.34 7 -0.32 7 -1 7 C-0.67 4.69 -0.34 2.38 0 0 Z " fill="#94F40D" transform="translate(309,426)"/>
<path d="M0 0 C1.65 0 3.3 0 5 0 C5.66 1.32 6.32 2.64 7 4 C4.625 3.6875 4.625 3.6875 2 3 C1.34 2.01 0.68 1.02 0 0 Z " fill="#B2F608" transform="translate(437,424)"/>
<path d="M0 0 C-2.25 2.0625 -2.25 2.0625 -5 4 C-7.3125 3.75 -7.3125 3.75 -9 3 C-5.92807025 0.26939578 -4.09590633 -0.34132553 0 0 Z " fill="#E4F708" transform="translate(323,417)"/>
<path d="M0 0 C0.66 0.33 1.32 0.66 2 1 C0.8803014 2.00593243 -0.2459412 3.0045849 -1.375 4 C-2.00148438 4.556875 -2.62796875 5.11375 -3.2734375 5.6875 C-5 7 -5 7 -7 7 C-5.55609075 3.19333016 -3.65047197 1.73397418 0 0 Z " fill="#188046" transform="translate(291,370)"/>
<path d="M0 0 C0 1.98 0 3.96 0 6 C-0.99 6.33 -1.98 6.66 -3 7 C-3.66 6.67 -4.32 6.34 -5 6 C-5 4 -5 4 -3.0625 1.875 C-1 0 -1 0 0 0 Z " fill="#FCFDFC" transform="translate(418,314)"/>
<path d="M0 0 C0.33 0 0.66 0 1 0 C0.67 4.29 0.34 8.58 0 13 C-0.33 13 -0.66 13 -1 13 C-1.33 9.7 -1.66 6.4 -2 3 C-1.34 3 -0.68 3 0 3 C0 2.01 0 1.02 0 0 Z " fill="#B3D8C5" transform="translate(367,305)"/>
<path d="M0 0 C0.99 0 1.98 0 3 0 C2.34 3.63 1.68 7.26 1 11 C0.67 11 0.34 11 0 11 C0 7.37 0 3.74 0 0 Z " fill="#E6F1EB" transform="translate(247,300)"/>
<path d="M0 0 C0.66 0 1.32 0 2 0 C2 1.98 2 3.96 2 6 C2.66 6 3.32 6 4 6 C3.67 7.32 3.34 8.64 3 10 C2.34 10 1.68 10 1 10 C0.67 6.7 0.34 3.4 0 0 Z " fill="#61E61A" transform="translate(320,429)"/>
<path d="M0 0 C0.66 0.33 1.32 0.66 2 1 C2 2.98 2 4.96 2 7 C1.34 6.67 0.68 6.34 0 6 C-0.66 6.66 -1.32 7.32 -2 8 C-2 6.68 -2 5.36 -2 4 C-1.34 4 -0.68 4 0 4 C0 2.68 0 1.36 0 0 Z " fill="#F7FAF8" transform="translate(379,332)"/>
<path d="M0 0 C2.0625 1.5625 2.0625 1.5625 4 4 C3.75 7.75 3.75 7.75 3 11 C0.87953208 7.46588679 0.46800711 4.05606165 0 0 Z " fill="#2C9361" transform="translate(362,306)"/>
</svg>
